<svg xmlns="http://www.w3.org/2000/svg" viewBox="0 0 250.24 193.79"><defs><style>.cls-1{isolation:isolate;}.cls-2{fill:#01d5d5;stroke-width:4.93px;}.cls-2,.cls-4,.cls-6{stroke:#131662;}.cls-2,.cls-6{stroke-linecap:round;}.cls-2,.cls-4,.cls-5,.cls-6{stroke-miterlimit:10;}.cls-3,.cls-4{fill:#131662;}.cls-4{stroke-width:2.25px;}.cls-5,.cls-6{fill:none;}.cls-5{stroke:#f48030;stroke-width:3.38px;}.cls-6{stroke-width:6.73px;}.cls-7{fill:#fff;opacity:0.88;mix-blend-mode:soft-light;}</style></defs><g class="cls-1"><g id="Layer_2" data-name="Layer 2"><g id="Layer_1-2" data-name="Layer 1"><rect class="cls-2" x="55.51" y="28.07" width="139.23" height="162.33" rx="4.03"/><path class="cls-3" d="M160.89,32.18a10.69,10.69,0,0,1-10.65,10.65h-49.5a10.65,10.65,0,0,1,0-21.29H109a10.91,10.91,0,0,1-.3-2.58A11.16,11.16,0,0,1,119.82,7.83h11.36A11.16,11.16,0,0,1,142.31,19a10.91,10.91,0,0,1-.3,2.58h8.23A10.67,10.67,0,0,1,160.89,32.18Z"/><rect class="cls-3" x="101.72" y="60.11" width="71.49" height="2.34"/><rect class="cls-3" x="101.72" y="74.52" width="71.49" height="2.34"/><rect class="cls-3" x="101.72" y="88.94" width="71.49" height="2.34"/><rect class="cls-3" x="101.72" y="103.35" width="71.49" height="2.34"/><rect class="cls-3" x="101.72" y="117.77" width="71.49" height="2.34"/><rect class="cls-3" x="101.72" y="132.18" width="71.49" height="2.34"/><rect class="cls-4" x="76.87" y="171.04" width="97.78" height="1.01"/><path class="cls-3" d="M91.1,69.76H75.7V54.36H91.1ZM78,67.43H88.76V56.7H78Z"/><path class="cls-3" d="M91.1,91.93H75.7V76.53H91.1ZM78,89.59H88.76V78.86H78Z"/><path class="cls-3" d="M91.1,114.09H75.7V98.7H91.1ZM78,111.76H88.76V101H78Z"/><path class="cls-3" d="M91.1,136.26H75.7v-15.4H91.1ZM78,133.93H88.76V123.2H78Z"/><polyline class="cls-5" points="73.35 60.11 78.04 65.65 98.2 52.41"/><polyline class="cls-5" points="73.35 105.6 78.04 111.14 98.2 97.91"/><path class="cls-3" d="M30.07,33.67a2.86,2.86,0,0,0-4-.2l-4.54,4.1L17.38,33a2.87,2.87,0,0,0-4.25,3.85l4.11,4.53L12.7,45.52a2.87,2.87,0,0,0,2.6,4.91,2.83,2.83,0,0,0,1.24-.66l4.54-4.11,4.11,4.54a2.86,2.86,0,1,0,4.24-3.84l-4.1-4.54,4.54-4.1A2.87,2.87,0,0,0,30.07,33.67Z"/><path class="cls-3" d="M241.69,36.49a2.86,2.86,0,0,0-4-.21l-4.54,4.11L229,35.85a2.86,2.86,0,0,0-4.25,3.84l4.11,4.54-4.54,4.11a2.87,2.87,0,0,0,2.6,4.91,2.83,2.83,0,0,0,1.24-.66l4.54-4.11L236.81,53a2.86,2.86,0,0,0,4.24-3.84L237,44.64l4.54-4.11A2.86,2.86,0,0,0,241.69,36.49Z"/><path class="cls-3" d="M39.09,1.73a1.29,1.29,0,0,0-1.78-.37L35,2.88,33.5.58A1.29,1.29,0,1,0,31.35,2l1.51,2.29L30.57,5.8a1.29,1.29,0,0,0,.82,2.36A1.21,1.21,0,0,0,32,8l2.3-1.51,1.51,2.3A1.28,1.28,0,0,0,37,9.31a1.19,1.19,0,0,0,.59-.2,1.29,1.29,0,0,0,.37-1.79L36.43,5l2.3-1.52A1.28,1.28,0,0,0,39.09,1.73Z"/><path class="cls-3" d="M214.7,8.83a1.3,1.3,0,0,1,1.79-.37L218.78,10l1.51-2.3a1.29,1.29,0,0,1,1.79-.37,1.28,1.28,0,0,1,.36,1.78l-1.51,2.3,2.3,1.51a1.3,1.3,0,0,1,.37,1.79,1.28,1.28,0,0,1-1.19.57,1.24,1.24,0,0,1-.6-.21l-2.29-1.51L218,15.84a1.29,1.29,0,0,1-1.19.57,1.23,1.23,0,0,1-.6-.2,1.29,1.29,0,0,1-.36-1.79l1.51-2.29-2.3-1.52A1.29,1.29,0,0,1,214.7,8.83Z"/><line class="cls-6" x1="226.14" y1="190.42" x2="246.88" y2="190.42"/><line class="cls-6" x1="3.36" y1="190.42" x2="205.42" y2="190.42"/><rect class="cls-7" x="22.07" y="27" width="106.45" height="163.96" rx="10.9"/></g></g></g></svg>