<svg xmlns="http://www.w3.org/2000/svg" viewBox="0 0 264.19 213.54"><defs><style>.cls-1{isolation:isolate;}.cls-2{fill:#131662;}.cls-3,.cls-4,.cls-8{fill:none;}.cls-3,.cls-4,.cls-5,.cls-6{stroke:#131662;stroke-linecap:round;}.cls-3,.cls-4,.cls-5,.cls-6,.cls-8{stroke-miterlimit:10;}.cls-3{stroke-width:6.81px;}.cls-4{stroke-width:5.57px;}.cls-5,.cls-6{fill:#01d5d5;}.cls-5{stroke-width:3.8px;}.cls-6{stroke-width:5.4px;}.cls-7{fill:#fff;opacity:0.88;mix-blend-mode:soft-light;}.cls-8{stroke:#fff;stroke-width:3.7px;}</style></defs><g class="cls-1"><g id="Layer_2" data-name="Layer 2"><g id="Layer_1-2" data-name="Layer 1"><path class="cls-2" d="M13.73,54.18a2.14,2.14,0,0,0-3-.15L7.29,57.11,4.22,53.7A2.15,2.15,0,1,0,1,56.59L4.11,60,.71,63.06a2.15,2.15,0,0,0,2.88,3.19L7,63.17l3.08,3.41a2.15,2.15,0,0,0,2.1.64,2.1,2.1,0,0,0,.93-.49,2.14,2.14,0,0,0,.15-3l-3.07-3.41,3.4-3.07A2.15,2.15,0,0,0,13.73,54.18Z"/><path class="cls-2" d="M52.18,1.75a1.32,1.32,0,0,0-1.81-.37L48,2.91,46.51.59A1.3,1.3,0,1,0,44.34,2l1.53,2.33L43.54,5.88a1.3,1.3,0,0,0,.83,2.38A1.18,1.18,0,0,0,45,8.05L47.3,6.52l1.53,2.33a1.31,1.31,0,0,0,1.2.58,1.39,1.39,0,0,0,.61-.21A1.3,1.3,0,0,0,51,7.42L49.48,5.09,51.8,3.56A1.32,1.32,0,0,0,52.18,1.75Z"/><path class="cls-2" d="M250.46,66.33a2.15,2.15,0,0,1,3-.16l3.41,3.08,3.07-3.4a2.15,2.15,0,1,1,3.19,2.88l-3.08,3.4,3.4,3.08a2.15,2.15,0,0,1-2,3.68,2.17,2.17,0,0,1-.93-.5l-3.4-3.07-3.08,3.4a2.15,2.15,0,0,1-2.1.65,2.23,2.23,0,0,1-.93-.5,2.14,2.14,0,0,1-.15-3l3.07-3.4-3.4-3.08A2.14,2.14,0,0,1,250.46,66.33Z"/><path class="cls-2" d="M218,12.94a1.29,1.29,0,0,1,1.8-.37l2.33,1.53,1.53-2.32a1.3,1.3,0,0,1,1.8-.38,1.32,1.32,0,0,1,.38,1.81l-1.54,2.32,2.33,1.54a1.3,1.3,0,0,1-.83,2.38,1.21,1.21,0,0,1-.6-.21l-2.33-1.53L221.33,20a1.31,1.31,0,0,1-1.2.58,1.39,1.39,0,0,1-.61-.21,1.32,1.32,0,0,1-.37-1.81l1.53-2.32-2.32-1.53A1.31,1.31,0,0,1,218,12.94Z"/><line class="cls-3" x1="236.05" y1="209.81" x2="257.05" y2="209.81"/><line class="cls-3" x1="10.47" y1="209.81" x2="215.07" y2="209.81"/><circle class="cls-2" cx="14.67" cy="134.02" r="4.13"/><circle class="cls-2" cx="247.67" cy="135.02" r="4.13"/><polyline class="cls-4" points="38.63 49 65.64 82.18 64.1 181.73 198.76 182.12"/><rect class="cls-5" x="83.01" y="91.83" width="99.55" height="72.54"/><circle class="cls-6" cx="179.47" cy="194.47" r="10.03"/><circle class="cls-6" cx="90.47" cy="194.47" r="10.03"/><rect class="cls-7" x="52.32" y="35.18" width="80.13" height="178.36" rx="19.66"/><circle class="cls-2" cx="133.17" cy="93.37" r="22.38"/><polyline class="cls-8" points="121.05 95.46 129.08 102.25 144.51 83.73"/></g></g></g></svg>