<svg xmlns="http://www.w3.org/2000/svg" viewBox="0 0 287.36 218.85"><defs><style>.cls-1{isolation:isolate;}.cls-2{fill:#131662;}.cls-3{fill:none;stroke-width:7.22px;}.cls-3,.cls-4{stroke:#131662;stroke-linecap:round;stroke-miterlimit:10;}.cls-4{fill:#01d5d5;stroke-width:3.5px;}.cls-5{fill:#eaad00;}.cls-6{fill:#fff;opacity:0.88;mix-blend-mode:soft-light;}</style></defs><g class="cls-1"><g id="Layer_2" data-name="Layer 2"><g id="Layer_1-2" data-name="Layer 1"><path class="cls-2" d="M19.65,70.08a3.07,3.07,0,0,0-4.34-.22l-4.87,4.4L6,69.4a3.07,3.07,0,1,0-4.56,4.12l4.4,4.87L1,82.79A3.08,3.08,0,0,0,3.8,88.06a3,3,0,0,0,1.33-.71L10,83l4.41,4.87a3.06,3.06,0,0,0,3,.92A3,3,0,0,0,18.75,88,3.08,3.08,0,0,0,19,83.69l-4.41-4.87,4.87-4.4A3.07,3.07,0,0,0,19.65,70.08Z"/><path class="cls-2" d="M286.56,71.07a3.07,3.07,0,0,0-4.34-.22l-4.87,4.4L273,70.38a3.08,3.08,0,0,0-4.56,4.13l4.4,4.87-4.87,4.4a3.08,3.08,0,0,0,2.79,5.27,3.23,3.23,0,0,0,1.34-.71l4.87-4.4,4.4,4.87a3.08,3.08,0,0,0,3,.92,3,3,0,0,0,1.33-.71,3.07,3.07,0,0,0,.22-4.34l-4.41-4.87,4.87-4.4A3.07,3.07,0,0,0,286.56,71.07Z"/><path class="cls-2" d="M40.33,35.81a1.37,1.37,0,0,0-1.91-.39L36,37l-1.62-2.46A1.38,1.38,0,0,0,32,36.09l1.63,2.47-2.47,1.62a1.38,1.38,0,0,0,.88,2.53,1.4,1.4,0,0,0,.64-.22l2.46-1.62,1.63,2.46a1.37,1.37,0,0,0,1.27.62,1.42,1.42,0,0,0,.64-.23,1.37,1.37,0,0,0,.39-1.91l-1.62-2.46,2.47-1.63A1.38,1.38,0,0,0,40.33,35.81Z"/><line class="cls-3" x1="257.56" y1="215.24" x2="279.81" y2="215.24"/><line class="cls-3" x1="18.54" y1="215.24" x2="235.33" y2="215.24"/><circle class="cls-2" cx="257.34" cy="40.1" r="4.13"/><path class="cls-4" d="M214.13,91.71a14.15,14.15,0,0,1-4.32,9.49c-3.06,2.89-6.24,5.67-9.27,8.6a6.45,6.45,0,0,0-1.66,2.72c-1.13,3.85-2.06,7.75-3.13,11.61-1.6,5.77-5.41,9.15-11.29,10.21-3.88.69-7.78,1.28-11.63,2.06a6.87,6.87,0,0,0-3,1.53c-2.93,2.53-5.71,5.23-8.59,7.82-4.51,4.05-9.59,4.91-15.19,2.57-3.7-1.55-7.36-3.17-11.09-4.65a5.57,5.57,0,0,0-2.77-.31c-4,.61-8,1.36-12.07,2a13.15,13.15,0,0,1-13.71-5.72c-2.33-3.26-4.48-6.65-6.83-9.9a6.92,6.92,0,0,0-2.6-2.17c-3.38-1.57-6.83-3-10.28-4.4-5.77-2.35-8.93-6.52-9.16-12.8a36,36,0,0,1-.14-5,19.87,19.87,0,0,0-5.09-15.8,35.81,35.81,0,0,1-3.06-4.42,13.3,13.3,0,0,1-.31-14.7c2-3.47,4.2-6.83,6.16-10.33A7.36,7.36,0,0,0,76,56.69c0-4-.25-8-.28-12a13.1,13.1,0,0,1,7.67-12.51,80.58,80.58,0,0,1,7.82-3.81,12.91,12.91,0,0,0,7.25-6.61c1.27-2.52,2.82-4.92,4.33-7.31C106,9.32,110.61,7,116.66,7.78c3.85.47,7.69,1,11.54,1.3a7,7,0,0,0,3.36-.62c3.51-1.6,6.95-3.39,10.43-5.07,5.63-2.72,10.85-2,15.65,1.94a59.45,59.45,0,0,1,4.94,4.11,16.39,16.39,0,0,0,12.17,5.12,57.4,57.4,0,0,1,7,.77A13.12,13.12,0,0,1,193,24.56c1.38,3.9,2.52,7.89,3.88,11.81a6.09,6.09,0,0,0,1.71,2.46c3,2.57,6.07,5,9.11,7.53,4.68,3.86,6.28,8.76,4.79,14.64-1,3.81-2.08,7.59-3,11.42a6.5,6.5,0,0,0,.1,3.19c1.09,3.71,2.38,7.36,3.49,11.07C213.54,88.32,213.78,90,214.13,91.71Z"/><path class="cls-4" d="M188.16,75.66a47.76,47.76,0,1,1-47.59-47.74A47.69,47.69,0,0,1,188.16,75.66Z"/><path class="cls-5" d="M206.55,189.22c-6.18-.24-11.91-.32-17.61-.74-2.41-.19-3.92.36-5.33,2.41-3.2,4.67-6.68,9.14-10,13.7a6.92,6.92,0,0,0-.46,1.13c-7.37-15.39-14.44-30.18-21.43-44.77,3.33-.87,6.62-1.49,9.74-2.58,4.57-1.6,8-5,11.11-8.47,3.37-3.75,7.76-3.76,12-4.45.49-.08,1.38.76,1.68,1.37q7,14.44,13.86,28.94C202.17,180.11,204.26,184.45,206.55,189.22Z"/><path class="cls-5" d="M95.93,144c1.36,1.68,2.47,3.25,3.77,4.63,6.35,6.71,14.12,9,23.16,7.35,3-.56,6.07-1,9.45-1.61-8.21,17.15-16.24,33.93-24.41,51-1.09-1.41-2.05-2.61-3-3.84-2.75-3.72-5.56-7.4-8.19-11.21a4,4,0,0,0-4-1.82c-6,.34-12,.53-18.49.8Z"/><path class="cls-2" d="M134.12,80c4.38-4.45,8.44-8.58,12.5-12.69,2.82-2.85,5.62-5.71,8.49-8.51a6.09,6.09,0,0,1,8.73-.14,6,6,0,0,1-.12,8.72Q151.2,80,138.53,92.56c-2.75,2.73-6.24,2.62-9-.11q-6.12-6-12.19-12.14c-2.7-2.73-2.88-6.4-.49-8.89s6-2.66,8.85,0S131.12,76.94,134.12,80Z"/><circle class="cls-6" cx="110.83" cy="74.23" r="63.85"/></g></g></g></svg>