<svg xmlns="http://www.w3.org/2000/svg" viewBox="0 0 250.24 193.79"><defs><style>.cls-1{fill:#131662;}.cls-2{fill:none;stroke:#131662;stroke-linecap:round;stroke-miterlimit:10;stroke-width:6.73px;}.cls-3{fill:#01d5d5;}.cls-4{fill:#eaad00;}</style></defs><g id="Layer_2" data-name="Layer 2"><g id="Layer_1-2" data-name="Layer 1"><path class="cls-1" d="M30.07,33.67a2.86,2.86,0,0,0-4-.2l-4.54,4.1L17.38,33a2.87,2.87,0,0,0-4.25,3.85l4.11,4.53L12.7,45.52a2.87,2.87,0,0,0,2.6,4.91,2.83,2.83,0,0,0,1.24-.66l4.54-4.11,4.11,4.54a2.86,2.86,0,1,0,4.24-3.84l-4.1-4.54,4.54-4.1A2.87,2.87,0,0,0,30.07,33.67Z"/><path class="cls-1" d="M241.69,36.49a2.86,2.86,0,0,0-4-.21l-4.54,4.11L229,35.85a2.86,2.86,0,0,0-4.25,3.84l4.11,4.54-4.54,4.11a2.87,2.87,0,0,0,2.6,4.91,2.83,2.83,0,0,0,1.24-.66l4.54-4.11L236.81,53a2.86,2.86,0,0,0,4.24-3.84L237,44.64l4.54-4.11A2.86,2.86,0,0,0,241.69,36.49Z"/><path class="cls-1" d="M39.09,1.73a1.29,1.29,0,0,0-1.78-.37L35,2.88,33.5.58A1.29,1.29,0,1,0,31.35,2l1.51,2.29L30.57,5.8a1.29,1.29,0,0,0,.82,2.36A1.21,1.21,0,0,0,32,8l2.3-1.51,1.51,2.3A1.28,1.28,0,0,0,37,9.31a1.19,1.19,0,0,0,.59-.2,1.29,1.29,0,0,0,.37-1.79L36.43,5l2.3-1.52A1.28,1.28,0,0,0,39.09,1.73Z"/><path class="cls-1" d="M214.7,8.83a1.3,1.3,0,0,1,1.79-.37L218.78,10l1.51-2.3a1.29,1.29,0,0,1,1.79-.37,1.28,1.28,0,0,1,.36,1.78l-1.51,2.3,2.3,1.51a1.3,1.3,0,0,1,.37,1.79,1.28,1.28,0,0,1-1.19.57,1.24,1.24,0,0,1-.6-.21l-2.29-1.51L218,15.84a1.29,1.29,0,0,1-1.19.57,1.23,1.23,0,0,1-.6-.2,1.29,1.29,0,0,1-.36-1.79l1.51-2.29-2.3-1.52A1.29,1.29,0,0,1,214.7,8.83Z"/><line class="cls-2" x1="226.14" y1="190.42" x2="246.88" y2="190.42"/><line class="cls-2" x1="3.36" y1="190.42" x2="205.42" y2="190.42"/><path class="cls-1" d="M115.91,39.51H126a17.91,17.91,0,0,0,15.37,17.7V51.43a27.93,27.93,0,1,0-55.85,0v6H98.06A17.9,17.9,0,0,0,115.91,39.51Z"/><path class="cls-3" d="M66.2,89.87h9.5A45.73,45.73,0,0,1,75.43,85V51.47a38,38,0,1,1,76,0V85a45.14,45.14,0,0,1-.27,4.84h9.5a13.72,13.72,0,0,0,13.7-13.7V60.84a13.73,13.73,0,0,0-13.16-13.71,48,48,0,0,0-95.52,0A13.73,13.73,0,0,0,52.51,60.84V76.13A13.72,13.72,0,0,0,66.2,89.87Z"/><path class="cls-4" d="M113.43,115.09a27.1,27.1,0,0,0,21.38-10.75H119.2V94.27H140A32.36,32.36,0,0,0,141.35,85V67.36A27.92,27.92,0,0,1,121,55.5a27.94,27.94,0,0,1-22.89,12H85.5V85C85.5,101.59,98,115.09,113.43,115.09Z"/><path class="cls-3" d="M141.72,125.24V111.8a36.63,36.63,0,0,1-56.45.17v13.27h0c6.62,5.14,17.59,12.19,28.16,12.19s21.65-7.05,28.33-12.19Z"/><path class="cls-1" d="M186.66,140,153,129c-5.71,5.07-22.39,18.51-39.61,18.51S79.6,134,74,128.94L40.19,140a18.42,18.42,0,0,0-12.68,17.54V176H62.18V158.53H72.25V176h82.36V158.53h10.07V176h34.67V157.56A18.42,18.42,0,0,0,186.66,140Z"/></g></g></svg>