<svg xmlns="http://www.w3.org/2000/svg" viewBox="0 0 517.19 135.47"><defs><style>.cls-1{fill:#01c6c6;}.cls-2{fill:#131662;}</style></defs><g id="Layer_2" data-name="Layer 2"><g id="Layer_1-2" data-name="Layer 1"><path class="cls-1" d="M16.64,65.58a4.1,4.1,0,0,1-3.38-4.72l5.65-34A4.11,4.11,0,0,1,27,28.17l-5.65,34A4.1,4.1,0,0,1,16.64,65.58Z"/><path class="cls-1" d="M37.47,51.56l-34-5.65a4.12,4.12,0,0,1,1.35-8.12l34,5.66a4.11,4.11,0,0,1-1.35,8.11Z"/><path class="cls-2" d="M64.83,135.44a2.08,2.08,0,0,1-1.71-2.39L66,115.79a2.08,2.08,0,1,1,4.11.69l-2.86,17.25A2.08,2.08,0,0,1,64.83,135.44Z"/><path class="cls-2" d="M75.39,128.33l-17.25-2.86a2.08,2.08,0,1,1,.68-4.11l17.25,2.86a2.08,2.08,0,1,1-.68,4.11Z"/><path class="cls-2" d="M391.47,62.25a2.09,2.09,0,0,1-1-2.79l7.7-15.7A2.08,2.08,0,1,1,402,45.59l-7.7,15.71A2.09,2.09,0,0,1,391.47,62.25Z"/><path class="cls-2" d="M403.63,58.47l-15.71-7.7A2.08,2.08,0,1,1,389.76,47l15.7,7.7a2.08,2.08,0,1,1-1.83,3.74Z"/><circle class="cls-2" cx="150.19" cy="41" r="7"/><circle class="cls-2" cx="512.19" cy="28" r="5"/><circle class="cls-1" cx="289.19" cy="5" r="5"/></g></g></svg>