<svg xmlns="http://www.w3.org/2000/svg" viewBox="0 0 368.33 297.73"><defs><style>.cls-1{isolation:isolate;}.cls-2,.cls-4,.cls-5{fill:#d4fffe;}.cls-3{fill:#01d5d5;stroke-width:4.99px;}.cls-3,.cls-5,.cls-7{stroke:#131662;}.cls-3,.cls-7{stroke-linecap:round;}.cls-3,.cls-4,.cls-5,.cls-7{stroke-miterlimit:10;}.cls-4{stroke:#132662;stroke-width:4px;}.cls-5{stroke-width:2.58px;}.cls-6{fill:#131662;}.cls-7{fill:none;stroke-width:6.81px;}.cls-8{fill:#fff;opacity:0.88;mix-blend-mode:soft-light;}</style></defs><g class="cls-1"><g id="Layer_2" data-name="Layer 2"><g id="Layer_1-2" data-name="Layer 1"><path class="cls-2" d="M120,4.87C94.72,14.85,80,40.58,61,59.89c-11,11.12-23.7,20.29-34.9,31S4.8,114.6,1.39,129.85C-5.1,158.66,13,186.83,17.78,216c1.55,9.34,1.63,18.91,4.63,27.84A63,63,0,0,0,33.61,263c19.23,23.38,50.07,36.6,80.27,34.58,20-1.3,39-8.85,59-9.66,30-1.22,60.46,12.74,89.6,5.35,13.39-3.4,25.32-11.2,36.84-19,22.73-15.58,46.34-34.65,51.62-61.68,3.89-19.88-3-40.82,1.78-60.46,2.84-11.36,9.42-21.51,12.83-32.71,7.38-23.78-.49-50.8-17.29-69.22S306.87,21.59,282.12,19.4c-16.32-1.46-32.63.32-48.94.08C193.41,18.67,161.27-11.52,120,4.87Z"/><rect class="cls-3" x="115.42" y="79.2" width="130.06" height="171.68" rx="13.68"/><path class="cls-4" d="M233.76,102.43v17a9.27,9.27,0,0,1-9.26,9.26H137c-.32,0-.63,0-.94-.05h0a9.26,9.26,0,0,1-8.3-9.21v-17A9.26,9.26,0,0,1,137,93.17H224.5a9.26,9.26,0,0,1,9.26,9.26Z"/><rect class="cls-5" x="127.72" y="158.2" width="21.01" height="21.01" rx="5.27"/><rect class="cls-5" x="155.73" y="158.2" width="21.01" height="21.01" rx="5.27"/><rect class="cls-5" x="183.82" y="158.2" width="21.01" height="21.01" rx="5.27"/><rect class="cls-5" x="212.75" y="158.2" width="21.01" height="21.01" rx="4.53"/><rect class="cls-5" x="212.75" y="186.96" width="21.01" height="49.77" rx="4.53"/><rect class="cls-5" x="127.72" y="186.96" width="21.01" height="21.01" rx="5.27"/><rect class="cls-5" x="155.73" y="186.96" width="21.01" height="21.01" rx="5.27"/><rect class="cls-5" x="183.82" y="186.96" width="21.01" height="21.01" rx="5.27"/><rect class="cls-5" x="127.72" y="215.72" width="21.01" height="21.01" rx="5.27"/><rect class="cls-5" x="155.73" y="215.72" width="21.01" height="21.01" rx="5.27"/><rect class="cls-5" x="183.82" y="215.72" width="21.01" height="21.01" rx="5.27"/><rect class="cls-6" x="128.34" y="138.78" width="105.42" height="8.1" rx="4.05"/><path class="cls-6" d="M80.11,93.25a2.16,2.16,0,0,0-3-.15l-3.4,3.08-3.08-3.4a2.15,2.15,0,1,0-3.18,2.88l3.07,3.4-3.4,3.08a2.15,2.15,0,0,0,2,3.68,2.17,2.17,0,0,0,.93-.5l3.41-3.08,3.07,3.41a2.15,2.15,0,0,0,2.1.64,2,2,0,0,0,.93-.49,2.15,2.15,0,0,0,.16-3l-3.08-3.41L80,96.29A2.16,2.16,0,0,0,80.11,93.25Z"/><path class="cls-6" d="M91.55,58.82a1.3,1.3,0,0,0-1.8-.37L87.42,60l-1.53-2.32a1.3,1.3,0,0,0-2.18,1.43l1.53,2.33L82.92,63a1.31,1.31,0,0,0,.83,2.39,1.4,1.4,0,0,0,.6-.21l2.33-1.54,1.53,2.33a1.31,1.31,0,0,0,1.2.58,1.24,1.24,0,0,0,.6-.21,1.29,1.29,0,0,0,.37-1.8l-1.53-2.33,2.33-1.53A1.3,1.3,0,0,0,91.55,58.82Z"/><path class="cls-6" d="M280.83,100.4a2.16,2.16,0,0,1,3-.16l3.4,3.08,3.08-3.4a2.15,2.15,0,1,1,3.18,2.88l-3.07,3.4,3.4,3.08a2.15,2.15,0,0,1-1.95,3.68,2.07,2.07,0,0,1-.93-.5l-3.41-3.07-3.07,3.4a2.14,2.14,0,0,1-2.1.65,2.26,2.26,0,0,1-.94-.5,2.15,2.15,0,0,1-.15-3l3.08-3.4-3.4-3.08A2.15,2.15,0,0,1,280.83,100.4Z"/><path class="cls-6" d="M269.36,66a1.32,1.32,0,0,1,1.81-.37l2.32,1.53L275,64.85a1.3,1.3,0,1,1,2.18,1.43l-1.53,2.33L278,70.14a1.3,1.3,0,0,1-.82,2.38,1.18,1.18,0,0,1-.61-.21l-2.32-1.53-1.54,2.33a1.3,1.3,0,0,1-1.2.58,1.4,1.4,0,0,1-.6-.21,1.3,1.3,0,0,1-.37-1.81l1.53-2.32-2.33-1.53A1.32,1.32,0,0,1,269.36,66Z"/><line class="cls-7" x1="287.42" y1="250.88" x2="308.42" y2="250.88"/><line class="cls-7" x1="61.85" y1="250.88" x2="266.44" y2="250.88"/><rect class="cls-8" x="103.7" y="76.25" width="80.13" height="178.36" rx="19.66"/></g></g></g></svg>