<svg xmlns="http://www.w3.org/2000/svg" viewBox="0 0 253.38 197.54"><defs><style>.cls-1{isolation:isolate;}.cls-2{fill:#01d5d5;stroke-width:4.99px;}.cls-2,.cls-4,.cls-6{stroke:#131662;}.cls-2,.cls-6{stroke-linecap:round;}.cls-2,.cls-3,.cls-4,.cls-6{stroke-miterlimit:10;}.cls-3,.cls-4{fill:#d4fffe;}.cls-3{stroke:#132662;stroke-width:4px;}.cls-4{stroke-width:2.58px;}.cls-5{fill:#131662;}.cls-6{fill:none;stroke-width:6.81px;}.cls-7{fill:#fff;opacity:0.88;mix-blend-mode:soft-light;}</style></defs><g class="cls-1"><g id="Layer_2" data-name="Layer 2"><g id="Layer_1-2" data-name="Layer 1"><rect class="cls-2" x="56.98" y="22.13" width="130.06" height="171.68" rx="13.68"/><path class="cls-3" d="M175.31,45.36v17a9.26,9.26,0,0,1-9.25,9.26H78.52c-.31,0-.63,0-.94-.05h0a9.26,9.26,0,0,1-8.31-9.21v-17a9.26,9.26,0,0,1,9.25-9.26h87.54a9.25,9.25,0,0,1,9.25,9.26Z"/><rect class="cls-4" x="69.27" y="101.13" width="21.01" height="21.01" rx="5.27"/><rect class="cls-4" x="97.28" y="101.13" width="21.01" height="21.01" rx="5.27"/><rect class="cls-4" x="125.38" y="101.13" width="21.01" height="21.01" rx="5.27"/><rect class="cls-4" x="154.31" y="101.13" width="21.01" height="21.01" rx="4.53"/><rect class="cls-4" x="154.31" y="129.89" width="21.01" height="49.77" rx="4.53"/><rect class="cls-4" x="69.27" y="129.89" width="21.01" height="21.01" rx="5.27"/><rect class="cls-4" x="97.28" y="129.89" width="21.01" height="21.01" rx="5.27"/><rect class="cls-4" x="125.38" y="129.89" width="21.01" height="21.01" rx="5.27"/><rect class="cls-4" x="69.27" y="158.65" width="21.01" height="21.01" rx="5.27"/><rect class="cls-4" x="97.28" y="158.65" width="21.01" height="21.01" rx="5.27"/><rect class="cls-4" x="125.38" y="158.65" width="21.01" height="21.01" rx="5.27"/><rect class="cls-5" x="69.9" y="81.71" width="105.42" height="8.1" rx="4.05"/><path class="cls-5" d="M21.66,36.18a2.14,2.14,0,0,0-3-.15l-3.4,3.08L12.15,35.7A2.15,2.15,0,0,0,9,38.59L12,42l-3.4,3.07a2.15,2.15,0,0,0,2.88,3.19l3.4-3.08L18,48.58a2.15,2.15,0,0,0,2.1.64,2.1,2.1,0,0,0,.93-.49,2.14,2.14,0,0,0,.15-3l-3.07-3.41,3.4-3.07A2.15,2.15,0,0,0,21.66,36.18Z"/><path class="cls-5" d="M33.11,1.75a1.32,1.32,0,0,0-1.81-.37L29,2.91,27.44.59A1.3,1.3,0,1,0,25.27,2L26.8,4.35,24.47,5.88a1.3,1.3,0,0,0-.37,1.8,1.28,1.28,0,0,0,1.2.58,1.18,1.18,0,0,0,.61-.21l2.32-1.53,1.53,2.33a1.31,1.31,0,0,0,1.2.58,1.39,1.39,0,0,0,.61-.21,1.29,1.29,0,0,0,.37-1.8L30.41,5.09l2.32-1.53A1.31,1.31,0,0,0,33.11,1.75Z"/><path class="cls-5" d="M222.39,43.33a2.15,2.15,0,0,1,3-.16l3.41,3.08,3.07-3.4a2.15,2.15,0,1,1,3.19,2.88L232,49.13l3.4,3.08a2.15,2.15,0,0,1-1.95,3.68,2.17,2.17,0,0,1-.93-.5l-3.4-3.07-3.08,3.4a2.15,2.15,0,0,1-2.1.65,2.23,2.23,0,0,1-.93-.5,2.14,2.14,0,0,1-.15-3l3.08-3.4-3.41-3.08A2.14,2.14,0,0,1,222.39,43.33Z"/><path class="cls-5" d="M210.92,8.94a1.29,1.29,0,0,1,1.8-.37l2.33,1.53,1.53-2.32a1.3,1.3,0,0,1,1.8-.38,1.31,1.31,0,0,1,.38,1.81l-1.53,2.32,2.32,1.54a1.3,1.3,0,0,1-.83,2.38,1.21,1.21,0,0,1-.6-.21l-2.33-1.53L214.26,16a1.31,1.31,0,0,1-2.18-1.44l1.53-2.32-2.32-1.53A1.31,1.31,0,0,1,210.92,8.94Z"/><line class="cls-6" x1="228.98" y1="193.81" x2="249.98" y2="193.81"/><line class="cls-6" x1="3.41" y1="193.81" x2="208" y2="193.81"/><rect class="cls-7" x="45.25" y="19.18" width="80.13" height="178.36" rx="19.66"/></g></g></g></svg>