<?xml version="1.0" encoding="utf-8"?>
<!-- Generator: Adobe Illustrator 24.1.1, SVG Export Plug-In . SVG Version: 6.00 Build 0)  -->
<svg version="1.1" id="Layer_1" xmlns="http://www.w3.org/2000/svg" xmlns:xlink="http://www.w3.org/1999/xlink" x="0px" y="0px"
	 viewBox="0 0 516.1 597.3" style="enable-background:new 0 0 516.1 597.3;" xml:space="preserve">
<style type="text/css">
	.st0{opacity:0.18;fill:#01D4D4;enable-background:new    ;}
	.st1{opacity:0.45;fill:url(#SVGID_1_);enable-background:new    ;}
	.st2{fill:#01D4D4;}
	.st3{fill:url(#SVGID_2_);}
	.st4{opacity:0.85;fill:#131662;enable-background:new    ;}
	.st5{fill:url(#SVGID_3_);}
	.st6{fill:none;stroke:#FFFFFF;stroke-width:0.7196;stroke-miterlimit:10;}
	.st7{fill:none;stroke:#FFFFFF;stroke-width:0.7196;stroke-miterlimit:10.0004;}
	.st8{fill:#FF354E;}
	.st9{fill:#FFFFFF;}
	.st10{fill:#C5FFFC;}
	.st11{fill:#02C6C6;}
	.st12{fill:#0592D8;}
	.st13{enable-background:new    ;}
</style>
<path class="st0" d="M67.9,471.4c-6.7-32.7,7-68.2-4.9-99.4c-9.8-25.7-34.7-42.3-49.3-65.6c-18.7-29.8-18.2-70.6,1.2-99.9
	c20.6-31,57.3-46.5,86.1-70c18.8-15.3,34.5-34.3,54-48.8s44.7-24.3,68-17.6c15,4.3,27.3,14.9,41.6,20.9
	c32.4,13.6,69.1,2.4,104.1-0.3c30.6-2.4,61.3,1.9,90.1,12.5c18.2,6.7,36.3,16.6,46.9,32.9c11.2,17.1,12.5,39.3,7.4,59.1
	s-16.2,37.5-28.4,53.9c-19,25.4-42.6,55-32.4,85c6.5,19,24.9,31,37.1,46.9c26.5,34.5,18.6,90.1-16.4,115.9
	c-14.2,10.4-32,16.5-43.1,30.2c-6.1,7.6-9.7,17-16,24.5c-16.2,19.5-45.1,21-70.5,20.8c-30.8-0.2-61.6-0.7-92.3-1.4
	c-27.1-0.6-64.5,4.7-90.3-3.4C122.6,555.5,76,511.1,67.9,471.4z"/>
<linearGradient id="SVGID_1_" gradientUnits="userSpaceOnUse" x1="268.4009" y1="929.1708" x2="277.6908" y2="1282.2509" gradientTransform="matrix(1 0 0 1 -1.000000e-02 -480.01)">
	<stop  offset="1.000000e-02" style="stop-color:#000000;stop-opacity:0"/>
	<stop  offset="0.91" style="stop-color:#000000;stop-opacity:0.85"/>
	<stop  offset="0.93" style="stop-color:#000000;stop-opacity:0.89"/>
	<stop  offset="0.98" style="stop-color:#000000"/>
</linearGradient>
<path class="st1" d="M115.9,541.8c-15,4.4-32.8,13.8-31.6,29.4c1.3,15.9,21.1,22.2,37,23.7c30.3,2.8,60.7,2.5,91.1,2.3l127.1-1.1
	c29.4-0.3,58.9-0.5,87.7-6.2c9.1-1.8,18.6-4.4,25.2-11s8.9-18.2,2.7-25.1c-5.8-6.4-15.9-6.1-23.6-10.2c-8.5-4.6-13.1-14-20-20.8
	c-15.2-14.8-39-14.8-60.1-13.9L212.8,515c-17.2,0.8-41-2.6-57.2,4C141.8,524.5,133.1,541.8,115.9,541.8z"/>
<path class="st2" d="M169,148.9h201.1c13.1,0,23.7,10.6,23.7,23.7v383.7c0,13.1-10.6,23.7-23.7,23.7H169
	c-13.1,0-23.7-10.6-23.7-23.7V172.5C145.4,159.4,156,148.9,169,148.9z"/>
<linearGradient id="SVGID_2_" gradientUnits="userSpaceOnUse" x1="85.9762" y1="-243.9198" x2="622.3463" y2="-245.6097" gradientTransform="matrix(1 0 0 -1 -1.000000e-02 119.99)">
	<stop  offset="1.000000e-02" style="stop-color:#000000;stop-opacity:0"/>
	<stop  offset="0.93" style="stop-color:#000000;stop-opacity:0.89"/>
	<stop  offset="0.98" style="stop-color:#000000"/>
</linearGradient>
<path class="st3" d="M169,148.9h201.1c13.1,0,23.7,10.6,23.7,23.7v383.7c0,13.1-10.6,23.7-23.7,23.7H169
	c-13.1,0-23.7-10.6-23.7-23.7V172.5C145.4,159.4,156,148.9,169,148.9z"/>
<path class="st2" d="M178.3,148.9h201.1c13.1,0,23.7,10.6,23.7,23.7v383.7c0,13.1-10.6,23.7-23.7,23.7H178.3
	c-13.1,0-23.7-10.6-23.7-23.7V172.5C154.7,159.4,165.3,148.9,178.3,148.9z"/>
<path class="st4" d="M391.2,182.8V504c0,11.4-9.2,20.6-20.6,20.6l0,0H187.2c-11.4,0-20.6-9.2-20.6-20.6V182.8
	c0-11.4,9.2-20.6,20.6-20.6h49.3v6.9c0,6,4.9,10.9,10.9,10.9h73.2c6,0,10.9-4.9,10.9-10.9l0,0v-6.8h39.2
	C381.9,162.1,391.2,171.4,391.2,182.8z"/>
<linearGradient id="SVGID_3_" gradientUnits="userSpaceOnUse" x1="414.4898" y1="1098.6194" x2="419.9398" y2="1391.8995" gradientTransform="matrix(1 0 0 1 -134.91 -648.01)">
	<stop  offset="1.000000e-02" style="stop-color:#000000;stop-opacity:0"/>
	<stop  offset="0.93" style="stop-color:#000000;stop-opacity:0.89"/>
	<stop  offset="0.98" style="stop-color:#000000"/>
</linearGradient>
<path class="st5" d="M301.7,563.7h-40.4c-6.8,0-12.4-5.5-12.4-12.4l0,0c0-6.8,5.5-12.4,12.3-12.4l0,0h40.5c6.8,0,12.3,5.5,12.3,12.3
	l0,0C314,558.2,308.5,563.7,301.7,563.7L301.7,563.7L301.7,563.7L301.7,563.7z"/>
<circle class="st6" cx="232.8" cy="337.1" r="20.5"/>
<circle class="st6" cx="285.6" cy="337.1" r="20.5"/>
<circle class="st6" cx="338.4" cy="337.1" r="20.5"/>
<ellipse class="st7" cx="232.8" cy="391.5" rx="20.5" ry="20.5"/>
<ellipse class="st7" cx="285.6" cy="391.5" rx="20.5" ry="20.5"/>
<circle class="st8" cx="288.2" cy="462.8" r="31.6"/>
<ellipse class="st7" cx="338.4" cy="391.5" rx="20.5" ry="20.5"/>
<path class="st9" d="M268.7,461.2c-0.7,0-1.3-0.6-1.3-1.4l0,0l0,0c0-0.2,0-0.3,0.1-0.5c1.1-2.7,4-11.3,20.4-11.3
	c15.4,0,18.9,8.5,20.1,11.3c0.3,0.7,0,1.5-0.7,1.8c-0.2,0.1-0.3,0.1-0.5,0.1h-6.2c-0.5,0-0.9-0.3-1.1-0.7c-0.8-1.5-2.6-8.7-11.8-8.7
	c-7.5,0-10.2,4-11.8,8.5c-0.2,0.5-0.7,0.9-1.3,0.9L268.7,461.2z"/>
<path class="st9" d="M267.2,460h7.9c2,0,3.7,1.7,3.7,3.7v1.5c0,2-1.7,3.7-3.7,3.7h-7.9c-2,0-3.7-1.7-3.7-3.7v-1.5
	C263.5,461.7,265.2,460,267.2,460z"/>
<path class="st9" d="M299.5,460h7.9c2,0,3.7,1.7,3.7,3.7v1.5c0,2-1.7,3.7-3.7,3.7h-7.9c-2,0-3.7-1.7-3.7-3.7v-1.5
	C295.8,461.7,297.4,460,299.5,460z"/>
<circle class="st10" cx="282.6" cy="239.6" r="38.2"/>
<g>
	<polygon class="st11" points="286.1,243.3 299.4,261 289.6,261 281.4,249.7 273.2,261 263.5,261 276.8,243.3 281.4,237 294.3,219 
		303.7,219 	"/>
	<path class="st12" d="M271.5,239.1l6.8-8.3c0.7-0.9,0.1-2.2-1-2.2h-8.2c-0.8,0-1.5,0.7-1.3,1.6l1.5,8.3
		C269.4,239.6,270.8,240,271.5,239.1z"/>
</g>
<g class="st13">
	<path class="st9" d="M249.6,287.2h-5.8v16.1h-3.2v-16.1h-5.8v-2.6h14.8V287.2z"/>
	<path class="st9" d="M257.9,303.3c-0.1-0.3-0.3-0.7-0.4-1.3c-1,1-2.2,1.6-3.6,1.6c-1.4,0-2.5-0.4-3.4-1.2c-0.9-0.8-1.3-1.8-1.3-3
		c0-1.5,0.5-2.6,1.7-3.4c1.1-0.8,2.7-1.2,4.7-1.2h1.9v-0.9c0-0.7-0.2-1.3-0.6-1.7c-0.4-0.4-1-0.6-1.8-0.6c-0.7,0-1.3,0.2-1.7,0.5
		c-0.5,0.4-0.7,0.8-0.7,1.4h-3.1c0-0.8,0.3-1.5,0.8-2.1c0.5-0.7,1.2-1.2,2.1-1.6s1.8-0.6,2.9-0.6c1.6,0,2.9,0.4,3.9,1.2
		c1,0.8,1.5,2,1.5,3.4v6.3c0,1.3,0.2,2.2,0.5,3v0.2H257.9z M254.4,301.1c0.6,0,1.2-0.1,1.7-0.4c0.5-0.3,1-0.7,1.2-1.2v-2.6h-1.7
		c-1.2,0-2,0.2-2.6,0.6c-0.6,0.4-0.9,1-0.9,1.7c0,0.6,0.2,1.1,0.6,1.4C253.2,300.9,253.8,301.1,254.4,301.1z"/>
	<path class="st9" d="M268.8,294l2.6-4.6h3.5l-4.3,6.8l4.4,7.1h-3.4l-2.8-4.8l-2.8,4.8h-3.5l4.4-7.1l-4.2-6.8h3.4L268.8,294z"/>
	<path class="st9" d="M281.5,297.4l-1.4,1.4v4.5H277v-19.7h3.1V295l1-1.2l3.8-4.3h3.8l-5.2,5.8l5.7,8.1h-3.6L281.5,297.4z"/>
	<path class="st9" d="M298,292.3c-0.4-0.1-0.8-0.1-1.3-0.1c-1.4,0-2.4,0.5-2.9,1.6v9.5h-3.1v-13.9h3l0.1,1.6
		c0.8-1.2,1.8-1.8,3.1-1.8c0.4,0,0.8,0.1,1.1,0.2L298,292.3z"/>
	<path class="st9" d="M300,285.8c0-0.5,0.2-0.9,0.5-1.2c0.3-0.3,0.7-0.5,1.3-0.5c0.6,0,1,0.2,1.3,0.5c0.3,0.3,0.5,0.7,0.5,1.2
		c0,0.5-0.2,0.9-0.5,1.2s-0.7,0.5-1.3,0.5c-0.6,0-1-0.2-1.3-0.5S300,286.3,300,285.8z M303.3,303.3h-3.1v-13.9h3.1V303.3z"/>
	<path class="st9" d="M311.6,298.8l2.8-9.4h3.3l-5.5,16c-0.8,2.3-2.3,3.5-4.3,3.5c-0.5,0-1-0.1-1.5-0.2v-2.4l0.6,0
		c0.8,0,1.4-0.1,1.8-0.4c0.4-0.3,0.7-0.8,0.9-1.4l0.4-1.2l-4.9-13.8h3.4L311.6,298.8z"/>
	<path class="st9" d="M327.6,303.3c-0.1-0.3-0.3-0.7-0.4-1.3c-1,1-2.2,1.6-3.6,1.6c-1.4,0-2.5-0.4-3.4-1.2c-0.9-0.8-1.3-1.8-1.3-3
		c0-1.5,0.5-2.6,1.7-3.4c1.1-0.8,2.7-1.2,4.7-1.2h1.9v-0.9c0-0.7-0.2-1.3-0.6-1.7s-1-0.6-1.8-0.6c-0.7,0-1.3,0.2-1.7,0.5
		c-0.5,0.4-0.7,0.8-0.7,1.4h-3.1c0-0.8,0.3-1.5,0.8-2.1c0.5-0.7,1.2-1.2,2.1-1.6s1.8-0.6,2.9-0.6c1.6,0,2.9,0.4,3.9,1.2
		c1,0.8,1.5,2,1.5,3.4v6.3c0,1.3,0.2,2.2,0.5,3v0.2H327.6z M324.2,301.1c0.6,0,1.2-0.1,1.7-0.4s1-0.7,1.2-1.2v-2.6h-1.7
		c-1.2,0-2,0.2-2.6,0.6c-0.6,0.4-0.9,1-0.9,1.7c0,0.6,0.2,1.1,0.6,1.4C323,300.9,323.5,301.1,324.2,301.1z"/>
</g>
</svg>
