<svg xmlns="http://www.w3.org/2000/svg" viewBox="0 0 368.33 297.73"><defs><style>.cls-1{isolation:isolate;}.cls-2{fill:#d4fffe;}.cls-3{fill:#131662;}.cls-4{fill:none;stroke-linecap:round;stroke-width:6.73px;}.cls-4,.cls-5{stroke:#131662;stroke-miterlimit:10;}.cls-5{fill:#01c6c6;stroke-width:4px;}.cls-6,.cls-7{fill:#fff;}.cls-7{opacity:0.88;mix-blend-mode:soft-light;}</style></defs><g class="cls-1"><g id="Layer_2" data-name="Layer 2"><g id="Layer_1-2" data-name="Layer 1"><path class="cls-2" d="M120,4.87C94.72,14.85,80,40.58,61,59.89c-11,11.12-23.7,20.29-34.9,31S4.8,114.6,1.39,129.85C-5.1,158.66,13,186.83,17.78,216c1.55,9.34,1.63,18.91,4.63,27.84A63,63,0,0,0,33.61,263c19.23,23.38,50.07,36.6,80.27,34.58,20-1.3,39-8.85,59-9.66,30-1.22,60.46,12.74,89.6,5.35,13.39-3.4,25.32-11.2,36.84-19,22.73-15.58,46.34-34.65,51.62-61.68,3.89-19.88-3-40.82,1.78-60.46,2.84-11.36,9.42-21.51,12.83-32.71,7.38-23.78-.49-50.8-17.29-69.22S306.87,21.59,282.12,19.4c-16.32-1.46-32.63.32-48.94.08C193.41,18.67,161.27-11.52,120,4.87Z"/><path class="cls-3" d="M88.5,93.74a2.86,2.86,0,0,0-4-.2l-4.54,4.1L75.81,93.1A2.87,2.87,0,0,0,71.56,97l4.11,4.54-4.54,4.1a2.87,2.87,0,0,0,2.6,4.91,2.83,2.83,0,0,0,1.24-.66l4.54-4.1,4.1,4.53a2.86,2.86,0,1,0,4.25-3.84l-4.1-4.54,4.54-4.1A2.87,2.87,0,0,0,88.5,93.74Z"/><path class="cls-3" d="M300.12,96.56a2.86,2.86,0,0,0-4-.2l-4.54,4.1-4.11-4.54a2.86,2.86,0,0,0-4.25,3.84l4.11,4.54-4.54,4.11a2.86,2.86,0,1,0,3.84,4.25l4.54-4.11,4.1,4.54A2.87,2.87,0,0,0,298,114a2.76,2.76,0,0,0,1.24-.65,2.87,2.87,0,0,0,.2-4l-4.1-4.54,4.54-4.1A2.87,2.87,0,0,0,300.12,96.56Z"/><path class="cls-3" d="M97.52,61.8a1.28,1.28,0,0,0-1.78-.36L93.44,63l-1.51-2.3a1.29,1.29,0,1,0-2.15,1.42l1.51,2.29L89,65.87a1.29,1.29,0,0,0,.82,2.36,1.19,1.19,0,0,0,.59-.2l2.3-1.52,1.51,2.3a1.27,1.27,0,0,0,1.78.37,1.29,1.29,0,0,0,.37-1.79L94.86,65.1l2.3-1.51A1.3,1.3,0,0,0,97.52,61.8Z"/><path class="cls-3" d="M273.13,68.9a1.29,1.29,0,0,1,1.78-.37l2.3,1.52,1.51-2.3a1.29,1.29,0,1,1,2.15,1.42l-1.51,2.29,2.3,1.51a1.3,1.3,0,0,1,.37,1.79,1.28,1.28,0,0,1-1.19.57,1.24,1.24,0,0,1-.6-.21L278,73.61l-1.52,2.3a1.26,1.26,0,0,1-1.18.57,1.23,1.23,0,0,1-.6-.2,1.3,1.3,0,0,1-.37-1.79l1.52-2.29-2.3-1.51A1.3,1.3,0,0,1,273.13,68.9Z"/><line class="cls-4" x1="284.57" y1="250.49" x2="305.31" y2="250.49"/><line class="cls-4" x1="61.79" y1="250.49" x2="263.85" y2="250.49"/><path class="cls-5" d="M185.73,180.39a9.48,9.48,0,0,0-.75-1.73,3,3,0,0,0-5.24.27q-9.33,15.47-18.59,30.95a4,4,0,0,0-.41,2.28,3,3,0,0,0,2.56,2.5,3.21,3.21,0,0,0,3.32-1.82q9.18-15.32,18.34-30.62A12.27,12.27,0,0,0,185.73,180.39Zm13.84,23.38a9.32,9.32,0,1,0-9.25,9.33A9.28,9.28,0,0,0,199.57,203.77Zm-34.29-17.08a9.32,9.32,0,1,0-9.42,9.31A9.33,9.33,0,0,0,165.28,186.69Zm28.23-34c-1.29-2-2.49-3.83-3.7-5.67a15.93,15.93,0,0,0-1.28-1.77,2.29,2.29,0,0,0-2.93-.33c-.86.58-1,1.38-.49,2.55a16,16,0,0,0,1.14,2c1.22,1.85,2.44,3.7,3.73,5.5a1.16,1.16,0,0,1,0,1.63c-1.62,2.19-3.2,4.43-4.76,6.67a4.54,4.54,0,0,0-.94,1.82,3.13,3.13,0,0,0,.4,2.19,2.42,2.42,0,0,0,1.93.54,3,3,0,0,0,1.58-1,26.58,26.58,0,0,0,1.66-2.38l3.61-5.25,2.05,3.07c1,1.55,2,3.13,3.12,4.64a2.34,2.34,0,0,0,3.2.75c1-.6,1.18-1.76.51-3a15.45,15.45,0,0,0-1-1.59c-1.51-2.23-3.05-4.45-4.53-6.7a1.21,1.21,0,0,1,0-1.05c.56-.92,1.24-1.76,1.83-2.65,1.16-1.76,2.34-3.5,3.42-5.31a1.59,1.59,0,0,0-.25-2.09,2,2,0,0,0-2.41-.4,3.4,3.4,0,0,0-1.18,1.12C196.66,148.09,195.15,150.32,193.51,152.71Zm-26.11,9.43c2.56,0,5,0,7.54,0a1.17,1.17,0,0,1,.84.62c.55,1.3,1,2.65,1.51,4a1.66,1.66,0,0,0,1.87,1.15,2,2,0,0,0,1.66-1.87,6.11,6.11,0,0,0-.37-2c-1.5-4.26-3-8.51-4.59-12.76a50.51,50.51,0,0,0-2.05-5.3,2.61,2.61,0,0,0-4.65,0,9.53,9.53,0,0,0-.81,1.78q-2.5,7.08-5,14.18a26.09,26.09,0,0,0-1.1,3.76,2,2,0,0,0,1.55,2.25c.84.2,1.57-.26,2-1.38C166.4,165.1,166.87,163.65,167.4,162.14Zm-16.76-13.92v1.08q0,8.1,0,16.21a2.2,2.2,0,1,0,4.38.05c0-.31,0-.63,0-.94v-16.4c1.79,0,3.48,0,5.16,0,1.23,0,1.93-.67,2-1.69s-.66-1.71-1.85-1.84H146a4.13,4.13,0,0,0-.93.08,1.7,1.7,0,0,0-1.49,1.92,1.67,1.67,0,0,0,1.77,1.54C147,148.25,148.77,148.22,150.64,148.22Z"/><path class="cls-5" d="M231.19,204.61a43,43,0,0,1-16.7,21,61.43,61.43,0,0,1-24.28,9.65,95.71,95.71,0,0,1-16.16,1.26c-8.38-.11-15.73-.4-22.92-2.29-10.34-2.71-19.62-7.32-27.07-15.14a41.37,41.37,0,0,1-11.44-25.19,69.19,69.19,0,0,1,2.17-24.77,93.49,93.49,0,0,1,9.78-22.77,237.17,237.17,0,0,1,14.35-21.23c7.46-10.23,14.85-20.51,21.38-31.38a1.54,1.54,0,0,1,1.12-.61c7.79,0,15.58,0,23.37,0a1.29,1.29,0,0,1,1.28.78c6.18,10.39,13.2,20.21,20.32,30,6.37,8.72,12.76,17.42,17.77,27a82.55,82.55,0,0,1,8.91,25.95C234.46,186.22,234.5,195.54,231.19,204.61Z"/><path class="cls-3" d="M185.74,74.38h-25c-.43-2-.82-4-1.3-6a46.63,46.63,0,0,0-5.62-14.2c-1.16-1.83-2.62-3.47-3.85-5.27a14.73,14.73,0,0,1-1.61-3.1,2.8,2.8,0,0,1,.85-3.21,2.75,2.75,0,0,1,3.19-.47c1.15.54,2.24,1.22,3.34,1.86.57.33,1.09.73,1.66,1.07a6.25,6.25,0,0,0,8.42-1.19c.88-.93,1.66-1.95,2.57-2.85,1.82-1.78,3.69-1.7,5.39.21.57.64,1,1.37,1.58,2.05a4.76,4.76,0,0,0,6,1.71c2.23-.79,3.76-2.52,5.46-4a21.25,21.25,0,0,1,3.8-3,8.06,8.06,0,0,1,3.66-.84,3.61,3.61,0,0,1,3.71,4.75,14.81,14.81,0,0,1-2.15,4.54c-5.23,7.24-7.9,15.45-9.38,24.13C186.17,71.77,186,73.06,185.74,74.38Z"/><path class="cls-3" d="M173.12,80.64c5.16,0,10.32,0,15.48,0a3,3,0,0,1,3.2,3.27,3.09,3.09,0,0,1-3.32,3c-3.67,0-7.34,0-11,0q-9.87,0-19.74,0a3.13,3.13,0,0,1-3.07-4.4,3,3,0,0,1,3-1.84Z"/><path class="cls-6" d="M201.4,139H182.14a17.5,17.5,0,0,1,6.54,11.9H201.4v5.84H188.8c-1.17,11.9-10.62,19.48-25.56,19.95,9.1,9.45,19,21.35,28.82,33.37h-11.2c-9.1-11-17.62-21.12-28.59-32.79v-7.23h6.42c12.6,0,19.37-5.25,20.19-13.3H152.27v-5.84h26.26c-1.64-6.76-7.82-10.15-18-10.15h-8.29v-7.58H201.4Z"/><path class="cls-7" d="M172,76.07h24.35a59,59,0,0,1,59,59V181a59,59,0,0,1-59,59H172a0,0,0,0,1,0,0V76.07A0,0,0,0,1,172,76.07Z"/></g></g></g></svg>