<?xml version="1.0" encoding="utf-8"?>
<!-- Generator: Adobe Illustrator 24.1.1, SVG Export Plug-In . SVG Version: 6.00 Build 0)  -->
<svg version="1.1" id="Layer_1" xmlns="http://www.w3.org/2000/svg" xmlns:xlink="http://www.w3.org/1999/xlink" x="0px" y="0px"
	 viewBox="0 0 559.2 427.2" style="enable-background:new 0 0 559.2 427.2;" xml:space="preserve">
<style type="text/css">
	.st0{opacity:0.24;fill:#01D4D4;enable-background:new    ;}
	.st1{fill:url(#SVGID_1_);}
	.st2{fill:#01D4D4;}
	.st3{fill:url(#SVGID_2_);}
	.st4{fill:url(#SVGID_3_);}
	.st5{fill:#FFFFFF;}
	.st6{fill:url(#SVGID_4_);}
	.st7{fill:url(#SVGID_5_);}
	.st8{fill:url(#SVGID_6_);}
	.st9{fill:url(#SVGID_7_);}
	.st10{fill:url(#SVGID_8_);}
	.st11{fill:url(#SVGID_9_);}
	.st12{fill:url(#SVGID_10_);}
</style>
<path class="st0" d="M559.1,258.9c-0.2,25.9-3.6,52.4-14.3,75.5c-6.8,14.6-16.3,27.8-28.1,38.8c-27.7,26.2-66.2,40.4-103.4,44.9
	c-52.6,6.3-105.8-2.6-158.6,0.1c-33,1.7-65.8,8-98.8,8.9s-67.4-4.2-95.4-23.3c-10.7-7.3-20.1-16.3-28-26.5
	c-10.2-13.2-18.2-28-23.7-43.8c-21.1-60.8-3.7-135.1,41.6-177.4c17.9-16.7,39.2-28.4,60.3-39.7c44.3-23.6,118.6-188,292.6-80
	c34,21.2,51.6,64.5,81.7,91.9c26.8,24.4,57.1,48.3,68.4,84.3C558.3,227.4,559.3,243.3,559.1,258.9z"/>
<path class="st0" d="M516.8,373.3c-27.7,26.2-66.2,40.4-103.4,44.9c-52.6,6.3-105.8-2.6-158.6,0.1c-33,1.7-65.8,8-98.8,8.9
	s-67.4-4.2-95.4-23.3c-10.7-7.3-20.1-16.3-28-26.5c2.7-0.7,5.4-1.2,8.2-1.6c55.5-7.5,111.6-8.4,167.6-9.3l152.8-2.4
	c16.9-0.3,33.9-0.5,50.8,1.1c21.6,2.1,42.8,7.2,64.4,9.2C489.9,375.6,503.3,373.6,516.8,373.3z"/>
<linearGradient id="SVGID_1_" gradientUnits="userSpaceOnUse" x1="275.5386" y1="-70.7411" x2="298.1487" y2="516.0589" gradientTransform="matrix(1 0 0 -1 -2.28 403.63)">
	<stop  offset="0" style="stop-color:#010101;stop-opacity:0"/>
	<stop  offset="0.95" style="stop-color:#010101"/>
</linearGradient>
<path class="st1" d="M420.5,376.5c-103.3-5.7-206.8-5.8-310.1-0.3c-17.4,0.9-35.2,2.1-51.5,8.4c8,7.3,19.9,7.9,30.7,8.1
	c79.4,1.3,158.9,1.6,238.3,1.1c4.7,0,11.1-2.1,10.2-6.6c-0.3-1.4-1.3-2.6-1.2-4c0.1-2.5,3.4-3.5,6-3.6c6.9-0.4,13.8,0,20.6,1.1
	c2.5,0.4,5.1,1,6.7,2.9c1.3,1.5,1.7,3.5,2.6,5.2c3.1,5.6,10.7,6.8,17,5.6s12.2-4.2,18.5-4.5c5.6-0.3,11.1,1.5,16.6,2.8
	c17.9,4.1,36.6,2.6,54.9,1.1c19-1.6,19.4-14.7,0.5-15.8C460.6,376.8,440.5,377.6,420.5,376.5z"/>
<path class="st2" d="M129.6,55.3h183.8c8.8,0,16,7.2,16,16v297.9c0,8.8-7.2,16-16,16H129.6c-8.8,0-16-7.2-16-16V71.3
	C113.6,62.5,120.7,55.3,129.6,55.3z"/>
<path class="st2" d="M135.7,55.3h183.8c8.8,0,16,7.2,16,16v297.9c0,8.8-7.2,16-16,16H135.7c-8.8,0-16-7.2-16-16V71.3
	C119.7,62.5,126.9,55.3,135.7,55.3z"/>
<linearGradient id="SVGID_2_" gradientUnits="userSpaceOnUse" x1="210.3223" y1="485.6999" x2="244.2523" y2="-55.8701" gradientTransform="matrix(1 0 0 -1 0 430)">
	<stop  offset="0" style="stop-color:#FFFFFF;stop-opacity:0"/>
	<stop  offset="0.14" style="stop-color:#FFFFFF;stop-opacity:0.22"/>
	<stop  offset="0.3" style="stop-color:#FFFFFF;stop-opacity:0.45"/>
	<stop  offset="0.45" style="stop-color:#FFFFFF;stop-opacity:0.65"/>
	<stop  offset="0.6" style="stop-color:#FFFFFF;stop-opacity:0.8"/>
	<stop  offset="0.73" style="stop-color:#FFFFFF;stop-opacity:0.91"/>
	<stop  offset="0.85" style="stop-color:#FFFFFF;stop-opacity:0.98"/>
	<stop  offset="0.94" style="stop-color:#FFFFFF"/>
</linearGradient>
<path class="st3" d="M135.7,55.3h183.8c8.8,0,16,7.2,16,16v297.9c0,8.8-7.2,16-16,16H135.7c-8.8,0-16-7.2-16-16V71.3
	C119.7,62.5,126.9,55.3,135.7,55.3z"/>
<linearGradient id="SVGID_3_" gradientUnits="userSpaceOnUse" x1="98.9235" y1="39.0496" x2="565.1035" y2="552.9796" gradientTransform="matrix(1 0 0 -1 -2.28 403.63)">
	<stop  offset="0" style="stop-color:#010101;stop-opacity:0"/>
	<stop  offset="0.95" style="stop-color:#010101"/>
</linearGradient>
<path class="st4" d="M136.2,245l5.6-173.7l163.4,3.4c0,0-21.4,180.3-6.3,226.9s17.6,64,17.6,64l-176.5,5L136.2,245z"/>
<path class="st5" d="M345.9,350.3l-178.6,1.9c0,0-18.4-106.7-21.6-142.4c-3.1-34.4-3.9-138.4-3.9-138.4h170.5
	c0,0,0.4,100.8,3.5,134.1C319.2,242.3,345.9,350.3,345.9,350.3z"/>
<path class="st2" d="M425.6,69.4l-12.1-27.6l-1-2.3c0-0.1-0.1-0.1-0.2-0.2c-0.2-0.2-0.6-0.2-0.8,0c-0.1,0.1-0.1,0.1-0.1,0.2
	l-13.2,29.9c-0.3,0.6-0.4,1.3-0.4,2v288.9H426V71.4C426,70.7,425.8,70.1,425.6,69.4z M425.7,360.2H398V354h27.8V360.2z"/>
<linearGradient id="SVGID_4_" gradientUnits="userSpaceOnUse" x1="545.2291" y1="257.6422" x2="-306.4609" y2="-83.9078" gradientTransform="matrix(1 0 0 -1 -2.28 403.63)">
	<stop  offset="0" style="stop-color:#FFFFFF;stop-opacity:0"/>
	<stop  offset="0.14" style="stop-color:#FFFFFF;stop-opacity:0.22"/>
	<stop  offset="0.3" style="stop-color:#FFFFFF;stop-opacity:0.45"/>
	<stop  offset="0.45" style="stop-color:#FFFFFF;stop-opacity:0.65"/>
	<stop  offset="0.6" style="stop-color:#FFFFFF;stop-opacity:0.8"/>
	<stop  offset="0.73" style="stop-color:#FFFFFF;stop-opacity:0.91"/>
	<stop  offset="0.85" style="stop-color:#FFFFFF;stop-opacity:0.98"/>
	<stop  offset="0.94" style="stop-color:#FFFFFF"/>
</linearGradient>
<path class="st6" d="M421.1,71.4V354h-17.3V71.4c0-0.7,0.1-1.3,0.2-2l8.1-29.9c0-0.1,0-0.1,0.1-0.2c0.2-0.3,0.5-0.2,0.6,0.2l0.6,2.3
	l7.4,27.6C421,70.1,421.1,70.8,421.1,71.4z"/>
<linearGradient id="SVGID_5_" gradientUnits="userSpaceOnUse" x1="441.0943" y1="41.6792" x2="275.7643" y2="-24.6208" gradientTransform="matrix(1 0 0 -1 -2.28 403.63)">
	<stop  offset="0" style="stop-color:#FFFFFF;stop-opacity:0"/>
	<stop  offset="0.14" style="stop-color:#FFFFFF;stop-opacity:0.22"/>
	<stop  offset="0.3" style="stop-color:#FFFFFF;stop-opacity:0.45"/>
	<stop  offset="0.45" style="stop-color:#FFFFFF;stop-opacity:0.65"/>
	<stop  offset="0.6" style="stop-color:#FFFFFF;stop-opacity:0.8"/>
	<stop  offset="0.73" style="stop-color:#FFFFFF;stop-opacity:0.91"/>
	<stop  offset="0.85" style="stop-color:#FFFFFF;stop-opacity:0.98"/>
	<stop  offset="0.94" style="stop-color:#FFFFFF"/>
</linearGradient>
<path class="st7" d="M403.9,360.2h17.3V381c0,2.7-1.4,5-3,5h-11.2c-1.7,0-3-2.2-3-5L403.9,360.2z"/>
<linearGradient id="SVGID_6_" gradientUnits="userSpaceOnUse" x1="415.1949" y1="350.77" x2="412.6848" y2="305.5299" gradientTransform="matrix(1 0 0 -1 -2.28 403.63)">
	<stop  offset="0" style="stop-color:#FFFFFF;stop-opacity:0"/>
	<stop  offset="0.14" style="stop-color:#FFFFFF;stop-opacity:0.22"/>
	<stop  offset="0.3" style="stop-color:#FFFFFF;stop-opacity:0.45"/>
	<stop  offset="0.45" style="stop-color:#FFFFFF;stop-opacity:0.65"/>
	<stop  offset="0.6" style="stop-color:#FFFFFF;stop-opacity:0.8"/>
	<stop  offset="0.73" style="stop-color:#FFFFFF;stop-opacity:0.91"/>
	<stop  offset="0.85" style="stop-color:#FFFFFF;stop-opacity:0.98"/>
	<stop  offset="0.94" style="stop-color:#FFFFFF"/>
</linearGradient>
<path class="st8" d="M426,71.4c-8.9,4.3-19.3,4.3-28.2,0l8.3-18.1l6.3-13.8l5.4,12.8L426,71.4z"/>
<path class="st2" d="M417.8,52.3c-3.7,1.7-7.8,2.1-11.7,1l6.3-13.8L417.8,52.3z"/>
<linearGradient id="SVGID_7_" gradientUnits="userSpaceOnUse" x1="411.5526" y1="345.0105" x2="427.2527" y2="384.7705" gradientTransform="matrix(1 0 0 -1 -2.28 403.63)">
	<stop  offset="0" style="stop-color:#010101;stop-opacity:0"/>
	<stop  offset="0.95" style="stop-color:#010101"/>
</linearGradient>
<path class="st9" d="M417.8,52.3c-4,2-9,1.7-12.4,0.9l6.3-14.8L417.8,52.3z"/>
<path class="st2" d="M161.3,106.5h84.2c1.6,0,2.8,1.3,2.8,2.8v0c0,1.6-1.3,2.8-2.8,2.8h-84.2c-1.6,0-2.8-1.3-2.8-2.8v0
	C158.5,107.8,159.8,106.5,161.3,106.5z"/>
<path class="st2" d="M161.3,116.2h84.2c1.6,0,2.8,1.3,2.8,2.8v0c0,1.6-1.3,2.8-2.8,2.8h-84.2c-1.6,0-2.8-1.3-2.8-2.8v0
	C158.5,117.5,159.8,116.2,161.3,116.2z"/>
<path class="st2" d="M161.3,126h84.2c1.6,0,2.8,1.3,2.8,2.8l0,0c0,1.6-1.3,2.8-2.8,2.8h-84.2c-1.6,0-2.8-1.3-2.8-2.8l0,0
	C158.5,127.2,159.8,126,161.3,126z"/>
<path class="st2" d="M190.2,135.7H246c1.3,0,2.3,1,2.3,2.3v1c0,1.3-1,2.3-2.3,2.3h-55.8c-1.3,0-2.3-1-2.3-2.3v-1
	C187.9,136.8,188.9,135.7,190.2,135.7z"/>
<path class="st2" d="M162.3,168.2h84.2c1.6,0,2.8,1.3,2.8,2.8l0,0c0,1.6-1.3,2.8-2.8,2.8h-84.2c-1.6,0-2.8-1.3-2.8-2.8l0,0
	C159.4,169.5,160.7,168.2,162.3,168.2z"/>
<path class="st2" d="M162.3,178h84.2c1.6,0,2.8,1.3,2.8,2.8l0,0c0,1.6-1.3,2.8-2.8,2.8h-84.2c-1.6,0-2.8-1.3-2.8-2.8l0,0
	C159.4,179.2,160.7,178,162.3,178z"/>
<path class="st2" d="M162.3,187.7h84.2c1.6,0,2.8,1.3,2.8,2.8l0,0c0,1.6-1.3,2.8-2.8,2.8h-84.2c-1.6,0-2.8-1.3-2.8-2.8l0,0
	C159.4,189,160.7,187.7,162.3,187.7z"/>
<path class="st2" d="M191.2,197.4H247c1.3,0,2.3,1,2.3,2.3v1c0,1.3-1,2.3-2.3,2.3h-55.8c-1.3,0-2.3-1-2.3-2.3v-1
	C188.8,198.5,189.9,197.4,191.2,197.4z"/>
<path class="st2" d="M252.9,232.8h-84.2c-1.6,0-3-1.2-3.2-2.8l0,0c-0.2-1.3,0.7-2.6,2-2.8c0.2,0,0.3,0,0.5,0h84.2
	c1.6,0,3,1.2,3.2,2.8l0,0c0.2,1.3-0.7,2.6-2,2.8C253.2,232.8,253,232.8,252.9,232.8z"/>
<path class="st2" d="M254.2,242.5H170c-1.6,0-3-1.3-3.2-2.9l0,0c-0.2-1.3,0.7-2.6,2-2.8c0.2,0,0.3,0,0.5,0h84.2c1.6,0,3,1.2,3.2,2.8
	l0,0c0.2,1.3-0.6,2.6-1.9,2.8C254.5,242.5,254.3,242.5,254.2,242.5z"/>
<path class="st2" d="M255.5,252.2h-84.2c-1.6,0-3-1.2-3.2-2.8l0,0c-0.2-1.3,0.7-2.6,2-2.8c0.2,0,0.3,0,0.5,0h84.2
	c1.6,0,3,1.2,3.2,2.8l0,0c0.2,1.3-0.7,2.6-2,2.8C255.8,252.2,255.6,252.2,255.5,252.2z"/>
<path class="st2" d="M257.3,261.9h-55.8c-1.3,0-2.4-1-2.6-2.3l-0.1-1c-0.2-1.1,0.6-2.1,1.7-2.3c0.1,0,0.2,0,0.3,0h55.8
	c1.3,0,2.4,1,2.6,2.3l0.1,1c0.2,1.1-0.6,2.1-1.7,2.3C257.5,261.9,257.4,261.9,257.3,261.9z"/>
<path class="st2" d="M263.1,294.6h-84.2c-1.6-0.1-3-1.2-3.4-2.9l0,0c-0.3-1.2,0.4-2.5,1.7-2.8c0.2-0.1,0.4-0.1,0.6-0.1H262
	c1.6,0.1,3,1.2,3.4,2.9l0,0c0.3,1.2-0.4,2.5-1.6,2.8C263.5,294.6,263.3,294.6,263.1,294.6z"/>
<path class="st2" d="M265,304.5h-84.2c-1.6-0.1-3-1.3-3.4-2.9l0,0c-0.3-1.2,0.4-2.5,1.6-2.8c0.2-0.1,0.4-0.1,0.6-0.1h84.2
	c1.6,0.1,3,1.2,3.4,2.9l0,0c0.3,1.2-0.4,2.5-1.6,2.8C265.4,304.4,265.2,304.5,265,304.5z"/>
<path class="st2" d="M266.8,314.3h-84.2c-1.6-0.1-3-1.2-3.4-2.9l0,0c-0.3-1.2,0.5-2.5,1.7-2.8c0.2,0,0.4-0.1,0.6-0.1h84.2
	c1.6,0.1,3,1.3,3.4,2.9l0,0c0.3,1.2-0.5,2.5-1.7,2.8C267.2,314.3,267,314.3,266.8,314.3z"/>
<path class="st2" d="M269.2,324.2h-55.8c-1.3-0.1-2.5-1-2.8-2.4l-0.2-1c-0.3-1,0.3-2,1.3-2.3c0.2,0,0.4-0.1,0.5-0.1h55.8
	c1.3,0.1,2.5,1,2.8,2.3l0.2,1c0.3,1-0.3,2-1.3,2.3C269.5,324.2,269.4,324.2,269.2,324.2z"/>
<path class="st2" d="M288.1,147.9h-16.8c-6.7,0-12.1-5.4-12.1-12.1v-18.2c0-6.7,5.4-12.1,12.1-12.1h16.8c6.7,0,12.1,5.4,12.1,12.1
	v18.2C300.2,142.5,294.7,147.9,288.1,147.9z M271.3,108.8c-4.9,0-8.8,3.9-8.8,8.8v18.2c0,4.9,3.9,8.8,8.8,8.8h16.8
	c4.9,0,8.8-3.9,8.8-8.8v-18.2c0-4.9-3.9-8.8-8.8-8.8L271.3,108.8z"/>
<path class="st2" d="M292.5,210.4h-16.7c-6.5,0-11.8-5.1-12.1-11.6l-0.8-17.8c-0.3-6.7,4.9-12.4,11.6-12.7c0.2,0,0.4,0,0.6,0h16.8
	c6.5,0,11.8,5.1,12,11.6l0.8,17.8c0.3,6.7-4.9,12.4-11.6,12.7C292.8,210.4,292.6,210.4,292.5,210.4L292.5,210.4z M274.9,171.6
	c-4.8,0-8.8,3.9-8.8,8.8c0,0.1,0,0.3,0,0.4l0.8,17.8c0.2,4.7,4.1,8.4,8.8,8.4h16.8c4.8,0,8.8-3.9,8.8-8.8c0-0.1,0-0.3,0-0.4
	l-0.8-17.8c-0.2-4.7-4.1-8.4-8.8-8.4L274.9,171.6z"/>
<path class="st2" d="M281,268.1c-6.3,0-11.6-4.9-12.1-11.2l-1.4-17.8c-0.5-6.7,4.5-12.5,11.1-13.1c0.2,0,0.4,0,0.5,0l16.8-0.6
	c6.5-0.2,11.9,4.7,12.5,11.1l1.4,17.8c0.5,6.7-4.5,12.5-11.2,13.1c-0.2,0-0.3,0-0.5,0l-16.8,0.6L281,268.1z M296.4,228.8h-0.3
	l-16.8,0.6c-4.9,0.2-8.6,4.3-8.5,9.1c0,0.1,0,0.2,0,0.4l1.4,17.8c0.4,4.7,4.4,8.2,9.1,8.1l16.8-0.6c4.8-0.2,8.6-4.2,8.5-9.1
	c0-0.1,0-0.3,0-0.4l-1.4-17.8C304.8,232.4,301,228.8,296.4,228.8L296.4,228.8z"/>
<path class="st2" d="M294.2,327c-6,0-11-4.3-12-10.2l-2.8-17.3c-1.1-6.6,3.4-12.8,10-13.9c0.5-0.1,1-0.1,1.5-0.1l16.6-0.6
	c6.1-0.2,11.4,4.2,12.4,10.2l2.8,17.3c1.1,6.6-3.4,12.9-10,13.9c-0.5,0.1-1,0.1-1.5,0.1l-16.6,0.6L294.2,327z M308,288.2h-0.3
	l-16.6,0.6c-4.9,0.2-8.6,4.3-8.4,9.1c0,0.4,0,0.7,0.1,1.1l2.8,17.3c0.8,4.4,4.6,7.5,9,7.4l16.6-0.6c4.8-0.2,8.6-4.2,8.5-9.1
	c0-0.4,0-0.7-0.1-1.1l-2.8-17.3C316,291.3,312.3,288.2,308,288.2z"/>
<path class="st2" d="M189.7,64.7h81.4c3.3,0,5.9,2.7,5.9,5.9V80c0,3.3-2.7,5.9-5.9,5.9h-81.4c-3.3,0-5.9-2.7-5.9-5.9v-9.3
	C183.8,67.4,186.4,64.7,189.7,64.7z"/>
<linearGradient id="SVGID_8_" gradientUnits="userSpaceOnUse" x1="230.7144" y1="340.98" x2="230.0844" y2="371.76" gradientTransform="matrix(1 0 0 -1 0 430)">
	<stop  offset="0" style="stop-color:#FFFFFF;stop-opacity:0"/>
	<stop  offset="0.14" style="stop-color:#FFFFFF;stop-opacity:0.22"/>
	<stop  offset="0.3" style="stop-color:#FFFFFF;stop-opacity:0.45"/>
	<stop  offset="0.45" style="stop-color:#FFFFFF;stop-opacity:0.65"/>
	<stop  offset="0.6" style="stop-color:#FFFFFF;stop-opacity:0.8"/>
	<stop  offset="0.73" style="stop-color:#FFFFFF;stop-opacity:0.91"/>
	<stop  offset="0.85" style="stop-color:#FFFFFF;stop-opacity:0.98"/>
	<stop  offset="0.94" style="stop-color:#FFFFFF"/>
</linearGradient>
<path class="st10" d="M189.7,64.7h81.4c3.3,0,5.9,2.7,5.9,5.9V80c0,3.3-2.7,5.9-5.9,5.9h-81.4c-3.3,0-5.9-2.7-5.9-5.9v-9.3
	C183.8,67.4,186.4,64.7,189.7,64.7z"/>
<path class="st2" d="M280.3,140.3l-14.7-14.6c-2-2-2-5.1,0-7.1c2-2,5.1-2,7.1,0l7,7l23.5-27.2c1.8-2.1,5-2.3,7.1-0.5
	c2.1,1.8,2.3,5,0.5,7.1l0,0L280.3,140.3z"/>
<path class="st2" d="M287.2,201.2l-14.6-14.6c-2-2-2-5.1,0-7.1c2-2,5.1-2,7.1,0l0,0l7,7l23.5-27.2c1.8-2.1,5-2.3,7.1-0.5
	c2.1,1.8,2.3,5,0.5,7.1l0,0L287.2,201.2z"/>
<path class="st2" d="M292.3,259.3l-14.7-14.7c-2-2-2-5.1,0-7.1c2-2,5.1-2,7.1,0l7,7l23.5-27.2c1.8-2.1,5-2.3,7.1-0.5
	c2.1,1.8,2.3,5,0.5,7.1l0,0L292.3,259.3z"/>
<path class="st2" d="M305.3,317.7l-14.6-14.7c-2-2-2-5.1,0-7.1s5.1-2,7.1,0l0,0l7,7l23.5-27.2c1.8-2.1,5-2.3,7.1-0.5
	c2.1,1.8,2.3,5,0.5,7.1L305.3,317.7z"/>
<rect x="398" y="354" class="st2" width="27.8" height="6.1"/>
<linearGradient id="SVGID_9_" gradientUnits="userSpaceOnUse" x1="411.574" y1="80.63" x2="413.464" y2="28.49" gradientTransform="matrix(1 0 0 -1 0 430)">
	<stop  offset="0" style="stop-color:#010101;stop-opacity:0"/>
	<stop  offset="0.95" style="stop-color:#010101"/>
</linearGradient>
<rect x="398" y="354" class="st11" width="27.8" height="6.1"/>
<path class="st2" d="M426,360.3V381c0,2.7-2.2,4.9-4.9,5c0,0,0,0-0.1,0h-18.2c-2.7,0-4.9-2.2-5-4.9c0,0,0,0,0,0v-20.6H426z"/>
<linearGradient id="SVGID_10_" gradientUnits="userSpaceOnUse" x1="414.1089" y1="21.34" x2="414.429" y2="88.88" gradientTransform="matrix(1 0 0 -1 -2.28 403.63)">
	<stop  offset="0" style="stop-color:#010101;stop-opacity:0"/>
	<stop  offset="0.95" style="stop-color:#010101"/>
</linearGradient>
<path class="st12" d="M426,360.3V381c0,2.7-2.2,4.9-4.9,5c0,0,0,0-0.1,0h-18.2c-2.7,0-4.9-2.2-5-4.9c0,0,0,0,0,0v-20.6H426z"/>
</svg>
