<svg xmlns="http://www.w3.org/2000/svg" viewBox="0 0 368.33 297.73"><defs><style>.cls-1{isolation:isolate;}.cls-2{fill:#d4fffe;}.cls-3{fill:#01d5d5;stroke-width:4.44px;}.cls-3,.cls-6,.cls-7,.cls-8{stroke:#131662;stroke-linecap:round;stroke-miterlimit:10;}.cls-4{fill:#fff;opacity:0.88;mix-blend-mode:soft-light;}.cls-5{fill:#131662;}.cls-6,.cls-7,.cls-8{fill:none;}.cls-6{stroke-width:6.06px;}.cls-7,.cls-8{stroke-width:2.03px;}.cls-7{stroke-dasharray:20.56 20.56;}.cls-8{stroke-dasharray:18.76 18.76;}</style></defs><g class="cls-1"><g id="Layer_2" data-name="Layer 2"><g id="Layer_1-2" data-name="Layer 1"><path class="cls-2" d="M120,4.87C94.72,14.85,80,40.58,61,59.89c-11,11.12-23.7,20.29-34.9,31S4.8,114.6,1.39,129.85C-5.1,158.66,13,186.83,17.78,216c1.55,9.34,1.63,18.91,4.63,27.84A63,63,0,0,0,33.61,263c19.23,23.38,50.07,36.6,80.27,34.58,20-1.3,39-8.85,59-9.66,30-1.22,60.46,12.74,89.6,5.35,13.39-3.4,25.32-11.2,36.84-19,22.73-15.58,46.34-34.65,51.62-61.68,3.89-19.88-3-40.82,1.78-60.46,2.84-11.36,9.42-21.51,12.83-32.71,7.38-23.78-.49-50.8-17.29-69.22S306.87,21.59,282.12,19.4c-16.32-1.46-32.63.32-48.94.08C193.41,18.67,161.27-11.52,120,4.87Z"/><path class="cls-3" d="M256.68,169.8l18.33,0,0-24-18.34,0a63.92,63.92,0,0,0-11.89-26.25l12.93-11.9L239.19,90.78l-12.94,11.89a76.52,76.52,0,0,0-28.68-10.85l0-16.8-26.12,0,0,16.8a76.44,76.44,0,0,0-28.63,10.92l-13-11.86-18.44,17,13,11.87A63.81,63.81,0,0,0,112.54,146l-18.33,0,0,23.95,18.32,0a63.77,63.77,0,0,0,11.92,26.26l-12.94,11.91L130,225l13-11.9A76.61,76.61,0,0,0,171.64,224l0,16.8,26.13,0,0-16.8a76.65,76.65,0,0,0,28.64-10.91l13,11.86L257.83,208l-13-11.88A63.79,63.79,0,0,0,256.68,169.8ZM147.24,158c0-18.92,16.67-34.29,37.32-34.31S222,138.94,222,157.86s-16.68,34.29-37.33,34.32S147.27,176.88,147.24,158Z"/><ellipse class="cls-4" cx="147.62" cy="160.08" rx="72.59" ry="66.56"/><path class="cls-5" d="M90.26,102.25a2.13,2.13,0,0,0-2.82-.12l-3.16,2.63-2.87-2.9a2.12,2.12,0,0,0-2.82-.13,1.74,1.74,0,0,0-.13,2.59l2.86,2.89-3.16,2.63a1.73,1.73,0,0,0-.13,2.59,2.12,2.12,0,0,0,2,.55,2,2,0,0,0,.87-.43L84,109.93l2.87,2.89a2.13,2.13,0,0,0,2.82.13,1.72,1.72,0,0,0,.14-2.58L87,107.47l3.16-2.63A1.73,1.73,0,0,0,90.26,102.25Z"/><path class="cls-5" d="M100.86,72.89a1.28,1.28,0,0,0-1.68-.31L97,73.89l-1.43-2a1.28,1.28,0,0,0-1.68-.31,1.05,1.05,0,0,0-.34,1.54l1.43,2-2.16,1.31A1.06,1.06,0,0,0,92.49,78a1.25,1.25,0,0,0,1.12.49,1.16,1.16,0,0,0,.56-.18L96.33,77l1.43,2a1.24,1.24,0,0,0,1.11.5,1.31,1.31,0,0,0,.57-.18,1.06,1.06,0,0,0,.34-1.54l-1.43-2,2.16-1.31A1.06,1.06,0,0,0,100.86,72.89Z"/><path class="cls-5" d="M276.89,108.13a2.14,2.14,0,0,1,2.82-.14l3.17,2.62,2.85-2.9a2.12,2.12,0,0,1,2.82-.13,1.72,1.72,0,0,1,.15,2.58l-2.86,2.91,3.17,2.62a1.72,1.72,0,0,1,.14,2.58,2.07,2.07,0,0,1-1.95.55,1.91,1.91,0,0,1-.87-.42l-3.16-2.61-2.86,2.9a2.08,2.08,0,0,1-1.95.55,2.13,2.13,0,0,1-.87-.42,1.72,1.72,0,0,1-.14-2.58l2.85-2.91L277,110.71A1.72,1.72,0,0,1,276.89,108.13Z"/><path class="cls-5" d="M266.18,78.83a1.28,1.28,0,0,1,1.68-.32l2.16,1.3,1.42-2a1.28,1.28,0,0,1,1.68-.32,1.06,1.06,0,0,1,.35,1.54l-1.42,2,2.16,1.3a1.06,1.06,0,0,1,.35,1.54,1.25,1.25,0,0,1-1.12.5,1.19,1.19,0,0,1-.56-.18l-2.16-1.3-1.42,2a1.25,1.25,0,0,1-1.12.5,1.16,1.16,0,0,1-.56-.18,1.05,1.05,0,0,1-.35-1.54l1.42-2-2.16-1.3A1.06,1.06,0,0,1,266.18,78.83Z"/><line class="cls-6" x1="283.13" y1="240.66" x2="302.65" y2="240.64"/><line class="cls-6" x1="73.41" y1="240.91" x2="263.63" y2="240.69"/><path class="cls-7" d="M184.54,107.83C154.37,107.86,130,130.31,130,158s24.53,50.05,54.7,50,54.59-22.49,54.55-50.15S214.71,107.79,184.54,107.83Z"/><path class="cls-8" d="M184.66,192.18c-20.64,0-37.39-15.3-37.42-34.23s16.67-34.29,37.32-34.31S222,138.94,222,157.86,205.31,192.15,184.66,192.18Z"/></g></g></g></svg>