<?xml version="1.0" encoding="utf-8"?>
<!-- Generator: Adobe Illustrator 24.1.1, SVG Export Plug-In . SVG Version: 6.00 Build 0)  -->
<svg version="1.1" id="Layer_1" xmlns="http://www.w3.org/2000/svg" xmlns:xlink="http://www.w3.org/1999/xlink" x="0px" y="0px"
	 viewBox="0 0 823.6 597" style="enable-background:new 0 0 823.6 597;" xml:space="preserve">
<style type="text/css">
	.st0{opacity:0.18;fill:#01D4D4;enable-background:new    ;}
	.st1{fill:#01D4D4;}
	.st2{opacity:0.61;fill:url(#SVGID_1_);enable-background:new    ;}
	.st3{fill:url(#SVGID_2_);}
	.st4{fill:#FFFFFF;}
	.st5{fill:url(#SVGID_3_);}
	.st6{fill:url(#SVGID_4_);}
	.st7{fill:url(#SVGID_5_);}
	.st8{opacity:5.000000e-02;fill:#000405;enable-background:new    ;}
	.st9{opacity:0.22;fill:#FFFFFF;enable-background:new    ;}
</style>
<path class="st0" d="M131.3,125c-24.3,5.2-49.6,10.8-69.2,26.2c-16.5,13-42.2,37-50,56.5c-33,82.4,4.3,182.6,76.7,233.9
	c34.1,24.1,76.5,35.8,107.1,64.2c19.4,18,32.9,41.7,53.5,58.2c30.1,24.1,70.7,29.4,109.2,32c26.7,1.8,54.5,2.6,79.3-7.6
	c17.9-7.3,33.1-19.9,48-32.3l98.7-82.4c15.9-13.2,30.7-34.3,51.3-34.2c185.9,1.3,198.4-217.4-86.9-314.3
	c-25.1-8.5-42.4-32.3-66-44.5c-48.8-25.2-104.9-17-154.1,0.4C266.5,103.2,196.1,111.2,131.3,125z"/>
<path class="st1" d="M617.3,200.6v260.6c0,13.7-11.1,24.9-24.9,24.9l0,0H202.8c-13.7,0-24.9-11.1-24.9-24.9l0,0V200.6
	c0-13.7,11.1-24.9,24.8-24.9h389.7C606.2,175.7,617.3,186.8,617.3,200.6C617.3,200.6,617.3,200.6,617.3,200.6z"/>
<path class="st1" d="M610.6,183.7H184l3.5-2.6c0.2-0.1,0.3-0.3,0.5-0.4L390.9,25.1l6.4-4.9l206.5,158.3L610.6,183.7z"/>
<path class="st1" d="M617.3,200.6l-5.2,3.8l0,0l-37.8,27.4L390.9,364.6L214.4,228.7l-36.5-28.1l0.5-4.8c0.9-4.5,3-8.7,6.2-12.1
	c0.9-1,1.8-1.8,2.9-2.6c0.2-0.1,0.3-0.3,0.5-0.4c4.3-3.2,9.5-4.9,14.8-4.9h389.7c12.8,0,23.5,9.7,24.8,22.5
	C617.3,199,617.3,199.8,617.3,200.6z"/>
<linearGradient id="SVGID_1_" gradientUnits="userSpaceOnUse" x1="184.4686" y1="668.6232" x2="188.2986" y2="658.2132" gradientTransform="matrix(1 0 0 1 -0.33 -482)">
	<stop  offset="0.36" style="stop-color:#00272E"/>
	<stop  offset="0.75" style="stop-color:#3F80A1;stop-opacity:0.25"/>
	<stop  offset="1" style="stop-color:#69B9EB;stop-opacity:0"/>
</linearGradient>
<path class="st2" d="M187.4,181c-1,0.8-2,1.7-2.9,2.6H184L187.4,181z"/>
<linearGradient id="SVGID_2_" gradientUnits="userSpaceOnUse" x1="444.6867" y1="566.3909" x2="323.6867" y2="136.3909" gradientTransform="matrix(1 0 0 -1 0 598)">
	<stop  offset="0" style="stop-color:#000000;stop-opacity:0"/>
	<stop  offset="0.91" style="stop-color:#000000;stop-opacity:0.8"/>
	<stop  offset="1" style="stop-color:#000000"/>
</linearGradient>
<path class="st3" d="M617.3,200.6l-5.2,3.8l0,0l-37.8,27.4L390.9,364.6L214.4,228.7l-36.5-28.1l0.5-4.8c1.2-5.8,4.4-11.1,9.1-14.8
	l0.5-0.4L390.9,25.1l6.4-4.9l206.5,158.3c7.6,3.9,12.6,11.3,13.5,19.8C617.3,199,617.3,199.8,617.3,200.6z"/>
<path class="st4" d="M574.3,181.3v50.4l-67.7,49L491.1,292l-100.2,72.6L296.6,292L282,280.8l-67.6-52v-47.4
	c0-8.2,6.6-14.8,14.8-14.8c0,0,0,0,0,0h330.4C567.7,166.6,574.3,173.2,574.3,181.3z"/>
<linearGradient id="SVGID_3_" gradientUnits="userSpaceOnUse" x1="405.8424" y1="448.1695" x2="332.8424" y2="98.1695" gradientTransform="matrix(1 0 0 -1 0 598)">
	<stop  offset="0" style="stop-color:#000000;stop-opacity:0"/>
	<stop  offset="0.91" style="stop-color:#000000;stop-opacity:0.8"/>
	<stop  offset="1" style="stop-color:#000000"/>
</linearGradient>
<path class="st5" d="M524.7,225.5h-267c-3.1,0-5.6-2.5-5.6-5.6l0,0c0-3.1,2.5-5.6,5.6-5.6h267c3.1,0,5.6,2.5,5.6,5.6l0,0
	C530.3,223,527.8,225.5,524.7,225.5z"/>
<linearGradient id="SVGID_4_" gradientUnits="userSpaceOnUse" x1="412.4897" y1="446.7901" x2="339.4897" y2="96.79" gradientTransform="matrix(1 0 0 -1 0 598)">
	<stop  offset="0" style="stop-color:#000000;stop-opacity:0"/>
	<stop  offset="0.91" style="stop-color:#000000;stop-opacity:0.8"/>
	<stop  offset="1" style="stop-color:#000000"/>
</linearGradient>
<path class="st6" d="M524.7,258.8h-267c-3.1,0-5.6-2.5-5.6-5.6l0,0c0-3.1,2.5-5.6,5.6-5.6h267c3.1,0,5.6,2.5,5.6,5.6l0,0
	C530.3,256.2,527.8,258.8,524.7,258.8z"/>
<linearGradient id="SVGID_5_" gradientUnits="userSpaceOnUse" x1="420.974" y1="445.0092" x2="347.974" y2="95.0091" gradientTransform="matrix(1 0 0 -1 0 598)">
	<stop  offset="0" style="stop-color:#000000;stop-opacity:0"/>
	<stop  offset="0.91" style="stop-color:#000000;stop-opacity:0.8"/>
	<stop  offset="1" style="stop-color:#000000"/>
</linearGradient>
<polygon class="st7" points="506.6,280.8 491.1,292 296.6,292 282,280.8 "/>
<polygon class="st8" points="390.9,364.6 228,486 557.1,486 "/>
<path class="st1" d="M250.4,90.2c-8.2-17.6-39-14.7-39-14.7c19-11.2,15.4-39.7,15.1-41.4l0,0c8.3,24.8,37,19.3,39.6,18.8
	C247.1,57.6,250.4,90.2,250.4,90.2z"/>
<path class="st1" d="M197,126.3c-5.2-11.2-24.8-9.3-24.8-9.3l0,0c12.4-7.4,9.6-26.3,9.6-26.3v0.1c5.3,15.7,23.5,12.2,25.1,11.9
	C194.9,105.6,197,126.3,197,126.3z"/>
<path class="st9" d="M215.8,74.1l-4.4,1.4c19-11.2,15.4-39.7,15.1-41.4c0.3,1.3,4.7,20.1,2.3,26.3C225.9,68.2,215.8,74.1,215.8,74.1
	z"/>
<path class="st9" d="M184.4,108.4c-2.3,3.2-11.5,8.2-12.2,8.5c12.4-7.4,9.6-26.3,9.6-26.3v0.1C182.3,92,186.7,105.3,184.4,108.4z"/>
<polygon class="st9" points="178.6,214.3 382.3,371 390.9,364.6 177.9,200.6 "/>
<polygon class="st9" points="397.6,370 617.3,211.8 617.3,201 390.9,365 "/>
<path class="st9" d="M617.2,198.6l-0.6,1.7l-4.5,4.5c3.1-5.4-5.7-18-5.7-18l-3.5-2.6l-10.6-8L390.9,25.5l6.4-4.9l206.5,158.3
	C611.3,182.7,616.4,190.2,617.2,198.6z"/>
</svg>
