<svg xmlns="http://www.w3.org/2000/svg" xmlns:xlink="http://www.w3.org/1999/xlink" viewBox="0 0 368.33 297.73"><defs><style>.cls-1{isolation:isolate;}.cls-2{fill:#d4fffe;}.cls-3{fill:#131662;}.cls-4{fill:none;stroke-width:7.22px;}.cls-4,.cls-5{stroke:#131662;stroke-linecap:round;stroke-miterlimit:10;}.cls-5{fill:#01d5d5;stroke-width:3.23px;}.cls-6{mask:url(#mask);}.cls-7{font-size:40.55px;font-family:Roboto-Medium, Roboto;font-weight:500;}.cls-7,.cls-9{fill:#fff;}.cls-8{mask:url(#mask-2);}.cls-9{opacity:0.88;mix-blend-mode:soft-light;}.cls-10{filter:url(#luminosity-noclip-2);}.cls-11{filter:url(#luminosity-noclip);}</style><filter id="luminosity-noclip" x="84.34" y="138.62" width="99.35" height="76.56" filterUnits="userSpaceOnUse" color-interpolation-filters="sRGB"><feFlood flood-color="#fff" result="bg"/><feBlend in="SourceGraphic" in2="bg"/></filter><mask id="mask" x="84.34" y="138.62" width="99.35" height="76.56" maskUnits="userSpaceOnUse"><g class="cls-11"><circle cx="158.2" cy="189.68" r="25.5" transform="translate(-42.22 334.03) rotate(-85.93)"/></g></mask><filter id="luminosity-noclip-2" x="198.34" y="140.62" width="99.35" height="76.56" filterUnits="userSpaceOnUse" color-interpolation-filters="sRGB"><feFlood flood-color="#fff" result="bg"/><feBlend in="SourceGraphic" in2="bg"/></filter><mask id="mask-2" x="198.34" y="140.62" width="99.35" height="76.56" maskUnits="userSpaceOnUse"><g class="cls-10"><circle cx="272.2" cy="191.68" r="25.5" transform="translate(61.71 449.6) rotate(-85.93)"/></g></mask></defs><g class="cls-1"><g id="Layer_2" data-name="Layer 2"><g id="Layer_1-2" data-name="Layer 1"><path class="cls-2" d="M120,4.87C94.72,14.85,80,40.58,61,59.89c-11,11.12-23.7,20.29-34.9,31S4.8,114.6,1.39,129.85C-5.1,158.66,13,186.83,17.78,216c1.55,9.34,1.63,18.91,4.63,27.84A63,63,0,0,0,33.61,263c19.23,23.38,50.07,36.6,80.27,34.58,20-1.3,39-8.85,59-9.66,30-1.22,60.46,12.74,89.6,5.35,13.39-3.4,25.32-11.2,36.84-19,22.73-15.58,46.34-34.65,51.62-61.68,3.89-19.88-3-40.82,1.78-60.46,2.84-11.36,9.42-21.51,12.83-32.71,7.38-23.78-.49-50.8-17.29-69.22S306.87,21.59,282.12,19.4c-16.32-1.46-32.63.32-48.94.08C193.41,18.67,161.27-11.52,120,4.87Z"/><path class="cls-3" d="M56.18,107.43a3.07,3.07,0,0,0-4.34-.22L47,111.62l-4.4-4.87A3.07,3.07,0,1,0,38,110.87l4.4,4.87-4.87,4.4a3.08,3.08,0,0,0,2.79,5.27,3.12,3.12,0,0,0,1.34-.71l4.86-4.4,4.41,4.87a3.08,3.08,0,0,0,3,.92,3,3,0,0,0,1.33-.7A3.08,3.08,0,0,0,55.5,121l-4.41-4.86L56,111.77A3.07,3.07,0,0,0,56.18,107.43Z"/><path class="cls-3" d="M323.09,108.42a3.07,3.07,0,0,0-4.34-.22l-4.87,4.41-4.4-4.87a3.07,3.07,0,0,0-4.56,4.12l4.4,4.87-4.87,4.4a3.08,3.08,0,0,0-.21,4.34,3.07,3.07,0,0,0,4.34.22l4.87-4.4,4.4,4.87a3.08,3.08,0,0,0,3,.92,3,3,0,0,0,1.33-.7,3.08,3.08,0,0,0,.22-4.35L318,117.16l4.87-4.4A3.07,3.07,0,0,0,323.09,108.42Z"/><path class="cls-3" d="M76.86,73.16A1.38,1.38,0,0,0,75,72.77l-2.47,1.62-1.62-2.46a1.38,1.38,0,0,0-2.31,1.51l1.63,2.47-2.47,1.62a1.38,1.38,0,0,0,.88,2.53,1.4,1.4,0,0,0,.64-.22l2.47-1.62,1.62,2.46a1.38,1.38,0,0,0,1.27.62,1.31,1.31,0,0,0,.64-.23,1.37,1.37,0,0,0,.39-1.91L74,76.7l2.47-1.62A1.39,1.39,0,0,0,76.86,73.16Z"/><line class="cls-4" x1="294.09" y1="252.59" x2="316.34" y2="252.59"/><line class="cls-4" x1="55.07" y1="252.59" x2="271.86" y2="252.59"/><circle class="cls-3" cx="293.87" cy="77.45" r="4.13"/><circle class="cls-5" cx="122.66" cy="107.63" r="23.56"/><polygon class="cls-3" points="129.1 203.2 116.99 203.2 118.38 144.48 126.77 144.48 129.1 203.2"/><rect class="cls-3" x="116.86" y="140.23" width="11.59" height="6.63" rx="3.31"/><g class="cls-6"><path class="cls-5" d="M160.13,205.9H86V157.83c0-9.72,8.9-17.6,19.87-17.6l17.41,48.48,17-48.48c11,0,19.88,7.88,19.88,17.6Z"/></g><circle class="cls-3" cx="160.13" cy="190.45" r="23.56"/><text class="cls-7" transform="translate(149.3 204.74)">+</text><circle class="cls-5" cx="236.66" cy="109.63" r="23.56"/><polygon class="cls-3" points="243.1 205.2 230.99 205.2 232.38 146.48 240.77 146.48 243.1 205.2"/><rect class="cls-3" x="230.86" y="142.23" width="11.59" height="6.63" rx="3.31"/><g class="cls-8"><path class="cls-5" d="M274.13,207.9H200V159.83c0-9.72,8.9-17.6,19.87-17.6l17.41,48.48,17-48.48c11,0,19.88,7.88,19.88,17.6Z"/></g><circle class="cls-3" cx="274.13" cy="192.45" r="23.56"/><text class="cls-7" transform="translate(267.3 204.74)">-</text><path class="cls-9" d="M103.64,67.07h0A19.66,19.66,0,0,1,123.3,86.73V198.41a19.66,19.66,0,0,1-19.66,19.66h0A60.47,60.47,0,0,1,43.18,157.6V127.54a60.47,60.47,0,0,1,60.47-60.47Z"/><path class="cls-9" d="M216.64,71.07h0A19.66,19.66,0,0,1,236.3,90.73V202.41a19.66,19.66,0,0,1-19.66,19.66h0a60.47,60.47,0,0,1-60.47-60.47V131.54a60.47,60.47,0,0,1,60.47-60.47Z"/></g></g></g></svg>