<svg xmlns="http://www.w3.org/2000/svg" viewBox="0 0 368.33 297.73"><defs><style>.cls-1{isolation:isolate;}.cls-2{fill:#d4fffe;}.cls-3{fill:#131662;}.cls-4,.cls-7{fill:none;}.cls-4,.cls-7,.cls-8{stroke:#131662;stroke-linecap:round;stroke-miterlimit:10;}.cls-4{stroke-width:6.81px;}.cls-5,.cls-9{fill:#fff;}.cls-5{opacity:0.88;mix-blend-mode:soft-light;}.cls-6,.cls-8{fill:#01d5d5;}.cls-7{stroke-width:5px;}.cls-8{stroke-width:4px;}.cls-9{font-size:90.94px;font-family:Roboto-Medium, Roboto;font-weight:500;}</style></defs><g class="cls-1"><g id="Layer_2" data-name="Layer 2"><g id="Layer_1-2" data-name="Layer 1"><path class="cls-2" d="M120,4.87C94.72,14.85,80,40.58,61,59.89c-11,11.12-23.7,20.29-34.9,31S4.8,114.6,1.39,129.85C-5.1,158.66,13,186.83,17.78,216c1.55,9.34,1.63,18.91,4.63,27.84A63,63,0,0,0,33.61,263c19.23,23.38,50.07,36.6,80.27,34.58,20-1.3,39-8.85,59-9.66,30-1.22,60.46,12.74,89.6,5.35,13.39-3.4,25.32-11.2,36.84-19,22.73-15.58,46.34-34.65,51.62-61.68,3.89-19.88-3-40.82,1.78-60.46,2.84-11.36,9.42-21.51,12.83-32.71,7.38-23.78-.49-50.8-17.29-69.22S306.87,21.59,282.12,19.4c-16.32-1.46-32.63.32-48.94.08C193.41,18.67,161.27-11.52,120,4.87Z"/><path class="cls-3" d="M50.11,106.25a2.16,2.16,0,0,0-3-.15l-3.4,3.08-3.08-3.4a2.15,2.15,0,1,0-3.18,2.88l3.07,3.4-3.4,3.08a2.15,2.15,0,0,0,2,3.68,2.17,2.17,0,0,0,.93-.5l3.41-3.08,3.07,3.41a2.15,2.15,0,0,0,2.1.64,2,2,0,0,0,.93-.49,2.15,2.15,0,0,0,.16-3l-3.08-3.41,3.4-3.07A2.16,2.16,0,0,0,50.11,106.25Z"/><path class="cls-3" d="M91.55,58.82a1.3,1.3,0,0,0-1.8-.37L87.42,60l-1.53-2.32a1.3,1.3,0,0,0-2.18,1.43l1.53,2.33L82.92,63a1.31,1.31,0,0,0,.83,2.39,1.4,1.4,0,0,0,.6-.21l2.33-1.54,1.53,2.33a1.31,1.31,0,0,0,1.2.58,1.24,1.24,0,0,0,.6-.21,1.29,1.29,0,0,0,.37-1.8l-1.53-2.33,2.33-1.53A1.3,1.3,0,0,0,91.55,58.82Z"/><path class="cls-3" d="M312.83,114.4a2.16,2.16,0,0,1,3-.16l3.4,3.08,3.08-3.4a2.15,2.15,0,1,1,3.18,2.88l-3.07,3.4,3.4,3.08a2.15,2.15,0,0,1-1.95,3.68,2.07,2.07,0,0,1-.93-.5l-3.41-3.07-3.07,3.4a2.14,2.14,0,0,1-2.1.65,2.26,2.26,0,0,1-.94-.5,2.15,2.15,0,0,1-.15-3l3.08-3.4-3.4-3.08A2.15,2.15,0,0,1,312.83,114.4Z"/><path class="cls-3" d="M269.36,66a1.32,1.32,0,0,1,1.81-.37l2.32,1.53L275,64.85a1.3,1.3,0,1,1,2.18,1.43l-1.53,2.33L278,70.14a1.3,1.3,0,0,1-.82,2.38,1.18,1.18,0,0,1-.61-.21l-2.32-1.53-1.54,2.33a1.3,1.3,0,0,1-1.2.58,1.4,1.4,0,0,1-.6-.21,1.3,1.3,0,0,1-.37-1.81l1.53-2.32-2.33-1.53A1.32,1.32,0,0,1,269.36,66Z"/><line class="cls-4" x1="287.42" y1="250.88" x2="308.42" y2="250.88"/><line class="cls-4" x1="61.85" y1="250.88" x2="266.44" y2="250.88"/><path class="cls-5" d="M160.16,43.25h0a19.66,19.66,0,0,1,19.66,19.66V202a19.66,19.66,0,0,1-19.66,19.66h0A60.47,60.47,0,0,1,99.7,161.15V103.72a60.47,60.47,0,0,1,60.47-60.47Z"/><path class="cls-6" d="M278.24,143.07c0,9.82-17,16.83-19.87,25.69-3,9.18,6.54,24.82,1,32.46s-23.47,3.46-31.19,9.08-9.08,23.89-18.26,26.87c-8.86,2.87-20.76-11-30.57-11s-21.72,13.88-30.58,11c-9.18-3-10.62-21.31-18.26-26.87s-25.57-1.36-31.19-9.08,4-23.28,1-32.46c-2.87-8.86-19.87-15.87-19.87-25.69s17-16.83,19.87-25.68c3-9.18-6.54-24.83-1-32.47s23.47-3.46,31.19-9.08S139.57,52,148.75,49c8.86-2.88,20.76,11,30.58,11S201,46.1,209.9,49c9.18,3,10.62,21.3,18.26,26.86s25.57,1.37,31.19,9.08-4,23.29-1,32.47C261.24,126.24,278.24,133.25,278.24,143.07Z"/><path class="cls-7" d="M278.24,143.07c0,9.82-17,16.83-19.87,25.69-3,9.18,6.54,24.82,1,32.46s-23.47,3.46-31.19,9.08-9.08,23.89-18.26,26.87c-8.86,2.87-20.76-11-30.57-11s-21.72,13.88-30.58,11c-9.18-3-10.62-21.31-18.26-26.87s-25.57-1.36-31.19-9.08,4-23.28,1-32.46c-2.87-8.86-19.87-15.87-19.87-25.69s17-16.83,19.87-25.68c3-9.18-6.54-24.83-1-32.47s23.47-3.46,31.19-9.08S139.57,52,148.75,49c8.86-2.88,20.76,11,30.58,11S201,46.1,209.9,49c9.18,3,10.62,21.3,18.26,26.86s25.57,1.37,31.19,9.08-4,23.29-1,32.47C261.24,126.24,278.24,133.25,278.24,143.07Z"/><circle class="cls-8" cx="179.33" cy="143.07" r="58.56"/><text class="cls-9" transform="translate(145.9 177.77)">%</text><circle class="cls-3" cx="66.05" cy="182.09" r="4.13"/><circle class="cls-3" cx="68.05" cy="182.09" r="4.13"/><circle class="cls-3" cx="299.05" cy="181.09" r="4.13"/><path class="cls-5" d="M142.79,39.42h17.66a19.66,19.66,0,0,1,19.66,19.66V224.41a19.66,19.66,0,0,1-19.66,19.66H142.79A60.47,60.47,0,0,1,82.33,183.6V99.89a60.47,60.47,0,0,1,60.47-60.47Z"/></g></g></g></svg>