<svg xmlns="http://www.w3.org/2000/svg" viewBox="0 0 340 340"><defs><style>.cls-1{isolation:isolate;}.cls-2,.cls-8{fill:#fff;}.cls-3{fill:#01d5d5;stroke-width:4.93px;}.cls-3,.cls-5,.cls-6,.cls-7{stroke:#131662;stroke-miterlimit:10;}.cls-3,.cls-7{stroke-linecap:round;}.cls-4,.cls-5{fill:#131662;}.cls-5{stroke-width:2.25px;}.cls-6{fill:#eaad00;stroke-width:3px;}.cls-7{fill:none;stroke-width:6.73px;}.cls-8{opacity:0.88;mix-blend-mode:soft-light;}</style></defs><g class="cls-1"><g id="Layer_2" data-name="Layer 2"><g id="Layer_1-2" data-name="Layer 1"><circle class="cls-2" cx="170" cy="170" r="170"/><rect class="cls-3" x="102.61" y="76.07" width="139.23" height="162.33" rx="4.03"/><rect class="cls-4" x="122.82" y="107.11" width="49.18" height="2.34"/><rect class="cls-4" x="123" y="122.52" width="97.31" height="2.34"/><rect class="cls-4" x="123" y="136.94" width="97.31" height="2.34"/><rect class="cls-4" x="123" y="151.35" width="97.31" height="2.34"/><rect class="cls-4" x="123" y="165.77" width="97.31" height="2.34"/><rect class="cls-4" x="123" y="180.18" width="97.31" height="2.34"/><rect class="cls-5" x="123.97" y="219.04" width="97.78" height="1.01"/><circle class="cls-6" cx="213" cy="97" r="9"/><path class="cls-4" d="M77.18,81.67a2.87,2.87,0,0,0-4.05-.2l-4.54,4.1L64.49,81a2.87,2.87,0,1,0-4.25,3.85l4.1,4.53L59.8,93.52a2.87,2.87,0,0,0,2.6,4.91,2.91,2.91,0,0,0,1.25-.66l4.54-4.11,4.1,4.54a2.86,2.86,0,0,0,2.8.87,2.91,2.91,0,0,0,1.25-.66,2.87,2.87,0,0,0,.2-4l-4.11-4.54L77,85.72A2.86,2.86,0,0,0,77.18,81.67Z"/><path class="cls-4" d="M288.8,84.49a2.87,2.87,0,0,0-4.05-.21l-4.54,4.11-4.1-4.54a2.86,2.86,0,0,0-4.25,3.84l4.1,4.54-4.54,4.11a2.87,2.87,0,0,0,2.6,4.91,2.91,2.91,0,0,0,1.25-.66l4.53-4.11,4.11,4.54a2.86,2.86,0,0,0,4.25-3.84l-4.11-4.54,4.54-4.11A2.85,2.85,0,0,0,288.8,84.49Z"/><path class="cls-4" d="M86.2,49.73a1.29,1.29,0,0,0-1.78-.37l-2.3,1.52-1.51-2.3A1.29,1.29,0,1,0,78.46,50L80,52.29l-2.3,1.51a1.3,1.3,0,0,0-.37,1.79,1.28,1.28,0,0,0,1.19.57,1.24,1.24,0,0,0,.6-.21l2.29-1.51,1.52,2.3a1.26,1.26,0,0,0,1.18.57,1.23,1.23,0,0,0,.6-.2,1.3,1.3,0,0,0,.37-1.79L83.53,53l2.3-1.52A1.29,1.29,0,0,0,86.2,49.73Z"/><path class="cls-4" d="M261.81,56.83a1.29,1.29,0,0,1,1.78-.37l2.3,1.52,1.51-2.3a1.29,1.29,0,1,1,2.15,1.41L268,59.39l2.29,1.51a1.29,1.29,0,0,1-.82,2.36,1.21,1.21,0,0,1-.59-.21l-2.3-1.51-1.51,2.3a1.28,1.28,0,0,1-1.19.57,1.19,1.19,0,0,1-.59-.2,1.29,1.29,0,0,1-.37-1.79l1.51-2.29-2.3-1.52A1.29,1.29,0,0,1,261.81,56.83Z"/><line class="cls-7" x1="273.25" y1="238.42" x2="293.98" y2="238.42"/><line class="cls-7" x1="50.47" y1="238.42" x2="252.53" y2="238.42"/><rect class="cls-8" x="69.18" y="75" width="106.45" height="163.96" rx="10.9"/></g></g></g></svg>