<svg xmlns="http://www.w3.org/2000/svg" viewBox="0 0 368.33 297.73"><defs><style>.cls-1{isolation:isolate;}.cls-2{fill:#d4fffe;}.cls-3{fill:#131662;}.cls-4{fill:#d1f2f1;}.cls-5{fill:#eaad00;}.cls-6{fill:#01d5d5;}.cls-7{fill:#c6f4f3;}.cls-8{fill:#fff;opacity:0.88;mix-blend-mode:soft-light;}.cls-9{fill:none;stroke:#131662;stroke-linecap:round;stroke-miterlimit:10;stroke-width:7.22px;}</style></defs><g class="cls-1"><g id="Layer_2" data-name="Layer 2"><g id="Layer_1-2" data-name="Layer 1"><path class="cls-2" d="M120,4.87C94.72,14.85,80,40.58,61,59.89c-11,11.12-23.7,20.29-34.9,31S4.8,114.6,1.39,129.85C-5.1,158.66,13,186.83,17.78,216c1.55,9.34,1.63,18.91,4.63,27.84A63,63,0,0,0,33.61,263c19.23,23.38,50.07,36.6,80.27,34.58,20-1.3,39-8.85,59-9.66,30-1.22,60.46,12.74,89.6,5.35,13.39-3.4,25.32-11.2,36.84-19,22.73-15.58,46.34-34.65,51.62-61.68,3.89-19.88-3-40.82,1.78-60.46,2.84-11.36,9.42-21.51,12.83-32.71,7.38-23.78-.49-50.8-17.29-69.22S306.87,21.59,282.12,19.4c-16.32-1.46-32.63.32-48.94.08C193.41,18.67,161.27-11.52,120,4.87Z"/><path class="cls-3" d="M201,136.9a3.62,3.62,0,1,0-5.12.22A3.62,3.62,0,0,0,201,136.9Z"/><path class="cls-3" d="M244.83,83.79a18.1,18.1,0,1,0,1.1,25.58A18.09,18.09,0,0,0,244.83,83.79Zm-4.23,20.68a10.86,10.86,0,1,1-.66-15.34A10.88,10.88,0,0,1,240.6,104.47Z"/><path class="cls-3" d="M285.18,43.78a3.63,3.63,0,0,0-3.9-3.59,161.31,161.31,0,0,0-43,10.84C220,58.37,204.91,68.41,193.48,80.86c-2.57,2.79-5,5.73-7.41,8.79-12.11-6.45-21.49-3.87-27.32-.41-13.46,8-21.13,28.33-20.52,42.64a3.61,3.61,0,0,0,2.37,3.25,3.57,3.57,0,0,0,1.4.22,3.62,3.62,0,0,0,2.51-1.17,23.06,23.06,0,0,1,18.88-7.24l1.32,1.21A127.64,127.64,0,0,0,159.48,146a10.22,10.22,0,0,0,.71,6.26,34.33,34.33,0,0,0-9.48,7.3c-8.91,9.71-9.84,32.48-9.88,33.44a3.64,3.64,0,0,0,3.78,3.75l.28,0c1-.12,23.57-3,32.48-12.68A33.74,33.74,0,0,0,183.83,174a10.2,10.2,0,0,0,6.31.17,128.93,128.93,0,0,0,17.32-6.72l1.32,1.21A23,23,0,0,1,203.16,188a3.63,3.63,0,0,0,2.83,6.07c14.31-.61,34-10,40.74-24.08,3-6.11,4.73-15.67-2.73-27.18,2.83-2.61,5.57-5.34,8.12-8.13,11.45-12.45,20.16-28.31,25.92-47.13A160.26,160.26,0,0,0,285.18,43.78Zm-139.2,80c1.79-11,7.8-23.18,16.45-28.29,5.79-3.42,12.27-3.38,19.3.09A147,147,0,0,0,167.58,121a3.68,3.68,0,0,0-2-1A31,31,0,0,0,146,123.76ZM172,179.12c-4.76,5.19-16.31,8.31-23.65,9.69.77-7.42,2.9-19.19,7.66-24.38a26.06,26.06,0,0,1,9-6.48l12.68,11.65A26,26,0,0,1,172,179.12Zm16-11.92a3.4,3.4,0,0,1-3.2-.89L178,160h0s0,0,0,0l0,0-.09-.09,0,0-.08-.08,0,0-.12-.09s0,0,0,0l0,0,0,0,0,0s0,0-.06-.05,0,0-.06-.05l-.1-.11-9.5-8.73a3.38,3.38,0,0,1-1.17-3.11,118.93,118.93,0,0,1,3.93-14l31.17,28.64A116.65,116.65,0,0,1,188.05,167.2Zm52.16-.31c-4.36,9.06-16,16.09-26.8,18.8,3.2-6.67,3.61-15,2.13-20a3.78,3.78,0,0,0-1.18-1.78,145.77,145.77,0,0,0,24.12-16.25C242.54,154.39,243.12,160.84,240.21,166.89Zm6.59-37.07a129.1,129.1,0,0,1-10,9.8,138.88,138.88,0,0,1-28.07,19.1l-35.45-32.55a138.93,138.93,0,0,1,16.64-29.59,132.67,132.67,0,0,1,8.92-10.83c10.26-11.17,23.72-20.28,40-27.13l31.6,29C265,104.46,257.06,118.65,246.8,129.82ZM272.71,79.9,246.35,55.7a162.45,162.45,0,0,1,31.46-7.81A163.46,163.46,0,0,1,272.71,79.9Z"/><path class="cls-4" d="M201.66,162.1a116.65,116.65,0,0,1-13.61,5.1,3.4,3.4,0,0,1-3.2-.89L178,160h0s0,0,0,0l0,0-.09-.09,0,0-.08-.08,0,0-.12-.09s0,0,0,0l0,0,0,0,0,0s0,0-.06-.05,0,0-.06-.05l-.1-.11-9.5-8.73a3.38,3.38,0,0,1-1.17-3.11,118.93,118.93,0,0,1,3.93-14Z"/><path class="cls-5" d="M177.73,169.6a26,26,0,0,1-5.69,9.52c-4.76,5.19-16.31,8.31-23.65,9.69.77-7.42,2.9-19.19,7.66-24.38a26.06,26.06,0,0,1,9-6.48Z"/><path class="cls-6" d="M277.81,47.89a163.46,163.46,0,0,1-5.1,32L246.35,55.7A162.45,162.45,0,0,1,277.81,47.89Z"/><path class="cls-6" d="M240.21,166.89c-4.36,9.06-16,16.09-26.8,18.8,3.2-6.67,3.61-15,2.13-20a3.78,3.78,0,0,0-1.18-1.78,145.77,145.77,0,0,0,24.12-16.25C242.54,154.39,243.12,160.84,240.21,166.89Z"/><path class="cls-6" d="M181.73,95.56A147,147,0,0,0,167.58,121a3.68,3.68,0,0,0-2-1A31,31,0,0,0,146,123.76c1.79-11,7.8-23.18,16.45-28.29C168.22,92.05,174.7,92.09,181.73,95.56Z"/><path class="cls-6" d="M238.83,58.62c-16.3,6.85-29.76,16-40,27.13a132.67,132.67,0,0,0-8.92,10.83,138.93,138.93,0,0,0-16.64,29.59l35.45,32.55a138.88,138.88,0,0,0,28.07-19.1,129.1,129.1,0,0,0,10-9.8c10.26-11.17,18.2-25.36,23.63-42.19Zm7.1,50.75a18.1,18.1,0,1,1-1.1-25.58A18.13,18.13,0,0,1,245.93,109.37Z"/><path class="cls-7" d="M240.6,104.47a10.86,10.86,0,1,1-.66-15.34A10.88,10.88,0,0,1,240.6,104.47Z"/><path class="cls-3" d="M183.58,209.37l9.79-10.66a3.62,3.62,0,1,0-5.33-4.9l-9.8,10.67a3.62,3.62,0,0,0,5.34,4.89Z"/><path class="cls-3" d="M95.39,253.51l9.8-10.66a3.62,3.62,0,0,0-5.34-4.9l-9.79,10.67a3.62,3.62,0,0,0,5.33,4.89Z"/><path class="cls-3" d="M130.25,160.4l9.8-10.66a3.62,3.62,0,0,0-5.33-4.9l-9.8,10.67a3.62,3.62,0,1,0,5.33,4.89Z"/><path class="cls-3" d="M162.68,200l-23.45,25.53a3.62,3.62,0,1,0,5.33,4.9L168,204.91a3.62,3.62,0,0,0-5.34-4.89Z"/><path class="cls-3" d="M133.75,201.25,110.3,226.79a3.62,3.62,0,1,0,5.33,4.89l23.45-25.54a3.62,3.62,0,1,0-5.33-4.89Z"/><path class="cls-3" d="M112.57,201.07,136,175.53a3.62,3.62,0,0,0-5.33-4.9l-23.45,25.54a3.62,3.62,0,1,0,5.33,4.9Z"/><path class="cls-3" d="M210.78,126.23l4.89-5.33a3.62,3.62,0,1,0-5.33-4.89l-4.89,5.33a3.62,3.62,0,1,0,5.33,4.89Z"/><path class="cls-3" d="M130.81,45a2.55,2.55,0,0,0-2.6-2.49l-5.44.14-.13-5.44a2.55,2.55,0,0,0-5.09.12l.13,5.44-5.43.13a2.54,2.54,0,0,0-1.1,4.81,2.49,2.49,0,0,0,1.22.28l5.43-.13.13,5.43a2.57,2.57,0,0,0,1.39,2.21,2.54,2.54,0,0,0,3.7-2.33l-.13-5.43,5.44-.14A2.53,2.53,0,0,0,130.81,45Z"/><path class="cls-3" d="M324.27,165.51a2.54,2.54,0,0,0-2.61-2.48l-5.43.13-.13-5.44a2.55,2.55,0,1,0-5.09.13l.13,5.43-5.44.13a2.55,2.55,0,0,0-1.1,4.82,2.66,2.66,0,0,0,1.22.27l5.44-.13.13,5.44a2.56,2.56,0,0,0,2.61,2.48,2.54,2.54,0,0,0,2.48-2.6l-.13-5.44,5.44-.13A2.55,2.55,0,0,0,324.27,165.51Z"/><path class="cls-3" d="M155.41,28.68a1.14,1.14,0,0,0-1-1.28L152,27.08l.32-2.42a1.14,1.14,0,0,0-2.27-.3l-.32,2.43-2.42-.32a1.15,1.15,0,0,0-.82,2.07,1.17,1.17,0,0,0,.53.2l2.42.32-.32,2.42a1.14,1.14,0,0,0,.47,1.07,1.08,1.08,0,0,0,.52.21,1.14,1.14,0,0,0,1.28-1l.32-2.42,2.42.31A1.13,1.13,0,0,0,155.41,28.68Z"/><circle class="cls-3" cx="322.67" cy="130.28" r="3.42"/><ellipse class="cls-8" cx="211.62" cy="95.5" rx="85.42" ry="39.21" transform="translate(-0.04 190.91) rotate(-48.55)"/><line class="cls-9" x1="285.16" y1="251.88" x2="307.41" y2="251.88"/><line class="cls-9" x1="46.14" y1="251.88" x2="262.93" y2="251.88"/></g></g></g></svg>