<svg xmlns="http://www.w3.org/2000/svg" viewBox="0 0 368.33 297.73"><defs><style>.cls-1{isolation:isolate;}.cls-2{fill:#d4fffe;}.cls-3{fill:none;stroke-linecap:round;stroke-width:7.22px;}.cls-3,.cls-5,.cls-6{stroke:#131662;stroke-miterlimit:10;}.cls-4,.cls-7{fill:#131662;}.cls-5,.cls-6{fill:#01d5d5;}.cls-5{stroke-width:4.6px;}.cls-6{stroke-width:5.29px;}.cls-7{font-size:34.19px;font-family:Roboto-Medium, Roboto;font-weight:500;}.cls-8{fill:#fff;opacity:0.88;mix-blend-mode:soft-light;}</style></defs><g class="cls-1"><g id="Layer_2" data-name="Layer 2"><g id="Layer_1-2" data-name="Layer 1"><path class="cls-2" d="M120,4.87C94.72,14.85,80,40.58,61,59.89c-11,11.12-23.7,20.29-34.9,31S4.8,114.6,1.39,129.85C-5.1,158.66,13,186.83,17.78,216c1.55,9.34,1.63,18.91,4.63,27.84A63,63,0,0,0,33.61,263c19.23,23.38,50.07,36.6,80.27,34.58,20-1.3,39-8.85,59-9.66,30-1.22,60.46,12.74,89.6,5.35,13.39-3.4,25.32-11.2,36.84-19,22.73-15.58,46.34-34.65,51.62-61.68,3.89-19.88-3-40.82,1.78-60.46,2.84-11.36,9.42-21.51,12.83-32.71,7.38-23.78-.49-50.8-17.29-69.22S306.87,21.59,282.12,19.4c-16.32-1.46-32.63.32-48.94.08C193.41,18.67,161.27-11.52,120,4.87Z"/><line class="cls-3" x1="295.39" y1="243.71" x2="317.64" y2="243.71"/><line class="cls-3" x1="56.37" y1="243.71" x2="273.16" y2="243.71"/><path class="cls-4" d="M73.94,106.41a3.07,3.07,0,0,0-4.34-.22l-4.88,4.4-4.4-4.87a3.08,3.08,0,0,0-4.56,4.13l4.41,4.87-4.87,4.4a3.08,3.08,0,0,0,2.79,5.27,3.13,3.13,0,0,0,1.33-.71l4.87-4.4,4.4,4.86a3.07,3.07,0,0,0,3,.93,3,3,0,0,0,1.33-.71,3.07,3.07,0,0,0,.22-4.34l-4.4-4.87,4.87-4.4A3.08,3.08,0,0,0,73.94,106.41Z"/><path class="cls-4" d="M319.85,119.4a3.07,3.07,0,0,0-4.34-.22l-4.87,4.4-4.41-4.87a3.08,3.08,0,1,0-4.56,4.13l4.41,4.87-4.87,4.4a3.08,3.08,0,0,0,2.79,5.27,3.13,3.13,0,0,0,1.33-.71l4.87-4.4,4.4,4.86a3.07,3.07,0,0,0,3,.93,3,3,0,0,0,1.33-.71,3.07,3.07,0,0,0,.22-4.34l-4.4-4.87,4.87-4.4A3.07,3.07,0,0,0,319.85,119.4Z"/><path class="cls-4" d="M97.62,63.14a1.38,1.38,0,0,0-1.92-.39l-2.46,1.62L91.62,61.9a1.38,1.38,0,0,0-2.31,1.52l1.62,2.47-2.46,1.62a1.38,1.38,0,0,0-.4,1.91,1.39,1.39,0,0,0,1.92.4l2.46-1.63,1.62,2.47a1.39,1.39,0,0,0,1.27.62,1.34,1.34,0,0,0,.64-.23,1.38,1.38,0,0,0,.4-1.91l-1.62-2.46,2.46-1.63A1.38,1.38,0,0,0,97.62,63.14Z"/><circle class="cls-4" cx="297.62" cy="68.43" r="4.13"/><path class="cls-5" d="M216.93,116.77,148.21,97.93c-12.14-3.33-24.17,1.93-26.87,11.75l-25,91.24L209,231.82l25-91.24C236.74,130.76,229.08,120.1,216.93,116.77ZM171.61,145c-8.28-2.27-13.5-9.53-11.67-16.22s10-10.28,18.31-8,13.5,9.53,11.67,16.22S179.89,147.25,171.61,145Z"/><path class="cls-6" d="M217.65,55.68H146.4c-12.59,0-22.81,10.94-22.81,24.43V205.49H240.46V80.11C240.46,66.62,230.25,55.68,217.65,55.68ZM181.4,107.61c-8.58,0-15.54-7.45-15.54-16.64s7-16.65,15.54-16.65S197,81.77,197,91,190,107.61,181.4,107.61Z"/><text class="cls-7" transform="translate(142.66 145.6)">SALE</text><rect class="cls-4" x="131.05" y="157.94" width="100.7" height="3.29" rx="1.64"/><rect class="cls-4" x="131.05" y="168.44" width="100.7" height="3.29" rx="1.64"/><rect class="cls-4" x="131.05" y="179.01" width="100.7" height="3.29" rx="1.64"/><rect class="cls-8" x="179.59" y="57.07" width="70.73" height="144"/></g></g></g></svg>