<svg xmlns="http://www.w3.org/2000/svg" viewBox="0 0 368.33 297.73"><defs><style>.cls-1{isolation:isolate;}.cls-2{fill:#d4fffe;}.cls-3{fill:#01d5d5;stroke-width:4.93px;}.cls-3,.cls-5,.cls-6,.cls-8{stroke:#131662;stroke-miterlimit:10;}.cls-3,.cls-8{stroke-linecap:round;}.cls-4,.cls-5,.cls-7{fill:#131662;}.cls-5{stroke-width:2.25px;}.cls-6{fill:#eaad00;stroke-width:3px;}.cls-7{font-size:60.2px;font-family:Roboto-Medium, Roboto;font-weight:500;}.cls-8{fill:none;stroke-width:6.73px;}.cls-9{fill:#fff;opacity:0.88;mix-blend-mode:soft-light;}</style></defs><g class="cls-1"><g id="Layer_2" data-name="Layer 2"><g id="Layer_1-2" data-name="Layer 1"><path class="cls-2" d="M120,4.87C94.72,14.85,80,40.58,61,59.89c-11,11.12-23.7,20.29-34.9,31S4.8,114.6,1.39,129.85C-5.1,158.66,13,186.83,17.78,216c1.55,9.34,1.63,18.91,4.63,27.84A63,63,0,0,0,33.61,263c19.23,23.38,50.07,36.6,80.27,34.58,20-1.3,39-8.85,59-9.66,30-1.22,60.46,12.74,89.6,5.35,13.39-3.4,25.32-11.2,36.84-19,22.73-15.58,46.34-34.65,51.62-61.68,3.89-19.88-3-40.82,1.78-60.46,2.84-11.36,9.42-21.51,12.83-32.71,7.38-23.78-.49-50.8-17.29-69.22S306.87,21.59,282.12,19.4c-16.32-1.46-32.63.32-48.94.08C193.41,18.67,161.27-11.52,120,4.87Z"/><rect class="cls-3" x="113.94" y="88.14" width="139.23" height="162.33" rx="4.03"/><rect class="cls-4" x="134.15" y="119.18" width="49.18" height="2.34"/><rect class="cls-5" x="135.3" y="231.11" width="97.78" height="1.01"/><rect class="cls-5" x="134.3" y="135.11" width="97.78" height="1.01"/><circle class="cls-6" cx="224.33" cy="109.07" r="9"/><text class="cls-7" transform="translate(138.45 202.57)">ESI</text><path class="cls-4" d="M88.5,93.74a2.86,2.86,0,0,0-4-.2l-4.54,4.1L75.81,93.1A2.87,2.87,0,0,0,71.56,97l4.11,4.54-4.54,4.1a2.87,2.87,0,0,0,2.6,4.91,2.83,2.83,0,0,0,1.24-.66l4.54-4.1,4.1,4.53a2.86,2.86,0,1,0,4.25-3.84l-4.1-4.54,4.54-4.1A2.87,2.87,0,0,0,88.5,93.74Z"/><path class="cls-4" d="M300.12,96.56a2.86,2.86,0,0,0-4-.2l-4.54,4.1-4.11-4.54a2.86,2.86,0,0,0-4.25,3.84l4.11,4.54-4.54,4.11a2.86,2.86,0,1,0,3.84,4.25l4.54-4.11,4.1,4.54A2.87,2.87,0,0,0,298,114a2.76,2.76,0,0,0,1.24-.65,2.87,2.87,0,0,0,.2-4l-4.1-4.54,4.54-4.1A2.87,2.87,0,0,0,300.12,96.56Z"/><path class="cls-4" d="M97.52,61.8a1.28,1.28,0,0,0-1.78-.36L93.44,63l-1.51-2.3a1.29,1.29,0,1,0-2.15,1.42l1.51,2.29L89,65.87a1.29,1.29,0,0,0,.82,2.36,1.19,1.19,0,0,0,.59-.2l2.3-1.52,1.51,2.3a1.27,1.27,0,0,0,1.78.37,1.29,1.29,0,0,0,.37-1.79L94.86,65.1l2.3-1.51A1.3,1.3,0,0,0,97.52,61.8Z"/><path class="cls-4" d="M273.13,68.9a1.29,1.29,0,0,1,1.78-.37l2.3,1.52,1.51-2.3a1.29,1.29,0,1,1,2.15,1.42l-1.51,2.29,2.3,1.51a1.3,1.3,0,0,1,.37,1.79,1.28,1.28,0,0,1-1.19.57,1.24,1.24,0,0,1-.6-.21L278,73.61l-1.52,2.3a1.26,1.26,0,0,1-1.18.57,1.23,1.23,0,0,1-.6-.2,1.3,1.3,0,0,1-.37-1.79l1.52-2.29-2.3-1.51A1.3,1.3,0,0,1,273.13,68.9Z"/><line class="cls-8" x1="284.57" y1="250.49" x2="305.31" y2="250.49"/><line class="cls-8" x1="61.79" y1="250.49" x2="263.85" y2="250.49"/><rect class="cls-9" x="80.5" y="87.07" width="106.45" height="163.96" rx="10.9"/></g></g></g></svg>