<svg xmlns="http://www.w3.org/2000/svg" viewBox="0 0 368.33 297.73"><defs><style>.cls-1{isolation:isolate;}.cls-2{fill:#d4fffe;}.cls-3{fill:none;stroke:#131662;stroke-linecap:round;stroke-miterlimit:10;stroke-width:7.22px;}.cls-4{fill:#131662;}.cls-5{fill:#01d4d4;}.cls-6{fill:#fff;opacity:0.88;mix-blend-mode:soft-light;}</style></defs><g class="cls-1"><g id="Layer_2" data-name="Layer 2"><g id="Layer_1-2" data-name="Layer 1"><path class="cls-2" d="M120,4.87C94.72,14.85,80,40.58,61,59.89c-11,11.12-23.7,20.29-34.9,31S4.8,114.6,1.39,129.85C-5.1,158.66,13,186.83,17.78,216c1.55,9.34,1.63,18.91,4.63,27.84A63,63,0,0,0,33.61,263c19.23,23.38,50.07,36.6,80.27,34.58,20-1.3,39-8.85,59-9.66,30-1.22,60.46,12.74,89.6,5.35,13.39-3.4,25.32-11.2,36.84-19,22.73-15.58,46.34-34.65,51.62-61.68,3.89-19.88-3-40.82,1.78-60.46,2.84-11.36,9.42-21.51,12.83-32.71,7.38-23.78-.49-50.8-17.29-69.22S306.87,21.59,282.12,19.4c-16.32-1.46-32.63.32-48.94.08C193.41,18.67,161.27-11.52,120,4.87Z"/><line class="cls-3" x1="295.39" y1="243.71" x2="317.64" y2="243.71"/><line class="cls-3" x1="56.37" y1="243.71" x2="273.16" y2="243.71"/><path class="cls-4" d="M51.94,117.41a3.07,3.07,0,0,0-4.34-.22l-4.88,4.4-4.4-4.87a3.08,3.08,0,0,0-4.56,4.13l4.41,4.87-4.87,4.4a3.08,3.08,0,0,0,2.79,5.27,3.13,3.13,0,0,0,1.33-.71l4.87-4.4,4.4,4.86a3.07,3.07,0,0,0,3,.93,3,3,0,0,0,1.33-.71,3.07,3.07,0,0,0,.22-4.34l-4.4-4.87,4.87-4.4A3.08,3.08,0,0,0,51.94,117.41Z"/><path class="cls-4" d="M330.85,130.4a3.07,3.07,0,0,0-4.34-.22l-4.87,4.4-4.41-4.87a3.08,3.08,0,1,0-4.56,4.13l4.41,4.87-4.87,4.4a3.08,3.08,0,0,0,2.79,5.27,3.13,3.13,0,0,0,1.33-.71l4.87-4.4,4.4,4.86a3.07,3.07,0,0,0,3,.93,3,3,0,0,0,1.33-.71,3.07,3.07,0,0,0,.22-4.34l-4.4-4.87,4.87-4.4A3.07,3.07,0,0,0,330.85,130.4Z"/><path class="cls-4" d="M75.62,74.14a1.38,1.38,0,0,0-1.92-.39l-2.46,1.62L69.62,72.9a1.38,1.38,0,0,0-2.31,1.52l1.62,2.47-2.46,1.62a1.38,1.38,0,0,0-.4,1.91,1.39,1.39,0,0,0,1.92.4l2.46-1.63,1.62,2.47a1.39,1.39,0,0,0,1.27.62,1.34,1.34,0,0,0,.64-.23,1.38,1.38,0,0,0,.4-1.91l-1.62-2.46,2.46-1.63A1.38,1.38,0,0,0,75.62,74.14Z"/><circle class="cls-4" cx="308.62" cy="79.43" r="4.13"/><path class="cls-4" d="M251,132.24a65.57,65.57,0,1,1-65.24-65.63C221.67,66.66,251,96.17,251,132.24ZM188.3,135v34.09h1.77c5,0,10-.06,15.06,0a2,2,0,0,0,2.24-1.52,90.46,90.46,0,0,0,5.64-23.3c.34-3.06.48-6.15.72-9.31Zm0-39.83v34.06h25.44c-.24-3-.39-5.82-.69-8.65a88.5,88.5,0,0,0-5.83-24.2,1.62,1.62,0,0,0-1.8-1.23c-3,.06-6,0-9,0Zm-5.77,34.15V95.2c-5.66,0-11.19,0-16.72,0a2,2,0,0,0-2.26,1.5,92.15,92.15,0,0,0-6.13,29c-.07,1.21,0,2.43,0,3.68ZM157.17,135c.2,2.83.33,5.51.59,8.17a90,90,0,0,0,5.78,24.52,1.91,1.91,0,0,0,2.13,1.46c4.65-.07,9.31,0,14,0h2.9V135Zm55.54,34.12c5.17,0,10.09,0,15,0a2.77,2.77,0,0,0,2.46-1.2,57.25,57.25,0,0,0,11.68-25.73c.42-2.36.59-4.76.88-7.19H219.19A102.62,102.62,0,0,1,212.71,169.12Zm-54.55,0a102.14,102.14,0,0,1-6.47-34.05H128.18c.13,1.35.22,2.59.37,3.81A56.31,56.31,0,0,0,141,168.29a2.09,2.09,0,0,0,1.35.79C147.56,169.14,152.73,169.12,158.16,169.12Zm0-73.92c-5.15,0-10,0-14.87,0a2.92,2.92,0,0,0-2.6,1.23,57.1,57.1,0,0,0-11.4,24.34c-.57,2.8-.82,5.66-1.23,8.54h23.63A101.86,101.86,0,0,1,158.18,95.2Zm61,34.11h23.37c0-.35.05-.6,0-.85a56.41,56.41,0,0,0-12.92-32.59,1.73,1.73,0,0,0-1.13-.64c-5.22,0-10.43,0-15.85,0A102.17,102.17,0,0,1,219.19,129.31Zm-31,59.16c5.38-.69,13.31-7.77,15.45-13.68H188.2v13.68Zm15.5-98.88c-2.87-6.61-11.23-13.87-15.4-13.51V89.59Zm-21.15,98.88v-13.7h-15.4C170.11,181.36,177.15,187.64,182.55,188.47Zm0-112.5c-5,.33-13.57,8-15.3,13.57h15.3Zm41.22,98.7c-4.65,0-8.86,0-13.07,0a1.17,1.17,0,0,0-.8.57,49.69,49.69,0,0,1-8.51,11.93A57.8,57.8,0,0,0,223.8,174.67Zm-55.23,12.27c-2.42-3.71-5-7.69-7.62-11.63a1.94,1.94,0,0,0-1.39-.62c-3.77,0-7.55,0-11.33,0a5.45,5.45,0,0,0-.93.2A56.84,56.84,0,0,0,168.57,186.94Zm-.06-109.48a56.85,56.85,0,0,0-21.36,12.19c4.57,0,8.71,0,12.84,0a1.5,1.5,0,0,0,1-.68C163.55,85.12,166,81.27,168.51,77.46Zm55.25,12.2a57.24,57.24,0,0,0-21.7-12.28c2.08,2.93,4.51,5.59,6,8.7s3.42,4,6.61,3.64C217.53,89.43,220.42,89.66,223.76,89.66Z"/><path class="cls-4" d="M108.23,215.74c3.76,0,7.53,0,11.29,0a4.13,4.13,0,0,1,4,5.53,4.09,4.09,0,0,1-3.93,2.76q-10.94.06-21.88,0a4,4,0,0,1-4.16-4.12q-.09-11,0-22a4,4,0,0,1,4.21-4.06,4.09,4.09,0,0,1,4,4.24c0,3.32,0,6.63,0,9.94v1.8c.62-.58,1-.91,1.34-1.26q10.44-10.41,20.86-20.84a4.13,4.13,0,0,1,5.07-1,3.9,3.9,0,0,1,2.15,4.39,6.53,6.53,0,0,1-1.64,2.72c-6.65,6.73-13.36,13.42-20.06,20.1a18.45,18.45,0,0,1-1.7,1.33Z"/><path class="cls-4" d="M101.87,54.42c0,4.32,0,8.15,0,12A4.1,4.1,0,0,1,95.68,70a4,4,0,0,1-2.08-3.59c0-7.3-.06-14.59,0-21.89a4.09,4.09,0,0,1,4.28-4.2q10.78,0,21.58,0a4.14,4.14,0,1,1,0,8.26c-3.72,0-7.44,0-11.56,0,.56.6.89,1,1.26,1.36,6.88,6.89,13.77,13.75,20.61,20.67a6.23,6.23,0,0,1,1.59,2.74,3.89,3.89,0,0,1-2.1,4.28,4.12,4.12,0,0,1-5-.85c-3.6-3.57-7.18-7.17-10.76-10.76Z"/><path class="cls-4" d="M263.06,215.74c-.64-.67-1-1.08-1.4-1.47Q251.34,204,241,193.63c-2.35-2.36-2-5.67.79-7,1.72-.83,3.45-.46,5.05,1.14q10.33,10.3,20.64,20.63c.39.39.8.77,1.39,1.33,0-.72.09-1.21.09-1.69,0-3.37,0-6.73,0-10.09a4.06,4.06,0,0,1,4-4.11,4,4,0,0,1,4.26,4q.11,11.1,0,22.19a4,4,0,0,1-4.13,4q-10.93.08-21.88,0a4.15,4.15,0,1,1,.07-8.29C255.11,215.71,258.89,215.74,263.06,215.74Z"/><path class="cls-5" d="M188.3,135h25.43c-.24,3.16-.38,6.25-.72,9.31a90.46,90.46,0,0,1-5.64,23.3,2,2,0,0,1-2.24,1.52c-5-.1-10,0-15.06,0H188.3Z"/><path class="cls-4" d="M262.7,48.62c-3.81,0-7.63,0-11.44,0a4.1,4.1,0,0,1-3.71-6,4,4,0,0,1,3.8-2.23c7.25,0,14.49-.05,21.74,0a4,4,0,0,1,4.21,4.24q.06,10.86,0,21.73A4.15,4.15,0,1,1,269,66.2c0-3.26,0-6.52,0-9.78V54.61c-.65.6-1.06,1-1.45,1.34Q257.17,66.32,246.8,76.7A4.18,4.18,0,0,1,242.43,78a3.91,3.91,0,0,1-2.84-3A4.25,4.25,0,0,1,241,70.76Q251.4,60.41,261.75,50a9.59,9.59,0,0,1,1.25-.92Z"/><path class="cls-5" d="M188.3,95.2h8.11c3,0,6,0,9,0a1.62,1.62,0,0,1,1.8,1.23,88.5,88.5,0,0,1,5.83,24.2c.3,2.83.45,5.67.69,8.65H188.3Z"/><path class="cls-5" d="M182.53,129.35H157.41c0-1.25-.06-2.47,0-3.68a92.15,92.15,0,0,1,6.13-29,2,2,0,0,1,2.26-1.5c5.53.07,11.06,0,16.72,0Z"/><path class="cls-5" d="M157.17,135h25.36v34.12h-2.9c-4.65,0-9.31,0-14,0a1.91,1.91,0,0,1-2.13-1.46,90,90,0,0,1-5.78-24.52C157.5,140.51,157.37,137.83,157.17,135Z"/><path class="cls-5" d="M212.71,169.12A102.62,102.62,0,0,0,219.19,135h23.54c-.29,2.43-.46,4.83-.88,7.19A57.25,57.25,0,0,1,230.17,168a2.77,2.77,0,0,1-2.46,1.2C222.8,169.09,217.88,169.12,212.71,169.12Z"/><path class="cls-5" d="M158.16,169.12c-5.43,0-10.6,0-15.77,0a2.09,2.09,0,0,1-1.35-.79,56.31,56.31,0,0,1-12.49-29.41c-.15-1.22-.24-2.46-.37-3.81h23.51A102.14,102.14,0,0,0,158.16,169.12Z"/><path class="cls-5" d="M158.18,95.2a101.86,101.86,0,0,0-6.47,34.08H128.08c.41-2.88.66-5.74,1.23-8.54a57.1,57.1,0,0,1,11.4-24.34,2.92,2.92,0,0,1,2.6-1.23C148.17,95.24,153,95.2,158.18,95.2Z"/><path class="cls-5" d="M219.19,129.31a102.17,102.17,0,0,0-6.5-34.11c5.42,0,10.63,0,15.85,0a1.73,1.73,0,0,1,1.13.64,56.41,56.41,0,0,1,12.92,32.59c0,.25,0,.5,0,.85Z"/><path class="cls-5" d="M188.2,188.47V174.79h15.45C201.51,180.7,193.58,187.78,188.2,188.47Z"/><path class="cls-5" d="M203.7,89.59H188.3V76.08C192.47,75.72,200.83,83,203.7,89.59Z"/><path class="cls-5" d="M182.55,188.47c-5.4-.83-12.44-7.11-15.4-13.7h15.4Z"/><path class="cls-5" d="M182.58,76V89.54h-15.3C169,84,177.61,76.3,182.58,76Z"/><path class="cls-5" d="M223.8,174.67a57.8,57.8,0,0,1-22.38,12.53,49.69,49.69,0,0,0,8.51-11.93,1.17,1.17,0,0,1,.8-.57C214.94,174.66,219.15,174.67,223.8,174.67Z"/><path class="cls-5" d="M168.57,186.94a56.84,56.84,0,0,1-21.27-12.06,5.45,5.45,0,0,1,.93-.2c3.78,0,7.56,0,11.33,0a1.94,1.94,0,0,1,1.39.62C163.58,179.25,166.15,183.23,168.57,186.94Z"/><path class="cls-5" d="M168.51,77.46c-2.47,3.81-5,7.66-7.48,11.48a1.5,1.5,0,0,1-1,.68c-4.13,0-8.27,0-12.84,0A56.85,56.85,0,0,1,168.51,77.46Z"/><path class="cls-5" d="M223.76,89.66c-3.34,0-6.23-.23-9.07.06-3.19.31-5.11-.57-6.61-3.64s-3.94-5.77-6-8.7A57.24,57.24,0,0,1,223.76,89.66Z"/><path class="cls-6" d="M183.59,59.07h11.72a59,59,0,0,1,59,59v26a59,59,0,0,1-59,59H183.59a0,0,0,0,1,0,0v-144A0,0,0,0,1,183.59,59.07Z"/></g></g></g></svg>