<svg xmlns="http://www.w3.org/2000/svg" xmlns:xlink="http://www.w3.org/1999/xlink" viewBox="0 0 368.33 297.73"><defs><style>.cls-1{filter:url(#luminosity-noclip);}.cls-2{isolation:isolate;}.cls-3{fill:#d4fffe;}.cls-4{fill:#131662;}.cls-5{fill:none;stroke-width:7.22px;}.cls-5,.cls-6{stroke:#131662;stroke-linecap:round;stroke-miterlimit:10;}.cls-6{fill:#01d5d5;stroke-width:5px;}.cls-7{mask:url(#mask);}.cls-8,.cls-9{fill:#fff;}.cls-9{opacity:0.88;mix-blend-mode:soft-light;}</style><filter id="luminosity-noclip" x="116.74" y="128.44" width="153.67" height="118.42" filterUnits="userSpaceOnUse" color-interpolation-filters="sRGB"><feFlood flood-color="#fff" result="bg"/><feBlend in="SourceGraphic" in2="bg"/></filter><mask id="mask" x="116.74" y="128.44" width="153.67" height="118.42" maskUnits="userSpaceOnUse"><path class="cls-1" d="M231,246.86a39.44,39.44,0,1,1,39.43-39.43A39.48,39.48,0,0,1,231,246.86Z"/></mask></defs><g class="cls-2"><g id="Layer_2" data-name="Layer 2"><g id="Layer_1-2" data-name="Layer 1"><path class="cls-3" d="M120,4.87C94.72,14.85,80,40.58,61,59.89c-11,11.12-23.7,20.29-34.9,31S4.8,114.6,1.39,129.85C-5.1,158.66,13,186.83,17.78,216c1.55,9.34,1.63,18.91,4.63,27.84A63,63,0,0,0,33.61,263c19.23,23.38,50.07,36.6,80.27,34.58,20-1.3,39-8.85,59-9.66,30-1.22,60.46,12.74,89.6,5.35,13.39-3.4,25.32-11.2,36.84-19,22.73-15.58,46.34-34.65,51.62-61.68,3.89-19.88-3-40.82,1.78-60.46,2.84-11.36,9.42-21.51,12.83-32.71,7.38-23.78-.49-50.8-17.29-69.22S306.87,21.59,282.12,19.4c-16.32-1.46-32.63.32-48.94.08C193.41,18.67,161.27-11.52,120,4.87Z"/><path class="cls-4" d="M56.18,107.43a3.07,3.07,0,0,0-4.34-.22L47,111.62l-4.4-4.87A3.07,3.07,0,1,0,38,110.87l4.4,4.87-4.87,4.4a3.08,3.08,0,0,0,2.79,5.27,3.12,3.12,0,0,0,1.34-.71l4.86-4.4,4.41,4.87a3.08,3.08,0,0,0,3,.92,3,3,0,0,0,1.33-.7A3.08,3.08,0,0,0,55.5,121l-4.41-4.86L56,111.77A3.07,3.07,0,0,0,56.18,107.43Z"/><path class="cls-4" d="M323.09,108.42a3.07,3.07,0,0,0-4.34-.22l-4.87,4.41-4.4-4.87a3.07,3.07,0,0,0-4.56,4.12l4.4,4.87-4.87,4.4a3.08,3.08,0,0,0-.21,4.34,3.07,3.07,0,0,0,4.34.22l4.87-4.4,4.4,4.87a3.08,3.08,0,0,0,3,.92,3,3,0,0,0,1.33-.7,3.08,3.08,0,0,0,.22-4.35L318,117.16l4.87-4.4A3.07,3.07,0,0,0,323.09,108.42Z"/><path class="cls-4" d="M76.86,73.16A1.38,1.38,0,0,0,75,72.77l-2.47,1.62-1.62-2.46a1.38,1.38,0,0,0-2.31,1.51l1.63,2.47-2.47,1.62a1.38,1.38,0,0,0,.88,2.53,1.4,1.4,0,0,0,.64-.22l2.47-1.62,1.62,2.46a1.38,1.38,0,0,0,1.27.62,1.31,1.31,0,0,0,.64-.23,1.37,1.37,0,0,0,.39-1.91L74,76.7l2.47-1.62A1.39,1.39,0,0,0,76.86,73.16Z"/><line class="cls-5" x1="294.09" y1="252.59" x2="316.34" y2="252.59"/><line class="cls-5" x1="55.07" y1="252.59" x2="271.86" y2="252.59"/><circle class="cls-4" cx="293.87" cy="77.45" r="4.13"/><circle class="cls-6" cx="176" cy="88.52" r="36.45"/><polygon class="cls-4" points="185.97 228.34 167.23 228.34 169.39 137.52 182.37 137.52 185.97 228.34"/><rect class="cls-4" x="167.04" y="130.94" width="17.93" height="10.25" rx="4.49"/><g class="cls-7"><path class="cls-6" d="M234,232.52H119.24V158.16c0-15,13.76-27.22,30.74-27.22l26.92,75,26.32-75c17,0,30.74,12.19,30.74,27.22Z"/></g><circle class="cls-4" cx="233.96" cy="208.62" r="36.45"/><path class="cls-8" d="M248.3,190H237.15a10.13,10.13,0,0,1,3.78,6.9h7.37v3.38H241c-.67,6.89-6.15,11.29-14.8,11.56,5.27,5.47,11,12.37,16.69,19.33h-6.48c-5.28-6.36-10.21-12.24-16.57-19V208h3.72c7.3,0,11.22-3,11.7-7.7H219.84v-3.38h15.21c-.94-3.92-4.53-5.88-10.41-5.88h-4.8v-4.4H248.3Z"/><rect class="cls-9" x="100.33" y="40.07" width="79.31" height="197.98" rx="10.9"/></g></g></g></svg>