<svg xmlns="http://www.w3.org/2000/svg" viewBox="0 0 368.33 297.73"><defs><style>.cls-1{isolation:isolate;}.cls-2{fill:#d4fffe;}.cls-3{fill:#131662;}.cls-4,.cls-6,.cls-7{fill:none;}.cls-4,.cls-6,.cls-7,.cls-8{stroke:#131662;stroke-linecap:round;stroke-miterlimit:10;}.cls-4{stroke-width:7.22px;}.cls-5{fill:#fff;opacity:0.88;mix-blend-mode:soft-light;}.cls-6{stroke-width:6.41px;}.cls-7{stroke-width:9.26px;}.cls-8{fill:#01d5d5;stroke-width:2.03px;}</style></defs><g class="cls-1"><g id="Layer_2" data-name="Layer 2"><g id="Layer_1-2" data-name="Layer 1"><path class="cls-2" d="M120,4.87C94.72,14.85,80,40.58,61,59.89c-11,11.12-23.7,20.29-34.9,31S4.8,114.6,1.39,129.85C-5.1,158.66,13,186.83,17.78,216c1.55,9.34,1.63,18.91,4.63,27.84A63,63,0,0,0,33.61,263c19.23,23.38,50.07,36.6,80.27,34.58,20-1.3,39-8.85,59-9.66,30-1.22,60.46,12.74,89.6,5.35,13.39-3.4,25.32-11.2,36.84-19,22.73-15.58,46.34-34.65,51.62-61.68,3.89-19.88-3-40.82,1.78-60.46,2.84-11.36,9.42-21.51,12.83-32.71,7.38-23.78-.49-50.8-17.29-69.22S306.87,21.59,282.12,19.4c-16.32-1.46-32.63.32-48.94.08C193.41,18.67,161.27-11.52,120,4.87Z"/><path class="cls-3" d="M56.18,107.43a3.07,3.07,0,0,0-4.34-.22L47,111.62l-4.4-4.87A3.07,3.07,0,1,0,38,110.87l4.4,4.87-4.87,4.4a3.08,3.08,0,0,0,2.79,5.27,3.12,3.12,0,0,0,1.34-.71l4.86-4.4,4.41,4.87a3.08,3.08,0,0,0,3,.92,3,3,0,0,0,1.33-.7A3.08,3.08,0,0,0,55.5,121l-4.41-4.86L56,111.77A3.07,3.07,0,0,0,56.18,107.43Z"/><path class="cls-3" d="M323.09,108.42a3.07,3.07,0,0,0-4.34-.22l-4.87,4.41-4.4-4.87a3.07,3.07,0,0,0-4.56,4.12l4.4,4.87-4.87,4.4a3.08,3.08,0,0,0-.21,4.34,3.07,3.07,0,0,0,4.34.22l4.87-4.4,4.4,4.87a3.08,3.08,0,0,0,3,.92,3,3,0,0,0,1.33-.7,3.08,3.08,0,0,0,.22-4.35L318,117.16l4.87-4.4A3.07,3.07,0,0,0,323.09,108.42Z"/><path class="cls-3" d="M76.86,73.16A1.38,1.38,0,0,0,75,72.77l-2.47,1.62-1.62-2.46a1.38,1.38,0,0,0-2.31,1.51l1.63,2.47-2.47,1.62a1.38,1.38,0,0,0,.88,2.53,1.4,1.4,0,0,0,.64-.22l2.47-1.62,1.62,2.46a1.38,1.38,0,0,0,1.27.62,1.31,1.31,0,0,0,.64-.23,1.37,1.37,0,0,0,.39-1.91L74,76.7l2.47-1.62A1.39,1.39,0,0,0,76.86,73.16Z"/><line class="cls-4" x1="294.09" y1="252.59" x2="316.34" y2="252.59"/><line class="cls-4" x1="55.07" y1="252.59" x2="271.86" y2="252.59"/><circle class="cls-3" cx="293.87" cy="77.45" r="4.13"/><rect class="cls-5" x="100.33" y="40.07" width="79.31" height="197.98" rx="10.9"/><circle class="cls-6" cx="193.15" cy="120.13" r="52"/><rect class="cls-3" x="116.34" y="171.4" width="21.37" height="56.63" transform="translate(156.16 -35.17) rotate(39.53)"/><line class="cls-7" x1="157.29" y1="163.04" x2="140.51" y2="183.37"/><circle class="cls-8" cx="192.57" cy="94.85" r="14.81"/><polygon class="cls-3" points="196.62 154.92 189 154.92 189.88 118.01 195.15 118.01 196.62 154.92"/><rect class="cls-3" x="188.92" y="115.34" width="7.28" height="4.17" rx="2.08"/><path class="cls-8" d="M216.12,156.62H169.5V126.4c0-6.11,5.59-11.06,12.49-11.06l10.94,30.47,10.7-30.47c6.9,0,12.49,5,12.49,11.06Z"/></g></g></g></svg>