<svg xmlns="http://www.w3.org/2000/svg" viewBox="0 0 368.33 297.73"><defs><style>.cls-1{isolation:isolate;}.cls-2{fill:#d4fffe;}.cls-3{fill:#131662;}.cls-4{fill:none;stroke:#131662;stroke-linecap:round;stroke-miterlimit:10;stroke-width:6.81px;}.cls-5{fill:#fff;opacity:0.88;mix-blend-mode:soft-light;}.cls-6{fill:#01d4d4;}</style></defs><g class="cls-1"><g id="Layer_2" data-name="Layer 2"><g id="Layer_1-2" data-name="Layer 1"><path class="cls-2" d="M120,4.87C94.72,14.85,80,40.58,61,59.89c-11,11.12-23.7,20.29-34.9,31S4.8,114.6,1.39,129.85C-5.1,158.66,13,186.83,17.78,216c1.55,9.34,1.63,18.91,4.63,27.84A63,63,0,0,0,33.61,263c19.23,23.38,50.07,36.6,80.27,34.58,20-1.3,39-8.85,59-9.66,30-1.22,60.46,12.74,89.6,5.35,13.39-3.4,25.32-11.2,36.84-19,22.73-15.58,46.34-34.65,51.62-61.68,3.89-19.88-3-40.82,1.78-60.46,2.84-11.36,9.42-21.51,12.83-32.71,7.38-23.78-.49-50.8-17.29-69.22S306.87,21.59,282.12,19.4c-16.32-1.46-32.63.32-48.94.08C193.41,18.67,161.27-11.52,120,4.87Z"/><path class="cls-3" d="M61.11,106.25a2.16,2.16,0,0,0-3-.15l-3.4,3.08-3.08-3.4a2.15,2.15,0,1,0-3.18,2.88l3.07,3.4-3.4,3.08a2.15,2.15,0,0,0,2,3.68,2.17,2.17,0,0,0,.93-.5l3.41-3.08,3.07,3.41a2.15,2.15,0,0,0,2.1.64,2,2,0,0,0,.93-.49,2.15,2.15,0,0,0,.16-3l-3.08-3.41,3.4-3.07A2.16,2.16,0,0,0,61.11,106.25Z"/><path class="cls-3" d="M91.55,58.82a1.3,1.3,0,0,0-1.8-.37L87.42,60l-1.53-2.32a1.3,1.3,0,0,0-2.18,1.43l1.53,2.33L82.92,63a1.31,1.31,0,0,0,.83,2.39,1.4,1.4,0,0,0,.6-.21l2.33-1.54,1.53,2.33a1.31,1.31,0,0,0,1.2.58,1.24,1.24,0,0,0,.6-.21,1.29,1.29,0,0,0,.37-1.8l-1.53-2.33,2.33-1.53A1.3,1.3,0,0,0,91.55,58.82Z"/><path class="cls-3" d="M301.83,103.4a2.16,2.16,0,0,1,3-.16l3.4,3.08,3.08-3.4a2.15,2.15,0,1,1,3.18,2.88l-3.07,3.4,3.4,3.08a2.15,2.15,0,0,1-1.95,3.68,2.07,2.07,0,0,1-.93-.5l-3.41-3.07-3.07,3.4a2.14,2.14,0,0,1-2.1.65,2.26,2.26,0,0,1-.94-.5,2.15,2.15,0,0,1-.15-3l3.08-3.4-3.4-3.08A2.15,2.15,0,0,1,301.83,103.4Z"/><path class="cls-3" d="M269.36,66a1.32,1.32,0,0,1,1.81-.37l2.32,1.53L275,64.85a1.3,1.3,0,1,1,2.18,1.43l-1.53,2.33L278,70.14a1.3,1.3,0,0,1-.82,2.38,1.18,1.18,0,0,1-.61-.21l-2.32-1.53-1.54,2.33a1.3,1.3,0,0,1-1.2.58,1.4,1.4,0,0,1-.6-.21,1.3,1.3,0,0,1-.37-1.81l1.53-2.32-2.33-1.53A1.32,1.32,0,0,1,269.36,66Z"/><line class="cls-4" x1="287.42" y1="250.88" x2="308.42" y2="250.88"/><line class="cls-4" x1="61.85" y1="250.88" x2="266.44" y2="250.88"/><path class="cls-5" d="M160.16,43.25h0a19.66,19.66,0,0,1,19.66,19.66V202a19.66,19.66,0,0,1-19.66,19.66h0A60.47,60.47,0,0,1,99.7,161.15V103.72a60.47,60.47,0,0,1,60.47-60.47Z"/><path class="cls-3" d="M166,211.46V95.69A22.74,22.74,0,0,1,154.5,87.5a1.53,1.53,0,0,0-1.29-.46q-17,3.79-34,7.67a1.71,1.71,0,0,0-.37.21L124,107.18c5.14,12.2,10.12,24.46,15.49,36.55a18.83,18.83,0,0,1,1,12.37,31.07,31.07,0,0,1-61-1.79,17.14,17.14,0,0,1,1.11-10c8-18.57,15.76-37.23,23.58-55.86a7,7,0,0,1,5.36-4.41c13.22-2.92,26.43-5.94,39.65-8.87,1-.22,1.33-.54,1.39-1.58a21.72,21.72,0,0,1,40.71-9.29c.56,1,1.07,1.16,2.16.91q19.58-4.47,39.18-8.81c3.59-.8,6.17.5,7.61,3.92q11.36,26.85,22.64,53.73c.06.14.1.3.17.43,3.62,6,2.58,12.15.22,18.2-5,12.86-18.33,21.08-31.58,19.63-14.56-1.6-25.67-11.9-28-26a16.82,16.82,0,0,1,1.07-9.82c6.22-14.37,12.21-28.84,18.29-43.28.26-.61.49-1.23.85-2.11-3.05.66-5.86,1.26-8.66,1.89-6.76,1.52-13.52,3-20.26,4.61a2,2,0,0,0-1.29,1.16c-1.87,8.24-6.73,13.8-14.67,16.67a3.22,3.22,0,0,0-.48.25v115.7h33.32c4.55,0,7,2.43,7,7v14.44a6.18,6.18,0,0,1-6.53,6.52q-40,0-80.11,0c-3.92,0-6.49-2.57-6.52-6.53,0-5,0-10,0-15.05a6.16,6.16,0,0,1,6.38-6.37q16.06,0,32.13,0Zm-55.83-105L92.07,149.27h36.1Zm142.26,14.83-18-42.68c-6.11,14.46-12.05,28.5-18.05,42.68Z"/><path class="cls-6" d="M110.12,106.49l18,42.78H92.07Z"/><path class="cls-6" d="M252.38,121.32h-36.1c6-14.18,11.94-28.22,18.05-42.68Z"/></g></g></g></svg>