<svg xmlns="http://www.w3.org/2000/svg" xmlns:xlink="http://www.w3.org/1999/xlink" viewBox="0 0 368.33 297.73"><defs><style>.cls-1{isolation:isolate;}.cls-2{fill:#d4fffe;}.cls-3{mask:url(#mask);}.cls-4,.cls-5,.cls-6{fill:#01d5d5;}.cls-10,.cls-4,.cls-5,.cls-6,.cls-7{stroke:#131662;stroke-miterlimit:10;}.cls-10,.cls-4,.cls-5{stroke-linecap:round;}.cls-4{stroke-width:3.16px;}.cls-5{stroke-width:3.62px;}.cls-6,.cls-7{stroke-width:3.22px;}.cls-10,.cls-7{fill:none;}.cls-8{fill:#131662;}.cls-9{fill:#fff;opacity:0.88;mix-blend-mode:soft-light;}.cls-10{stroke-width:7.22px;}.cls-11{filter:url(#luminosity-noclip);}</style><filter id="luminosity-noclip" x="103.75" y="41.07" width="142.16" height="219.99" filterUnits="userSpaceOnUse" color-interpolation-filters="sRGB"><feFlood flood-color="#fff" result="bg"/><feBlend in="SourceGraphic" in2="bg"/></filter><mask id="mask" x="103.75" y="41.07" width="142.16" height="219.99" maskUnits="userSpaceOnUse"><g class="cls-11"><path d="M129.89,261.06c-8.62,0-15.12-5.49-15.12-12.78V221.53c0-7.05,6.27-12.55,14.58-12.77H162.8a10,10,0,0,1,8,4.06h8.48a10,10,0,0,1,8.05-4.06h32.8c8.29.22,14.56,5.72,14.56,12.77v26.75c0,7.29-6.5,12.78-15.12,12.78Z"/><path d="M219.87,228.75h-32.5a10,10,0,0,1-8.74-5.15h-7.09a10,10,0,0,1-8.74,5.15H125.23a15.12,15.12,0,0,1-15.12-15.12V166.77a15.13,15.13,0,0,1,15.12-15.12h22.9a9.94,9.94,0,0,1,3.2.53,9.85,9.85,0,0,1,3.2-.53H195a9.94,9.94,0,0,1,3.2.53,9.84,9.84,0,0,1,3.19-.53h22.9a15.13,15.13,0,0,1,15.12,15.12v46.86a15.13,15.13,0,0,1-15.12,15.12Z"/><path d="M195,173.24a10,10,0,0,1-10-10v-2.19H164.53v2.19a10,10,0,0,1-10,10h-6.4a10,10,0,0,1-10-10V160c0-14.31,11.05-26,24.63-26h24c13.58,0,24.63,11.65,24.63,26v3.21a10,10,0,0,1-10,10Z"/></g></mask></defs><g class="cls-1"><g id="Layer_2" data-name="Layer 2"><g id="Layer_1-2" data-name="Layer 1"><path class="cls-2" d="M120,4.87C94.72,14.85,80,40.58,61,59.89c-11,11.12-23.7,20.29-34.9,31S4.8,114.6,1.39,129.85C-5.1,158.66,13,186.83,17.78,216c1.55,9.34,1.63,18.91,4.63,27.84A63,63,0,0,0,33.61,263c19.23,23.38,50.07,36.6,80.27,34.58,20-1.3,39-8.85,59-9.66,30-1.22,60.46,12.74,89.6,5.35,13.39-3.4,25.32-11.2,36.84-19,22.73-15.58,46.34-34.65,51.62-61.68,3.89-19.88-3-40.82,1.78-60.46,2.84-11.36,9.42-21.51,12.83-32.71,7.38-23.78-.49-50.8-17.29-69.22S306.87,21.59,282.12,19.4c-16.32-1.46-32.63.32-48.94.08C193.41,18.67,161.27-11.52,120,4.87Z"/><g class="cls-3"><circle class="cls-4" cx="135.43" cy="77.42" r="23.06"/><rect class="cls-4" x="105.33" y="104.33" width="59.57" height="65.34" rx="24.64"/><circle class="cls-4" cx="214.86" cy="77.42" r="23.06"/><rect class="cls-4" x="184.75" y="104.33" width="59.57" height="65.34" rx="24.64"/><circle class="cls-5" cx="176.66" cy="69.36" r="26.48"/><rect class="cls-5" x="142.1" y="100.25" width="68.4" height="75.02" rx="24.64"/></g><path class="cls-6" d="M224.73,221.53v26.75c0,1.53-2.3,2.78-5.12,2.78H129.89c-2.82,0-5.12-1.25-5.12-2.78V221.53c0-1.48,2.16-2.7,4.86-2.78H162.8v1.51a2.56,2.56,0,0,0,2.56,2.55H184.8a2.56,2.56,0,0,0,2.57-2.55v-1.51h32.5C222.57,218.83,224.73,220.05,224.73,221.53Z"/><path class="cls-7" d="M219.87,218.75h-32.5v1.51a2.56,2.56,0,0,1-2.57,2.55H165.36a2.56,2.56,0,0,1-2.56-2.55v-1.51h57.07Z"/><line class="cls-7" x1="187.37" y1="218.75" x2="162.8" y2="218.75"/><path class="cls-6" d="M229.39,166.77v46.86a5.13,5.13,0,0,1-5.12,5.12h-36.9v-2.58a2.58,2.58,0,0,0-2.57-2.57H165.36a2.57,2.57,0,0,0-2.56,2.57v2.58H125.23a5.12,5.12,0,0,1-5.12-5.12V166.77a5.14,5.14,0,0,1,5.12-5.12h22.9v1.59h6.4v-1.59H195v1.59h6.39v-1.59h22.9A5.14,5.14,0,0,1,229.39,166.77Z"/><path class="cls-8" d="M186.74,144.07h-24c-8.07,0-14.63,7.17-14.63,16v3.21h6.4V160c0-4.95,3.68-9,8.23-9h24c4.54,0,8.24,4,8.24,9v3.21h6.39V160C201.37,151.24,194.81,144.07,186.74,144.07Z"/><path class="cls-8" d="M187.37,216.17v4.09a2.56,2.56,0,0,1-2.57,2.55H165.36a2.56,2.56,0,0,1-2.56-2.55v-4.09a2.57,2.57,0,0,1,2.56-2.57H184.8A2.58,2.58,0,0,1,187.37,216.17Z"/><rect class="cls-9" x="110.3" y="160.91" width="64.7" height="89.23" rx="10.9"/><path class="cls-8" d="M56.18,107.43a3.07,3.07,0,0,0-4.34-.22L47,111.62l-4.4-4.87A3.07,3.07,0,1,0,38,110.87l4.4,4.87-4.87,4.4a3.08,3.08,0,0,0,2.79,5.27,3.12,3.12,0,0,0,1.34-.71l4.86-4.4,4.41,4.87a3.08,3.08,0,0,0,3,.92,3,3,0,0,0,1.33-.7A3.08,3.08,0,0,0,55.5,121l-4.41-4.86L56,111.77A3.07,3.07,0,0,0,56.18,107.43Z"/><path class="cls-8" d="M323.09,108.42a3.07,3.07,0,0,0-4.34-.22l-4.87,4.41-4.4-4.87a3.07,3.07,0,0,0-4.56,4.12l4.4,4.87-4.87,4.4a3.08,3.08,0,0,0-.21,4.34,3.07,3.07,0,0,0,4.34.22l4.87-4.4,4.4,4.87a3.08,3.08,0,0,0,3,.92,3,3,0,0,0,1.33-.7,3.08,3.08,0,0,0,.22-4.35L318,117.16l4.87-4.4A3.07,3.07,0,0,0,323.09,108.42Z"/><path class="cls-8" d="M65.86,73.16A1.38,1.38,0,0,0,64,72.77l-2.47,1.62-1.62-2.46a1.38,1.38,0,0,0-2.31,1.51l1.63,2.47-2.47,1.62a1.38,1.38,0,0,0,.88,2.53,1.4,1.4,0,0,0,.64-.22l2.47-1.62,1.62,2.46a1.38,1.38,0,0,0,1.27.62,1.31,1.31,0,0,0,.64-.23,1.37,1.37,0,0,0,.39-1.91L63,76.7l2.47-1.62A1.39,1.39,0,0,0,65.86,73.16Z"/><line class="cls-10" x1="294.09" y1="252.59" x2="316.34" y2="252.59"/><line class="cls-10" x1="55.07" y1="252.59" x2="271.86" y2="252.59"/><circle class="cls-8" cx="293.87" cy="77.45" r="4.13"/><rect class="cls-8" x="174.77" y="169.05" width="46.61" height="1.52" rx="0.76"/><rect class="cls-8" x="174.77" y="173.91" width="46.61" height="1.52" rx="0.76"/></g></g></g></svg>