<svg xmlns="http://www.w3.org/2000/svg" viewBox="0 0 368.33 297.73"><defs><style>.cls-1{isolation:isolate;}.cls-2{fill:#d4fffe;}.cls-3{fill:#01d5d5;}.cls-3,.cls-4,.cls-7{stroke:#131662;stroke-miterlimit:10;}.cls-3,.cls-4{stroke-width:5.3px;}.cls-4,.cls-7{fill:none;}.cls-5{fill:#131662;}.cls-6{fill:#fff;opacity:0.88;mix-blend-mode:soft-light;}.cls-7{stroke-linecap:round;stroke-width:7.22px;}</style></defs><g class="cls-1"><g id="Layer_2" data-name="Layer 2"><g id="Layer_1-2" data-name="Layer 1"><path class="cls-2" d="M120,4.87C94.72,14.85,80,40.58,61,59.89c-11,11.12-23.7,20.29-34.9,31S4.8,114.6,1.39,129.85C-5.1,158.66,13,186.83,17.78,216c1.55,9.34,1.63,18.91,4.63,27.84A63,63,0,0,0,33.61,263c19.23,23.38,50.07,36.6,80.27,34.58,20-1.3,39-8.85,59-9.66,30-1.22,60.46,12.74,89.6,5.35,13.39-3.4,25.32-11.2,36.84-19,22.73-15.58,46.34-34.65,51.62-61.68,3.89-19.88-3-40.82,1.78-60.46,2.84-11.36,9.42-21.51,12.83-32.71,7.38-23.78-.49-50.8-17.29-69.22S306.87,21.59,282.12,19.4c-16.32-1.46-32.63.32-48.94.08C193.41,18.67,161.27-11.52,120,4.87Z"/><path class="cls-3" d="M260.16,204v44c0,2.52-3.79,4.58-8.42,4.58H104.1c-4.63,0-8.42-2.06-8.42-4.58V204c0-2.44,3.56-4.45,8-4.57h54.59v2.47a4.22,4.22,0,0,0,4.22,4.21h32a4.23,4.23,0,0,0,4.22-4.21v-2.47h53.48C256.6,199.55,260.16,201.56,260.16,204Z"/><path class="cls-4" d="M252.16,199.43H198.68v2.47a4.23,4.23,0,0,1-4.22,4.21h-32a4.22,4.22,0,0,1-4.22-4.21v-2.47h93.91Z"/><line class="cls-4" x1="198.68" y1="199.43" x2="158.25" y2="199.43"/><path class="cls-3" d="M267.83,113.89V191a8.45,8.45,0,0,1-8.42,8.43H198.68v-4.25a4.23,4.23,0,0,0-4.22-4.22h-32a4.23,4.23,0,0,0-4.22,4.22v4.25H96.43A8.42,8.42,0,0,1,88,191V113.89a8.44,8.44,0,0,1,8.42-8.42h37.68v2.62h10.53v-2.62H211.2v2.62h10.53v-2.62h37.68A8.45,8.45,0,0,1,267.83,113.89Z"/><path class="cls-5" d="M197.64,76.54H158.19c-13.28,0-24.08,11.79-24.08,26.26v5.29h10.53V102.8c0-8.15,6.07-14.78,13.55-14.78h39.45c7.48,0,13.56,6.63,13.56,14.78v5.29h10.53V102.8C221.73,88.33,210.93,76.54,197.64,76.54Z"/><path class="cls-5" d="M198.68,195.17v6.73a4.23,4.23,0,0,1-4.22,4.21h-32a4.22,4.22,0,0,1-4.22-4.21v-6.73a4.23,4.23,0,0,1,4.22-4.22h32A4.23,4.23,0,0,1,198.68,195.17Z"/><rect class="cls-6" x="71.87" y="104.25" width="106.45" height="146.82" rx="10.9"/><path class="cls-5" d="M56.18,107.43a3.07,3.07,0,0,0-4.34-.22L47,111.62l-4.4-4.87A3.07,3.07,0,1,0,38,110.87l4.4,4.87-4.87,4.4a3.08,3.08,0,0,0,2.79,5.27,3.12,3.12,0,0,0,1.34-.71l4.86-4.4,4.41,4.87a3.08,3.08,0,0,0,3,.92,3,3,0,0,0,1.33-.7A3.08,3.08,0,0,0,55.5,121l-4.41-4.86L56,111.77A3.07,3.07,0,0,0,56.18,107.43Z"/><path class="cls-5" d="M323.09,108.42a3.07,3.07,0,0,0-4.34-.22l-4.87,4.41-4.4-4.87a3.07,3.07,0,0,0-4.56,4.12l4.4,4.87-4.87,4.4a3.08,3.08,0,0,0-.21,4.34,3.07,3.07,0,0,0,4.34.22l4.87-4.4,4.4,4.87a3.08,3.08,0,0,0,3,.92,3,3,0,0,0,1.33-.7,3.08,3.08,0,0,0,.22-4.35L318,117.16l4.87-4.4A3.07,3.07,0,0,0,323.09,108.42Z"/><path class="cls-5" d="M65.86,73.16A1.38,1.38,0,0,0,64,72.77l-2.47,1.62-1.62-2.46a1.38,1.38,0,0,0-2.31,1.51l1.63,2.47-2.47,1.62a1.38,1.38,0,0,0,.88,2.53,1.4,1.4,0,0,0,.64-.22l2.47-1.62,1.62,2.46a1.38,1.38,0,0,0,1.27.62,1.31,1.31,0,0,0,.64-.23,1.37,1.37,0,0,0,.39-1.91L63,76.7l2.47-1.62A1.39,1.39,0,0,0,65.86,73.16Z"/><line class="cls-7" x1="294.09" y1="252.59" x2="316.34" y2="252.59"/><line class="cls-7" x1="55.07" y1="252.59" x2="271.86" y2="252.59"/><circle class="cls-5" cx="293.87" cy="77.45" r="4.13"/><rect class="cls-5" x="177.95" y="117.64" width="76.7" height="2.51" rx="1.25"/><rect class="cls-5" x="177.95" y="125.64" width="76.7" height="2.51" rx="1.25"/></g></g></g></svg>