<svg xmlns="http://www.w3.org/2000/svg" viewBox="0 0 368.33 297.73"><defs><style>.cls-1{fill:#d4fffe;}.cls-2{fill:#131662;}.cls-3,.cls-4{fill:none;}.cls-3,.cls-5,.cls-6{stroke:#131662;}.cls-3,.cls-6{stroke-linecap:round;}.cls-3,.cls-4,.cls-5,.cls-6{stroke-miterlimit:10;}.cls-3{stroke-width:6.73px;}.cls-4{stroke:#22262d;}.cls-4,.cls-5{stroke-width:4.92px;}.cls-5{fill:#f2f3f4;}.cls-6{fill:#01d5d5;stroke-width:4.93px;}</style></defs><g id="Layer_2" data-name="Layer 2"><g id="Layer_1-2" data-name="Layer 1"><path class="cls-1" d="M120,4.87C94.72,14.85,80,40.58,61,59.89c-11,11.12-23.7,20.29-34.9,31S4.8,114.6,1.39,129.85C-5.1,158.66,13,186.83,17.78,216c1.55,9.34,1.63,18.91,4.63,27.84A63,63,0,0,0,33.61,263c19.23,23.38,50.07,36.6,80.27,34.58,20-1.3,39-8.85,59-9.66,30-1.22,60.46,12.74,89.6,5.35,13.39-3.4,25.32-11.2,36.84-19,22.73-15.58,46.34-34.65,51.62-61.68,3.89-19.88-3-40.82,1.78-60.46,2.84-11.36,9.42-21.51,12.83-32.71,7.38-23.78-.49-50.8-17.29-69.22S306.87,21.59,282.12,19.4c-16.32-1.46-32.63.32-48.94.08C193.41,18.67,161.27-11.52,120,4.87Z"/><path class="cls-2" d="M88.5,93.74a2.86,2.86,0,0,0-4-.2l-4.54,4.1L75.81,93.1A2.87,2.87,0,0,0,71.56,97l4.11,4.54-4.54,4.1a2.87,2.87,0,0,0,2.6,4.91,2.83,2.83,0,0,0,1.24-.66l4.54-4.1,4.1,4.53a2.86,2.86,0,1,0,4.25-3.84l-4.1-4.54,4.54-4.1A2.87,2.87,0,0,0,88.5,93.74Z"/><path class="cls-2" d="M300.12,96.56a2.86,2.86,0,0,0-4-.2l-4.54,4.1-4.11-4.54a2.86,2.86,0,0,0-4.25,3.84l4.11,4.54-4.54,4.11a2.86,2.86,0,1,0,3.84,4.25l4.54-4.11,4.1,4.54A2.87,2.87,0,0,0,298,114a2.76,2.76,0,0,0,1.24-.65,2.87,2.87,0,0,0,.2-4l-4.1-4.54,4.54-4.1A2.87,2.87,0,0,0,300.12,96.56Z"/><path class="cls-2" d="M97.52,61.8a1.28,1.28,0,0,0-1.78-.36L93.44,63l-1.51-2.3a1.29,1.29,0,1,0-2.15,1.42l1.51,2.29L89,65.87a1.29,1.29,0,0,0,.82,2.36,1.19,1.19,0,0,0,.59-.2l2.3-1.52,1.51,2.3a1.27,1.27,0,0,0,1.78.37,1.29,1.29,0,0,0,.37-1.79L94.86,65.1l2.3-1.51A1.3,1.3,0,0,0,97.52,61.8Z"/><path class="cls-2" d="M273.13,68.9a1.29,1.29,0,0,1,1.78-.37l2.3,1.52,1.51-2.3a1.29,1.29,0,1,1,2.15,1.42l-1.51,2.29,2.3,1.51a1.3,1.3,0,0,1,.37,1.79,1.28,1.28,0,0,1-1.19.57,1.24,1.24,0,0,1-.6-.21L278,73.61l-1.52,2.3a1.26,1.26,0,0,1-1.18.57,1.23,1.23,0,0,1-.6-.2,1.3,1.3,0,0,1-.37-1.79l1.52-2.29-2.3-1.51A1.3,1.3,0,0,1,273.13,68.9Z"/><line class="cls-3" x1="284.57" y1="250.49" x2="305.31" y2="250.49"/><line class="cls-3" x1="61.79" y1="250.49" x2="263.85" y2="250.49"/><path class="cls-4" d="M186.8,160.69H141.59a8.41,8.41,0,0,1-8.39-8.39,30.14,30.14,0,0,1,18.47-27.72,17.69,17.69,0,1,1,25,0,30.1,30.1,0,0,1,18.47,27.72A8.29,8.29,0,0,1,186.8,160.69Zm40.29-7.7c0,2-2.38,2.95-4.84,2.95s-4.83-1-4.83-2.95V121.63l-1.8,1.11a2.9,2.9,0,0,1-1.55.49c-1.81,0-3-1.89-3-3.85a3.75,3.75,0,0,1,1.8-3.28l8.15-4.91a3.5,3.5,0,0,1,1.8-.41c2,0,4.25,1.19,4.25,3l.05,39.18Z"/><path class="cls-5" d="M261.85,100.09v68.26c0,14.9-11.22,27-25,27H204.44L187,228.66a4.67,4.67,0,0,1-8.27,0l-17.48-33.29H128.78c-13.76,0-25-12.12-25-27V100.09c0-14.9,11.22-27,25-27H236.87C250.63,73.07,261.85,85.19,261.85,100.09Z"/><path class="cls-2" d="M227.09,113.77V153c0,2-2.38,2.95-4.84,2.95s-4.83-1-4.83-2.95V121.63l-1.8,1.11a2.9,2.9,0,0,1-1.55.49c-1.81,0-3-1.89-3-3.85a3.75,3.75,0,0,1,1.8-3.28l8.15-4.91a3.5,3.5,0,0,1,1.8-.41C224.83,110.74,227.09,111.93,227.09,113.77Z"/><path class="cls-6" d="M195.19,152.3a8.41,8.41,0,0,1-8.39,8.39H141.59a8.41,8.41,0,0,1-8.39-8.39,30.14,30.14,0,0,1,18.47-27.72,17.69,17.69,0,1,1,25,0A30,30,0,0,1,195.19,152.3Z"/></g></g></svg>