<svg xmlns="http://www.w3.org/2000/svg" viewBox="0 0 368.33 297.73"><defs><style>.cls-1,.cls-3,.cls-4{fill:#d4fffe;}.cls-2,.cls-5{fill:#01d5d5;}.cls-2,.cls-3,.cls-4,.cls-5,.cls-6{stroke:#131662;stroke-miterlimit:10;}.cls-2{stroke-width:4.73px;}.cls-3{stroke-width:2.58px;}.cls-4{stroke-width:3.55px;}.cls-5{stroke-width:3.92px;}.cls-6{fill:none;stroke-linecap:round;stroke-width:7.22px;}.cls-7{fill:#131662;}</style></defs><g id="Layer_2" data-name="Layer 2"><g id="Layer_1-2" data-name="Layer 1"><path class="cls-1" d="M120,4.87C94.72,14.85,80,40.58,61,59.89c-11,11.12-23.7,20.29-34.9,31S4.8,114.6,1.39,129.85C-5.1,158.66,13,186.83,17.78,216c1.55,9.34,1.63,18.91,4.63,27.84A63,63,0,0,0,33.61,263c19.23,23.38,50.07,36.6,80.27,34.58,20-1.3,39-8.85,59-9.66,30-1.22,60.46,12.74,89.6,5.35,13.39-3.4,25.32-11.2,36.84-19,22.73-15.58,46.34-34.65,51.62-61.68,3.89-19.88-3-40.82,1.78-60.46,2.84-11.36,9.42-21.51,12.83-32.71,7.38-23.78-.49-50.8-17.29-69.22S306.87,21.59,282.12,19.4c-16.32-1.46-32.63.32-48.94.08C193.41,18.67,161.27-11.52,120,4.87Z"/><rect class="cls-2" x="103.99" y="63.07" width="94.5" height="189"/><rect class="cls-3" x="119.33" y="73.48" width="18.17" height="25.02"/><rect class="cls-3" x="119.33" y="109.48" width="18.17" height="25.02"/><rect class="cls-3" x="168.33" y="73.48" width="18.17" height="25.02"/><rect class="cls-3" x="168.33" y="109.48" width="18.17" height="25.02"/><rect class="cls-3" x="119.33" y="145.48" width="18.17" height="25.02"/><rect class="cls-3" x="119.33" y="181.48" width="18.17" height="25.02"/><path class="cls-4" d="M152.92,212.07h6.91a0,0,0,0,1,0,0V250.5a0,0,0,0,1,0,0h-22.5a0,0,0,0,1,0,0V227.66A15.59,15.59,0,0,1,152.92,212.07Z"/><rect class="cls-3" x="168.33" y="145.48" width="18.17" height="25.02"/><rect class="cls-5" x="160.16" y="121.91" width="94.5" height="130.16"/><rect class="cls-3" x="175.33" y="136.48" width="18.17" height="25.02"/><rect class="cls-3" x="175.33" y="172.48" width="18.17" height="25.02"/><rect class="cls-3" x="224.33" y="136.48" width="18.17" height="25.02"/><rect class="cls-3" x="224.33" y="172.48" width="18.17" height="25.02"/><rect class="cls-3" x="175.33" y="208.48" width="18.17" height="25.02"/><rect class="cls-3" x="224.33" y="208.48" width="18.17" height="25.02"/><line class="cls-6" x1="291.75" y1="255.09" x2="314" y2="255.09"/><line class="cls-6" x1="52.73" y1="255.09" x2="269.52" y2="255.09"/><path class="cls-7" d="M67.7,122.87a3.07,3.07,0,0,0-4.34-.22l-4.87,4.41-4.4-4.87a3.07,3.07,0,0,0-4.56,4.12l4.4,4.87-4.87,4.4a3.08,3.08,0,0,0,2.79,5.27,3.12,3.12,0,0,0,1.34-.71l4.87-4.4,4.4,4.87a3.08,3.08,0,0,0,3,.92,3,3,0,0,0,1.33-.7,3.08,3.08,0,0,0,.22-4.35l-4.41-4.86,4.87-4.41A3.07,3.07,0,0,0,67.7,122.87Z"/><path class="cls-7" d="M285.61,81.86a3.07,3.07,0,0,0-4.34-.22l-4.87,4.41L272,81.18a3.07,3.07,0,0,0-4.56,4.12l4.4,4.87L267,94.57a3.08,3.08,0,0,0-.21,4.34,3,3,0,0,0,3,.93,3,3,0,0,0,1.34-.71l4.87-4.4,4.4,4.87a3.08,3.08,0,0,0,3,.92,3,3,0,0,0,1.33-.7,3.08,3.08,0,0,0,.22-4.35l-4.4-4.86,4.87-4.41A3.08,3.08,0,0,0,285.61,81.86Z"/><path class="cls-7" d="M77.38,88.6a1.38,1.38,0,0,0-1.91-.39L73,89.83l-1.62-2.46a1.38,1.38,0,0,0-1.91-.4,1.4,1.4,0,0,0-.4,1.92l1.63,2.46L68.23,93a1.38,1.38,0,0,0,1.52,2.31l2.47-1.62,1.62,2.46a1.38,1.38,0,0,0,1.27.62,1.4,1.4,0,0,0,.64-.22,1.38,1.38,0,0,0,.39-1.92l-1.62-2.46L77,90.52A1.39,1.39,0,0,0,77.38,88.6Z"/><circle class="cls-7" cx="256.39" cy="50.89" r="4.13"/></g></g></svg>