<svg xmlns="http://www.w3.org/2000/svg" viewBox="0 0 368.33 297.73"><defs><style>.cls-1{isolation:isolate;}.cls-2{fill:#d4fffe;}.cls-3{fill:#131662;}.cls-4{fill:none;stroke-width:7.22px;}.cls-4,.cls-5{stroke:#131662;stroke-linecap:round;stroke-miterlimit:10;}.cls-5{fill:#01d5d5;stroke-width:3.5px;}.cls-6{fill:#eaad00;}.cls-7{fill:#fff;opacity:0.88;mix-blend-mode:soft-light;}</style></defs><g class="cls-1"><g id="Layer_2" data-name="Layer 2"><g id="Layer_1-2" data-name="Layer 1"><path class="cls-2" d="M120,4.87C94.72,14.85,80,40.58,61,59.89c-11,11.12-23.7,20.29-34.9,31S4.8,114.6,1.39,129.85C-5.1,158.66,13,186.83,17.78,216c1.55,9.34,1.63,18.91,4.63,27.84A63,63,0,0,0,33.61,263c19.23,23.38,50.07,36.6,80.27,34.58,20-1.3,39-8.85,59-9.66,30-1.22,60.46,12.74,89.6,5.35,13.39-3.4,25.32-11.2,36.84-19,22.73-15.58,46.34-34.65,51.62-61.68,3.89-19.88-3-40.82,1.78-60.46,2.84-11.36,9.42-21.51,12.83-32.71,7.38-23.78-.49-50.8-17.29-69.22S306.87,21.59,282.12,19.4c-16.32-1.46-32.63.32-48.94.08C193.41,18.67,161.27-11.52,120,4.87Z"/><path class="cls-3" d="M56.18,107.43a3.07,3.07,0,0,0-4.34-.22L47,111.62l-4.4-4.87A3.07,3.07,0,1,0,38,110.87l4.4,4.87-4.87,4.4a3.08,3.08,0,0,0,2.79,5.27,3.12,3.12,0,0,0,1.34-.71l4.86-4.4,4.41,4.87a3.08,3.08,0,0,0,3,.92,3,3,0,0,0,1.33-.7A3.08,3.08,0,0,0,55.5,121l-4.41-4.86L56,111.77A3.07,3.07,0,0,0,56.18,107.43Z"/><path class="cls-3" d="M323.09,108.42a3.07,3.07,0,0,0-4.34-.22l-4.87,4.41-4.4-4.87a3.07,3.07,0,0,0-4.56,4.12l4.4,4.87-4.87,4.4a3.08,3.08,0,0,0-.21,4.34,3.07,3.07,0,0,0,4.34.22l4.87-4.4,4.4,4.87a3.08,3.08,0,0,0,3,.92,3,3,0,0,0,1.33-.7,3.08,3.08,0,0,0,.22-4.35L318,117.16l4.87-4.4A3.07,3.07,0,0,0,323.09,108.42Z"/><path class="cls-3" d="M76.86,73.16A1.38,1.38,0,0,0,75,72.77l-2.47,1.62-1.62-2.46a1.38,1.38,0,0,0-2.31,1.51l1.63,2.47-2.47,1.62a1.38,1.38,0,0,0,.88,2.53,1.4,1.4,0,0,0,.64-.22l2.47-1.62,1.62,2.46a1.38,1.38,0,0,0,1.27.62,1.31,1.31,0,0,0,.64-.23,1.37,1.37,0,0,0,.39-1.91L74,76.7l2.47-1.62A1.39,1.39,0,0,0,76.86,73.16Z"/><line class="cls-4" x1="294.09" y1="252.59" x2="316.34" y2="252.59"/><line class="cls-4" x1="55.07" y1="252.59" x2="271.86" y2="252.59"/><circle class="cls-3" cx="293.87" cy="77.45" r="4.13"/><path class="cls-5" d="M250.66,129.06a14.06,14.06,0,0,1-4.32,9.49c-3.06,2.89-6.24,5.68-9.27,8.6a6.42,6.42,0,0,0-1.66,2.73c-1.13,3.84-2.06,7.74-3.13,11.6-1.6,5.77-5.41,9.15-11.29,10.21-3.88.69-7.78,1.28-11.63,2.06a7,7,0,0,0-3,1.53c-2.92,2.53-5.71,5.23-8.59,7.82-4.51,4.05-9.59,4.91-15.19,2.57-3.7-1.55-7.36-3.17-11.09-4.65a5.56,5.56,0,0,0-2.77-.31c-4,.61-8,1.37-12.07,2A13.18,13.18,0,0,1,142.91,177c-2.32-3.26-4.48-6.65-6.83-9.9a6.92,6.92,0,0,0-2.6-2.17c-3.38-1.56-6.83-3-10.28-4.4-5.77-2.34-8.93-6.52-9.16-12.8a36,36,0,0,1-.14-5,19.83,19.83,0,0,0-5.09-15.8,35.81,35.81,0,0,1-3.06-4.42,13.3,13.3,0,0,1-.31-14.7c2-3.47,4.2-6.83,6.16-10.32a7.43,7.43,0,0,0,.91-3.48c0-4-.25-8-.28-12A13.1,13.1,0,0,1,119.9,69.5a83,83,0,0,1,7.82-3.81A12.91,12.91,0,0,0,135,59.08c1.27-2.52,2.82-4.92,4.33-7.31,3.23-5.1,7.84-7.39,13.89-6.64,3.85.47,7.69,1,11.54,1.3a7.08,7.08,0,0,0,3.36-.61c3.52-1.61,6.95-3.4,10.43-5.08,5.63-2.72,10.85-2.05,15.65,1.94a59.45,59.45,0,0,1,4.94,4.11,16.41,16.41,0,0,0,12.17,5.12,57.4,57.4,0,0,1,7,.77,13.12,13.12,0,0,1,11.2,9.23c1.38,3.9,2.52,7.89,3.88,11.81a6.09,6.09,0,0,0,1.71,2.46c3,2.57,6.07,5,9.11,7.53q7,5.81,4.79,14.64c-1,3.81-2.08,7.59-3,11.42a6.5,6.5,0,0,0,.1,3.19c1.09,3.72,2.38,7.36,3.5,11.07C250.07,125.67,250.31,127.38,250.66,129.06Z"/><path class="cls-5" d="M224.69,113A47.76,47.76,0,1,1,177.1,65.27,47.69,47.69,0,0,1,224.69,113Z"/><path class="cls-6" d="M243.08,226.58c-6.18-.24-11.91-.33-17.61-.75-2.41-.19-3.92.36-5.33,2.41-3.2,4.67-6.68,9.14-10,13.7a6.92,6.92,0,0,0-.46,1.13L188.21,198.3c3.33-.86,6.62-1.49,9.74-2.58,4.57-1.6,8-5,11.11-8.47,3.37-3.75,7.76-3.76,12-4.45.49-.08,1.38.76,1.68,1.38,4.66,9.62,9.25,19.28,13.86,28.93C238.7,217.46,240.79,221.8,243.08,226.58Z"/><path class="cls-6" d="M132.46,181.31c1.36,1.68,2.47,3.25,3.77,4.63,6.35,6.71,14.12,9,23.16,7.35,3-.56,6.07-1,9.45-1.6l-24.41,51c-1.09-1.41-2.05-2.61-3-3.84-2.75-3.72-5.56-7.4-8.19-11.21a4,4,0,0,0-4-1.82c-6,.34-12,.53-18.49.8Z"/><path class="cls-3" d="M170.65,117.35c4.38-4.45,8.44-8.58,12.5-12.69,2.82-2.85,5.62-5.71,8.49-8.51a6.09,6.09,0,0,1,8.73-.14,6,6,0,0,1-.12,8.72q-12.52,12.64-25.18,25.18c-2.76,2.73-6.24,2.62-9-.11q-6.12-6-12.19-12.14c-2.7-2.73-2.88-6.4-.49-8.89s6-2.66,8.85,0S167.65,114.29,170.65,117.35Z"/><circle class="cls-7" cx="147.36" cy="111.58" r="63.85"/></g></g></g></svg>