<svg xmlns="http://www.w3.org/2000/svg" viewBox="0 0 368.33 297.73"><defs><style>.cls-1{fill:#d4fffe;}.cls-2{fill:#22262d;}.cls-3{fill:#02c6c6;}.cls-4{fill:#0592d8;}.cls-5{fill:none;stroke:#131662;stroke-linecap:round;stroke-miterlimit:10;stroke-width:7.22px;}.cls-6{fill:#131662;}</style></defs><g id="Layer_2" data-name="Layer 2"><g id="Layer_1-2" data-name="Layer 1"><path class="cls-1" d="M120,4.87C94.72,14.85,80,40.58,61,59.89c-11,11.12-23.7,20.29-34.9,31S4.8,114.6,1.39,129.85C-5.1,158.66,13,186.83,17.78,216c1.55,9.34,1.63,18.91,4.63,27.84A63,63,0,0,0,33.61,263c19.23,23.38,50.07,36.6,80.27,34.58,20-1.3,39-8.85,59-9.66,30-1.22,60.46,12.74,89.6,5.35,13.39-3.4,25.32-11.2,36.84-19,22.73-15.58,46.34-34.65,51.62-61.68,3.89-19.88-3-40.82,1.78-60.46,2.84-11.36,9.42-21.51,12.83-32.71,7.38-23.78-.49-50.8-17.29-69.22S306.87,21.59,282.12,19.4c-16.32-1.46-32.63.32-48.94.08C193.41,18.67,161.27-11.52,120,4.87Z"/><polygon class="cls-2" points="203.74 247.07 179.39 213.44 155.05 247.07 101.03 247.07 156.72 172.54 172.94 150.87 220.02 85.07 272.32 85.07 205.59 177.26 257.75 247.07 203.74 247.07"/><path class="cls-2" d="M141.49,172.64A12.62,12.62,0,0,1,129,162.2l-5-28.78a12.62,12.62,0,0,1,12.43-14.79l28.65.06a12.62,12.62,0,0,1,9.72,20.63L151.21,168a12.55,12.55,0,0,1-9.72,4.61Z"/><polygon class="cls-3" points="195.66 177.33 241.79 239.07 207.82 239.07 179.39 199.79 150.97 239.07 117 239.07 163.13 177.33 179.39 155.59 224.13 93.07 256.65 93.07 195.66 177.33"/><path class="cls-4" d="M145,163l23.59-28.71a4.62,4.62,0,0,0-3.56-7.55l-28.62-.06a4.61,4.61,0,0,0-4.56,5.41l5,28.78A4.62,4.62,0,0,0,145,163Z"/><line class="cls-5" x1="295.39" y1="243.71" x2="317.64" y2="243.71"/><line class="cls-5" x1="56.37" y1="243.71" x2="273.16" y2="243.71"/><path class="cls-6" d="M73.94,106.41a3.07,3.07,0,0,0-4.34-.22l-4.88,4.4-4.4-4.87a3.08,3.08,0,0,0-4.56,4.13l4.41,4.87-4.87,4.4a3.08,3.08,0,0,0,2.79,5.27,3.13,3.13,0,0,0,1.33-.71l4.87-4.4,4.4,4.86a3.07,3.07,0,0,0,3,.93,3,3,0,0,0,1.33-.71,3.07,3.07,0,0,0,.22-4.34l-4.4-4.87,4.87-4.4A3.08,3.08,0,0,0,73.94,106.41Z"/><path class="cls-6" d="M319.85,119.4a3.07,3.07,0,0,0-4.34-.22l-4.87,4.4-4.41-4.87a3.08,3.08,0,1,0-4.56,4.13l4.41,4.87-4.87,4.4a3.08,3.08,0,0,0,2.79,5.27,3.13,3.13,0,0,0,1.33-.71l4.87-4.4,4.4,4.86a3.07,3.07,0,0,0,3,.93,3,3,0,0,0,1.33-.71,3.07,3.07,0,0,0,.22-4.34l-4.4-4.87,4.87-4.4A3.07,3.07,0,0,0,319.85,119.4Z"/><path class="cls-6" d="M97.62,63.14a1.38,1.38,0,0,0-1.92-.39l-2.46,1.62L91.62,61.9a1.38,1.38,0,0,0-2.31,1.52l1.62,2.47-2.46,1.62a1.38,1.38,0,0,0-.4,1.91,1.39,1.39,0,0,0,1.92.4l2.46-1.63,1.62,2.47a1.39,1.39,0,0,0,1.27.62,1.34,1.34,0,0,0,.64-.23,1.38,1.38,0,0,0,.4-1.91l-1.62-2.46,2.46-1.63A1.38,1.38,0,0,0,97.62,63.14Z"/><circle class="cls-6" cx="297.62" cy="68.43" r="4.13"/></g></g></svg>