<svg xmlns="http://www.w3.org/2000/svg" viewBox="0 0 368.33 297.73"><defs><style>.cls-1{isolation:isolate;}.cls-2{fill:#d4fffe;}.cls-3{fill:#eaad00;}.cls-4{fill:#131662;}.cls-5{fill:#22262d;}.cls-6{fill:#02c6c6;}.cls-7{fill:none;stroke:#131662;stroke-linecap:round;stroke-miterlimit:10;stroke-width:7.22px;}.cls-8{fill:#fff;opacity:0.88;mix-blend-mode:soft-light;}</style></defs><g class="cls-1"><g id="Layer_2" data-name="Layer 2"><g id="Layer_1-2" data-name="Layer 1"><path class="cls-2" d="M120,4.87C94.72,14.85,80,40.58,61,59.89c-11,11.12-23.7,20.29-34.9,31S4.8,114.6,1.39,129.85C-5.1,158.66,13,186.83,17.78,216c1.55,9.34,1.63,18.91,4.63,27.84A63,63,0,0,0,33.61,263c19.23,23.38,50.07,36.6,80.27,34.58,20-1.3,39-8.85,59-9.66,30-1.22,60.46,12.74,89.6,5.35,13.39-3.4,25.32-11.2,36.84-19,22.73-15.58,46.34-34.65,51.62-61.68,3.89-19.88-3-40.82,1.78-60.46,2.84-11.36,9.42-21.51,12.83-32.71,7.38-23.78-.49-50.8-17.29-69.22S306.87,21.59,282.12,19.4c-16.32-1.46-32.63.32-48.94.08C193.41,18.67,161.27-11.52,120,4.87Z"/><g id="surface1"><path class="cls-3" d="M182.45,111.33a29.8,29.8,0,1,0,29.8,29.8A29.86,29.86,0,0,0,182.45,111.33Zm17.69,24.13L178.8,156.8a4.62,4.62,0,0,1-6.49,0l-8.15-8.16a4.59,4.59,0,1,1,6.48-6.49l4.92,4.92L193.64,129a4.59,4.59,0,0,1,6.5,6.48Z"/><path class="cls-4" d="M200.14,135.46,178.8,156.8a4.62,4.62,0,0,1-6.49,0l-8.15-8.16a4.59,4.59,0,1,1,6.48-6.49l4.92,4.92L193.64,129a4.59,4.59,0,0,1,6.5,6.48Z"/><path class="cls-5" d="M254.68,102.21v-.13c-.07-1.64-.14-3.35-.17-5.29a18.1,18.1,0,0,0-17-17.69c-19.52-1-34.68-7.44-47.58-20l-.1-.11a10.91,10.91,0,0,0-14.79,0l-.13.11c-12.94,12.63-28,19-47.59,20.1a18,18,0,0,0-17,17.62c0,1.91-.07,3.65-.17,5.29v.31c-.37,19.93-.85,44.75,7.44,67.24a85.45,85.45,0,0,0,20.55,32c10.35,10.07,23.86,18.06,40.18,23.79a13.33,13.33,0,0,0,1.67.48,11.47,11.47,0,0,0,2.39.24,11.34,11.34,0,0,0,2.39-.24,9,9,0,0,0,1.68-.48c16.35-5.7,29.87-13.72,40.14-23.79a85.84,85.84,0,0,0,20.55-32C255.53,147,255.06,122.18,254.68,102.21Zm-72.23,81.28a42.4,42.4,0,1,1,42.4-42.39A42.43,42.43,0,0,1,182.45,183.49Z"/><path class="cls-6" d="M243.07,108.43v-.1c-.06-1.37-.1-2.8-.13-4.44A15.2,15.2,0,0,0,228.7,89c-16.38-.89-29.12-6.25-39.94-16.83l-.07-.07a9.11,9.11,0,0,0-12.39,0l-.1.07c-10.85,10.58-23.52,15.94-39.94,16.86A15.08,15.08,0,0,0,122,103.89c0,1.6-.07,3.07-.14,4.44v.23c-.31,16.73-.72,37.55,6.25,56.47a71.79,71.79,0,0,0,17.27,26.86c8.67,8.43,20,15.16,33.73,20a10.27,10.27,0,0,0,1.4.38,10.2,10.2,0,0,0,4,0,9,9,0,0,0,1.4-.38c13.73-4.78,25.06-11.5,33.7-20A72.61,72.61,0,0,0,236.93,165C243.79,146.08,243.38,125.22,243.07,108.43Zm-60.62,68.24A35.57,35.57,0,1,1,218,141.1,35.6,35.6,0,0,1,182.45,176.67Z"/></g><line class="cls-7" x1="287.39" y1="254.71" x2="309.64" y2="254.71"/><line class="cls-7" x1="48.37" y1="254.71" x2="265.16" y2="254.71"/><path class="cls-4" d="M68.94,101.15a3.07,3.07,0,0,0-4.34-.22l-4.88,4.4-4.4-4.87a3.08,3.08,0,1,0-4.56,4.13l4.41,4.87-4.87,4.4a3.08,3.08,0,0,0,2.79,5.27,3.13,3.13,0,0,0,1.33-.71L59.29,114l4.4,4.87a3.07,3.07,0,0,0,3,.93A3,3,0,0,0,68,119.1a3.07,3.07,0,0,0,.22-4.34l-4.4-4.87,4.87-4.4A3.08,3.08,0,0,0,68.94,101.15Z"/><path class="cls-4" d="M327.85,101.14a3.07,3.07,0,0,0-4.34-.22l-4.87,4.4-4.41-4.87a3.08,3.08,0,1,0-4.56,4.13l4.41,4.86-4.87,4.41a3.08,3.08,0,0,0,2.79,5.27,3.13,3.13,0,0,0,1.33-.71L318.2,114l4.4,4.87a3.07,3.07,0,0,0,3,.93,3,3,0,0,0,1.33-.71,3.07,3.07,0,0,0,.22-4.34l-4.4-4.87,4.87-4.4A3.07,3.07,0,0,0,327.85,101.14Z"/><path class="cls-4" d="M83.62,62.88a1.38,1.38,0,0,0-1.92-.39l-2.46,1.62-1.62-2.47a1.38,1.38,0,0,0-2.31,1.52l1.62,2.47-2.46,1.62a1.38,1.38,0,0,0-.4,1.91,1.39,1.39,0,0,0,1.92.4l2.46-1.63,1.62,2.47a1.36,1.36,0,0,0,1.27.61,1.23,1.23,0,0,0,.64-.22,1.38,1.38,0,0,0,.4-1.91l-1.62-2.47,2.46-1.62A1.38,1.38,0,0,0,83.62,62.88Z"/><circle class="cls-4" cx="298.62" cy="70.17" r="4.13"/><ellipse class="cls-8" cx="145.67" cy="145.26" rx="56.34" ry="91.82"/></g></g></g></svg>