<svg xmlns="http://www.w3.org/2000/svg" viewBox="0 0 368.33 297.73"><defs><style>.cls-1{isolation:isolate;}.cls-2{fill:#d4fffe;}.cls-3{fill:none;stroke:#131662;stroke-linecap:round;stroke-miterlimit:10;stroke-width:7.22px;}.cls-4{fill:#131662;}.cls-5{fill:#fff;opacity:0.88;mix-blend-mode:soft-light;}.cls-6{fill:#01d4d4;}</style></defs><g class="cls-1"><g id="Layer_2" data-name="Layer 2"><g id="Layer_1-2" data-name="Layer 1"><path class="cls-2" d="M120,4.87C94.72,14.85,80,40.58,61,59.89c-11,11.12-23.7,20.29-34.9,31S4.8,114.6,1.39,129.85C-5.1,158.66,13,186.83,17.78,216c1.55,9.34,1.63,18.91,4.63,27.84A63,63,0,0,0,33.61,263c19.23,23.38,50.07,36.6,80.27,34.58,20-1.3,39-8.85,59-9.66,30-1.22,60.46,12.74,89.6,5.35,13.39-3.4,25.32-11.2,36.84-19,22.73-15.58,46.34-34.65,51.62-61.68,3.89-19.88-3-40.82,1.78-60.46,2.84-11.36,9.42-21.51,12.83-32.71,7.38-23.78-.49-50.8-17.29-69.22S306.87,21.59,282.12,19.4c-16.32-1.46-32.63.32-48.94.08C193.41,18.67,161.27-11.52,120,4.87Z"/><line class="cls-3" x1="295.39" y1="243.71" x2="317.64" y2="243.71"/><line class="cls-3" x1="56.37" y1="243.71" x2="273.16" y2="243.71"/><path class="cls-4" d="M51.94,117.41a3.07,3.07,0,0,0-4.34-.22l-4.88,4.4-4.4-4.87a3.08,3.08,0,0,0-4.56,4.13l4.41,4.87-4.87,4.4a3.08,3.08,0,0,0,2.79,5.27,3.13,3.13,0,0,0,1.33-.71l4.87-4.4,4.4,4.86a3.07,3.07,0,0,0,3,.93,3,3,0,0,0,1.33-.71,3.07,3.07,0,0,0,.22-4.34l-4.4-4.87,4.87-4.4A3.08,3.08,0,0,0,51.94,117.41Z"/><path class="cls-4" d="M330.85,130.4a3.07,3.07,0,0,0-4.34-.22l-4.87,4.4-4.41-4.87a3.08,3.08,0,1,0-4.56,4.13l4.41,4.87-4.87,4.4a3.08,3.08,0,0,0,2.79,5.27,3.13,3.13,0,0,0,1.33-.71l4.87-4.4,4.4,4.86a3.07,3.07,0,0,0,3,.93,3,3,0,0,0,1.33-.71,3.07,3.07,0,0,0,.22-4.34l-4.4-4.87,4.87-4.4A3.07,3.07,0,0,0,330.85,130.4Z"/><path class="cls-4" d="M75.62,74.14a1.38,1.38,0,0,0-1.92-.39l-2.46,1.62L69.62,72.9a1.38,1.38,0,0,0-2.31,1.52l1.62,2.47-2.46,1.62a1.38,1.38,0,0,0-.4,1.91,1.39,1.39,0,0,0,1.92.4l2.46-1.63,1.62,2.47a1.39,1.39,0,0,0,1.27.62,1.34,1.34,0,0,0,.64-.23,1.38,1.38,0,0,0,.4-1.91l-1.62-2.46,2.46-1.63A1.38,1.38,0,0,0,75.62,74.14Z"/><circle class="cls-4" cx="308.62" cy="79.43" r="4.13"/><path class="cls-5" d="M183.59,59.07h11.72a59,59,0,0,1,59,59v26a59,59,0,0,1-59,59H183.59a0,0,0,0,1,0,0v-144A0,0,0,0,1,183.59,59.07Z"/><path class="cls-4" d="M304.7,110.44,261.83,67.57c-.3-.3-.59-.62-.92-.89a4.53,4.53,0,0,0-6.25.46c-1.77,1.91-1.58,4.61.46,6.65L294.35,113c.38.38.73.77,1.12,1.17-.21.25-.31.4-.43.51Q283.52,126.26,272,137.78c-1.24,1.24-2.14,1.18-3.51-.19l-45.95-46c-1.54-1.54-1.53-2.3,0-3.85L237.61,72.7c2.13-2.14,2.22-4.92.28-6.83s-4.68-1.75-6.75.3q-7.72,7.71-15.44,15.44a11,11,0,0,0-2.87,11.56,1.47,1.47,0,0,1-.47,1.68c-1.32,1.28-2.56,2.65-4,3.87a3.11,3.11,0,0,1-1.86.79q-17.79.06-35.58,0a2.85,2.85,0,0,1-1.78-.73c-1.84-1.72-3.57-3.56-5.39-5.32a1.84,1.84,0,0,1-.6-1.8,11.42,11.42,0,0,0-3.62-10.45c-4.6-4.47-9.1-9.06-13.64-13.6a21,21,0,0,0-1.67-1.6,4.4,4.4,0,0,0-4.82-.59,4.28,4.28,0,0,0-2.62,4.08,5,5,0,0,0,1.72,3.72l14.53,14.53c1.61,1.61,1.6,2.29,0,3.92l-45.68,45.69c-1.75,1.75-2.37,1.74-4.13,0l-21-21c-.66-.66-1.41-1.25-2.23-2,.57-.6.9-1,1.27-1.33Q101,93.33,120.7,73.62a13.17,13.17,0,0,0,1-1,4.64,4.64,0,0,0,.42-5.28c-1.59-2.72-5.08-3-7.55-.52q-21.9,21.87-43.77,43.78c-2.37,2.36-2.31,4.93.06,7.3l26.43,26.43a10.88,10.88,0,0,0,10.81,3.08,1.93,1.93,0,0,1,2.1.64q6.69,6.75,13.46,13.43a1.57,1.57,0,0,1,.35,2.11,14.84,14.84,0,0,0-1.06,9,15.57,15.57,0,0,0,14.41,12.94c.91,0,1.32.32,1.36,1.36a15.61,15.61,0,0,0,12.5,14.26c1,.19,2.07.3,3.08.44.17,1.16.25,2.23.48,3.27A15.75,15.75,0,0,0,176.56,216a1.47,1.47,0,0,1,2,.35c1.55,1.65,3.16,3.26,4.8,4.82,4.24,4,9.22,5.23,14.69,3.27s8.44-5.92,9.14-11.63c.1-.84.52-1,1.23-1.13a14,14,0,0,0,12.17-11.06c.24-1.07.31-2.17.49-3.27.65-.12,1.24-.24,1.82-.33,6.57-1,12.24-7.19,12.54-13.74.05-1.22.34-1.82,1.67-1.74a6.33,6.33,0,0,0,1.88-.37,15,15,0,0,0,10.16-20.33c-.3-.76-.37-1.26.31-1.88,4.61-4.15,9.19-8.35,13.75-12.55a1.12,1.12,0,0,1,1.55-.2,11,11,0,0,0,13.73-2L304.71,118C307.26,115.44,307.26,113,304.7,110.44Zm-166.27,66a6.69,6.69,0,0,1-6.64-6.6,6.66,6.66,0,1,1,13.31-.1A6.69,6.69,0,0,1,138.43,176.47Zm15.9,15.83a6.58,6.58,0,0,1-6.61-6.57,6.66,6.66,0,0,1,13.31-.06A6.6,6.6,0,0,1,154.33,192.3Zm15.83,15.93a6.63,6.63,0,1,1,.05-13.25,6.63,6.63,0,1,1-.05,13.25Zm69.17-37.4a5.92,5.92,0,0,1-8.51-.18c-3.16-3.13-6.3-6.29-9.45-9.44a4.48,4.48,0,0,0-4.73-1.13,4.29,4.29,0,0,0-3.11,3.73,4.43,4.43,0,0,0,1.43,3.93c3.12,3.12,6.27,6.21,9.35,9.37,2.71,2.78,2.76,6.62.2,9.17a6.28,6.28,0,0,1-9,0q-4.35-4.08-8.66-8.21a4.88,4.88,0,0,0-4.37-1.66,4.28,4.28,0,0,0-3.61,3.08,4.6,4.6,0,0,0,1.33,4.93c3.12,2.93,6.21,5.89,9.34,8.81a5.67,5.67,0,0,1,2.21,4.31,4.92,4.92,0,0,1-2.92,4.63,4.64,4.64,0,0,1-5.38-.65c-1.71-1.49-3.26-3.16-4.87-4.75-2-2-4.92-2.12-6.75-.25s-1.75,4.68.31,6.75c1.44,1.46,2.92,2.9,4.35,4.36,2.13,2.17,2.2,5.1.2,7.09s-4.88,1.91-7.07-.25c-1.57-1.57-3.13-3.17-4.73-4.72a1.29,1.29,0,0,1-.33-1.66c4.13-10-1.37-20.14-11.95-22.14-.78-.15-1.79,0-2.28-.5s-.26-1.45-.38-2.21A15.66,15.66,0,0,0,155.33,170c-.82,0-1.07-.28-1.12-1.1a15.69,15.69,0,0,0-16.55-14.77c-1.95.1-3.87.93-5.81,1.37-.42.1-1.08.13-1.32-.11-4.64-4.57-9.22-9.18-13.81-13.79a.57.57,0,0,1-.1-.21l41.07-41c.37.36.72.72,1.09,1.09l2.21,2.23c.37.38.74.76,1.12,1.13,4.42,4.42,3.35,3.92,9.47,3.93H174c-.55.6-.86,1-1.19,1.32-5.63,5.63-11.28,11.24-16.88,16.9a14.79,14.79,0,1,0,20.83,21q7.24-7.2,14.44-14.45a3,3,0,0,1,2.35-1c4.92.09,9.84.1,14.76.22a2.68,2.68,0,0,1,1.64.75Q221.49,144.72,233,156.1c2.07,2,4.15,4.09,6.2,6.15A5.86,5.86,0,0,1,239.33,170.83Zm3.38-18.08c-1.17-1.12-2.3-2.16-3.38-3.24Q227,137.39,214.77,125.24a5.82,5.82,0,0,0-4.36-1.8c-6.4,0-12.83,0-19.25-.16a6.33,6.33,0,0,0-4.89,2c-5.26,5.33-10.58,10.61-15.88,15.9-2.53,2.54-5.84,2.66-8.19.31s-2.23-5.7.27-8.21q11.91-12,23.9-23.86a2.92,2.92,0,0,1,1.89-.76q10.4-.08,20.8,0a5.5,5.5,0,0,0,4.23-1.76c1.87-1.93,3.77-3.83,5.57-5.64l38.26,38.27C252.37,143.9,247.58,148.28,242.71,152.75Z"/><path class="cls-6" d="M176.83,201.55a6.63,6.63,0,0,1-6.67,6.68,6.63,6.63,0,1,1,.05-13.25A6.6,6.6,0,0,1,176.83,201.55Z"/><path class="cls-6" d="M161,185.67a6.66,6.66,0,0,1-13.31.06,6.66,6.66,0,0,1,13.31-.06Z"/><path class="cls-6" d="M145.1,169.77a6.66,6.66,0,0,1-13.31.1,6.66,6.66,0,1,1,13.31-.1Z"/><path class="cls-6" d="M257.12,139.56c-4.75,4.34-9.54,8.72-14.41,13.19-1.17-1.12-2.3-2.16-3.38-3.24Q227,137.39,214.77,125.24a5.82,5.82,0,0,0-4.36-1.8c-6.4,0-12.83,0-19.25-.16a6.33,6.33,0,0,0-4.89,2c-5.26,5.33-10.58,10.61-15.88,15.9-2.53,2.54-5.84,2.66-8.19.31s-2.23-5.7.27-8.21q11.91-12,23.9-23.86a2.92,2.92,0,0,1,1.89-.76q10.4-.08,20.8,0a5.5,5.5,0,0,0,4.23-1.76c1.87-1.93,3.77-3.83,5.57-5.64Z"/><path class="cls-6" d="M239.33,170.83a5.92,5.92,0,0,1-8.51-.18c-3.16-3.13-6.3-6.29-9.45-9.44a4.48,4.48,0,0,0-4.73-1.13,4.29,4.29,0,0,0-3.11,3.73,4.43,4.43,0,0,0,1.43,3.93c3.12,3.12,6.27,6.21,9.35,9.37,2.71,2.78,2.76,6.62.2,9.17a6.28,6.28,0,0,1-9,0q-4.35-4.08-8.66-8.21a4.88,4.88,0,0,0-4.37-1.66,4.28,4.28,0,0,0-3.61,3.08,4.6,4.6,0,0,0,1.33,4.93c3.12,2.93,6.21,5.89,9.34,8.81a5.67,5.67,0,0,1,2.21,4.31,4.92,4.92,0,0,1-2.92,4.63,4.64,4.64,0,0,1-5.38-.65c-1.71-1.49-3.26-3.16-4.87-4.75-2-2-4.92-2.12-6.75-.25s-1.75,4.68.31,6.75c1.44,1.46,2.92,2.9,4.35,4.36,2.13,2.17,2.2,5.1.2,7.09s-4.88,1.91-7.07-.25c-1.57-1.57-3.13-3.17-4.73-4.72a1.29,1.29,0,0,1-.33-1.66c4.13-10-1.37-20.14-11.95-22.14-.78-.15-1.79,0-2.28-.5s-.26-1.45-.38-2.21A15.66,15.66,0,0,0,155.33,170c-.82,0-1.07-.28-1.12-1.1a15.69,15.69,0,0,0-16.55-14.77c-1.95.1-3.87.93-5.81,1.37-.42.1-1.08.13-1.32-.11-4.64-4.57-9.22-9.18-13.81-13.79a.57.57,0,0,1-.1-.21l41.07-41.06c1.43,1.44,2.92,3,4.42,4.46,4.42,4.42,3.35,3.92,9.47,3.93H174c-.55.6-.86,1-1.19,1.32-5.63,5.63-11.28,11.24-16.88,16.9a14.79,14.79,0,1,0,20.83,21q7.24-7.2,14.44-14.45a3,3,0,0,1,2.35-1c4.92.09,9.84.1,14.76.22a2.68,2.68,0,0,1,1.64.75Q221.49,144.72,233,156.1c2.07,2,4.15,4.09,6.2,6.15A5.86,5.86,0,0,1,239.33,170.83Z"/><path class="cls-4" d="M245.79,54.07a4.53,4.53,0,0,1,4.51,4.6,4.56,4.56,0,1,1-9.12-.12A4.5,4.5,0,0,1,245.79,54.07Z"/><path class="cls-4" d="M272.49,111.84a4.52,4.52,0,1,1-4.59,4.49A4.47,4.47,0,0,1,272.49,111.84Z"/><path class="cls-4" d="M107.22,116.86a4.43,4.43,0,0,1-4.56,4.5,4.54,4.54,0,1,1,.08-9.08A4.43,4.43,0,0,1,107.22,116.86Z"/><path class="cls-4" d="M129.83,63.49a4.52,4.52,0,1,1,0-9,4.52,4.52,0,1,1,0,9Z"/><path class="cls-5" d="M185,57.07h64.3a59,59,0,0,1,59,59v55a59,59,0,0,1-59,59H185a0,0,0,0,1,0,0v-173A0,0,0,0,1,185,57.07Z"/></g></g></g></svg>