<svg xmlns="http://www.w3.org/2000/svg" viewBox="0 0 368.33 297.73"><defs><style>.cls-1{isolation:isolate;}.cls-2{fill:#d4fffe;}.cls-3{fill:#131662;}.cls-4,.cls-5,.cls-9{fill:none;}.cls-4,.cls-5,.cls-6,.cls-7{stroke:#131662;stroke-linecap:round;}.cls-4,.cls-5,.cls-6,.cls-7,.cls-9{stroke-miterlimit:10;}.cls-4{stroke-width:6.81px;}.cls-5{stroke-width:5.57px;}.cls-6,.cls-7{fill:#01d5d5;}.cls-6{stroke-width:3.8px;}.cls-7{stroke-width:5.4px;}.cls-8{fill:#fff;opacity:0.88;mix-blend-mode:soft-light;}.cls-9{stroke:#fff;stroke-width:3.7px;}</style></defs><g class="cls-1"><g id="Layer_2" data-name="Layer 2"><g id="Layer_1-2" data-name="Layer 1"><path class="cls-2" d="M120,4.87C94.72,14.85,80,40.58,61,59.89c-11,11.12-23.7,20.29-34.9,31S4.8,114.6,1.39,129.85C-5.1,158.66,13,186.83,17.78,216c1.55,9.34,1.63,18.91,4.63,27.84A63,63,0,0,0,33.61,263c19.23,23.38,50.07,36.6,80.27,34.58,20-1.3,39-8.85,59-9.66,30-1.22,60.46,12.74,89.6,5.35,13.39-3.4,25.32-11.2,36.84-19,22.73-15.58,46.34-34.65,51.62-61.68,3.89-19.88-3-40.82,1.78-60.46,2.84-11.36,9.42-21.51,12.83-32.71,7.38-23.78-.49-50.8-17.29-69.22S306.87,21.59,282.12,19.4c-16.32-1.46-32.63.32-48.94.08C193.41,18.67,161.27-11.52,120,4.87Z"/><path class="cls-3" d="M65.11,95.25a2.16,2.16,0,0,0-3-.15l-3.4,3.08-3.08-3.4a2.15,2.15,0,1,0-3.18,2.88l3.07,3.4-3.4,3.08a2.15,2.15,0,0,0,2,3.68,2.17,2.17,0,0,0,.93-.5l3.41-3.08,3.07,3.41a2.15,2.15,0,0,0,2.1.64,2,2,0,0,0,.93-.49,2.15,2.15,0,0,0,.16-3l-3.08-3.41L65,98.29A2.16,2.16,0,0,0,65.11,95.25Z"/><path class="cls-3" d="M103.55,42.82a1.3,1.3,0,0,0-1.8-.37L99.42,44l-1.53-2.32a1.3,1.3,0,0,0-2.18,1.43l1.53,2.33L94.92,47a1.31,1.31,0,0,0,.83,2.39,1.4,1.4,0,0,0,.6-.21l2.33-1.54,1.53,2.33a1.31,1.31,0,0,0,1.2.58,1.24,1.24,0,0,0,.6-.21,1.29,1.29,0,0,0,.37-1.8l-1.53-2.33,2.33-1.53A1.3,1.3,0,0,0,103.55,42.82Z"/><path class="cls-3" d="M301.83,107.4a2.16,2.16,0,0,1,3-.16l3.4,3.08,3.08-3.4a2.15,2.15,0,1,1,3.18,2.88l-3.07,3.4,3.4,3.08a2.15,2.15,0,0,1-1.95,3.68,2.07,2.07,0,0,1-.93-.5l-3.41-3.07-3.07,3.4a2.14,2.14,0,0,1-2.1.65,2.26,2.26,0,0,1-.94-.5,2.15,2.15,0,0,1-.15-3l3.08-3.4-3.4-3.08A2.15,2.15,0,0,1,301.83,107.4Z"/><path class="cls-3" d="M269.36,54a1.32,1.32,0,0,1,1.81-.37l2.32,1.53L275,52.85a1.3,1.3,0,1,1,2.18,1.43l-1.53,2.33L278,58.14a1.3,1.3,0,0,1-.82,2.38,1.18,1.18,0,0,1-.61-.21l-2.32-1.53-1.54,2.33a1.3,1.3,0,0,1-1.2.58,1.4,1.4,0,0,1-.6-.21,1.3,1.3,0,0,1-.37-1.81l1.53-2.32-2.33-1.53A1.32,1.32,0,0,1,269.36,54Z"/><line class="cls-4" x1="287.42" y1="250.88" x2="308.42" y2="250.88"/><line class="cls-4" x1="61.85" y1="250.88" x2="266.44" y2="250.88"/><circle class="cls-3" cx="66.05" cy="175.09" r="4.13"/><circle class="cls-3" cx="299.05" cy="176.09" r="4.13"/><polyline class="cls-5" points="90.01 90.07 117.02 123.25 115.48 222.81 250.14 223.19"/><rect class="cls-6" x="134.38" y="132.9" width="99.55" height="72.54"/><circle class="cls-7" cx="230.85" cy="235.54" r="10.03"/><circle class="cls-7" cx="141.85" cy="235.54" r="10.03"/><rect class="cls-8" x="103.7" y="76.25" width="80.13" height="178.36" rx="19.66"/><circle class="cls-3" cx="184.54" cy="134.44" r="22.38"/><polyline class="cls-9" points="172.43 136.53 180.46 143.32 195.89 124.8"/></g></g></g></svg>