<svg xmlns="http://www.w3.org/2000/svg" viewBox="0 0 368.33 297.73"><defs><style>.cls-1{fill:#d4fffe;}.cls-2{fill:#131662;}.cls-3{fill:none;stroke:#131662;stroke-linecap:round;stroke-miterlimit:10;stroke-width:6.73px;}.cls-4{fill:#01d5d5;}.cls-5{fill:#eaad00;}</style></defs><g id="Layer_2" data-name="Layer 2"><g id="Layer_1-2" data-name="Layer 1"><path class="cls-1" d="M120,4.87C94.72,14.85,80,40.58,61,59.89c-11,11.12-23.7,20.29-34.9,31S4.8,114.6,1.39,129.85C-5.1,158.66,13,186.83,17.78,216c1.55,9.34,1.63,18.91,4.63,27.84A63,63,0,0,0,33.61,263c19.23,23.38,50.07,36.6,80.27,34.58,20-1.3,39-8.85,59-9.66,30-1.22,60.46,12.74,89.6,5.35,13.39-3.4,25.32-11.2,36.84-19,22.73-15.58,46.34-34.65,51.62-61.68,3.89-19.88-3-40.82,1.78-60.46,2.84-11.36,9.42-21.51,12.83-32.71,7.38-23.78-.49-50.8-17.29-69.22S306.87,21.59,282.12,19.4c-16.32-1.46-32.63.32-48.94.08C193.41,18.67,161.27-11.52,120,4.87Z"/><path class="cls-2" d="M94.5,80.74a2.86,2.86,0,0,0-4-.2l-4.54,4.1L81.81,80.1A2.87,2.87,0,0,0,77.56,84l4.11,4.54-4.54,4.1a2.87,2.87,0,0,0,2.6,4.91A2.83,2.83,0,0,0,81,96.84l4.54-4.1,4.1,4.53a2.86,2.86,0,1,0,4.25-3.84l-4.1-4.54,4.54-4.1A2.87,2.87,0,0,0,94.5,80.74Z"/><path class="cls-2" d="M306.12,83.56a2.86,2.86,0,0,0-4-.2l-4.54,4.1-4.11-4.54a2.86,2.86,0,0,0-4.25,3.84l4.11,4.54-4.54,4.11a2.86,2.86,0,1,0,3.84,4.25l4.54-4.11,4.1,4.54A2.87,2.87,0,0,0,304,101a2.76,2.76,0,0,0,1.24-.65,2.87,2.87,0,0,0,.2-4l-4.1-4.54,4.54-4.1A2.87,2.87,0,0,0,306.12,83.56Z"/><path class="cls-2" d="M103.52,48.8a1.28,1.28,0,0,0-1.78-.36L99.44,50l-1.51-2.3a1.29,1.29,0,1,0-2.15,1.42l1.51,2.29L95,52.87a1.29,1.29,0,0,0,.82,2.36,1.19,1.19,0,0,0,.59-.2l2.3-1.52,1.51,2.3a1.27,1.27,0,0,0,1.78.37,1.29,1.29,0,0,0,.37-1.79l-1.51-2.29,2.3-1.51A1.3,1.3,0,0,0,103.52,48.8Z"/><path class="cls-2" d="M279.13,55.9a1.29,1.29,0,0,1,1.78-.37l2.3,1.52,1.51-2.3a1.29,1.29,0,1,1,2.15,1.42l-1.51,2.29,2.3,1.51a1.3,1.3,0,0,1,.37,1.79,1.28,1.28,0,0,1-1.19.57,1.24,1.24,0,0,1-.6-.21L284,60.61l-1.52,2.3a1.26,1.26,0,0,1-1.18.57,1.23,1.23,0,0,1-.6-.2,1.3,1.3,0,0,1-.37-1.79l1.52-2.29-2.3-1.51A1.3,1.3,0,0,1,279.13,55.9Z"/><line class="cls-3" x1="290.57" y1="237.49" x2="311.31" y2="237.49"/><line class="cls-3" x1="67.79" y1="237.49" x2="269.85" y2="237.49"/><path class="cls-2" d="M180.34,86.58h10.07a17.91,17.91,0,0,0,15.37,17.7V98.51a27.93,27.93,0,1,0-55.85,0v5.94h12.55A17.9,17.9,0,0,0,180.34,86.58Z"/><path class="cls-4" d="M130.63,136.94h9.5a45.73,45.73,0,0,1-.27-4.84V98.54a38,38,0,1,1,76,0v33.56a45.1,45.1,0,0,1-.27,4.83h9.5a13.71,13.71,0,0,0,13.69-13.7V107.91a13.71,13.71,0,0,0-13.15-13.7,48,48,0,0,0-95.52,0,13.71,13.71,0,0,0-13.16,13.7V123.2a13.72,13.72,0,0,0,13.69,13.74Z"/><path class="cls-5" d="M177.86,162.17a27.13,27.13,0,0,0,21.38-10.75H183.63V141.34h20.81a32.36,32.36,0,0,0,1.34-9.24V114.43a27.92,27.92,0,0,1-20.4-11.86,27.94,27.94,0,0,1-22.89,12H149.93v17.54C149.93,148.66,162.45,162.17,177.86,162.17Z"/><path class="cls-4" d="M206.15,172.31V158.87a36.63,36.63,0,0,1-56.45.17v13.27h0c6.62,5.14,17.59,12.2,28.16,12.2s21.65-7.06,28.33-12.2Z"/><path class="cls-2" d="M251.09,187.09,217.43,176c-5.71,5.07-22.39,18.51-39.61,18.51S144,181.08,138.39,176l-33.77,11.08a18.43,18.43,0,0,0-12.69,17.54v18.44h34.68V205.6h10.06v17.47H219V205.6h10.07v17.47h34.67V204.63a18.42,18.42,0,0,0-12.69-17.54Z"/></g></g></svg>