<?xml version="1.0" encoding="utf-8"?>
<!-- Generator: Adobe Illustrator 24.1.1, SVG Export Plug-In . SVG Version: 6.00 Build 0)  -->
<svg version="1.1" id="Layer_1" xmlns="http://www.w3.org/2000/svg" xmlns:xlink="http://www.w3.org/1999/xlink" x="0px" y="0px"
	 viewBox="0 0 698.8 597.7" style="enable-background:new 0 0 698.8 597.7;" xml:space="preserve">
<style type="text/css">
	.st0{opacity:0.18;fill:#01C6C6;enable-background:new    ;}
	.st1{fill:#01C6C6;}
	.st2{fill:url(#SVGID_1_);}
	.st3{fill:url(#SVGID_2_);}
	.st4{fill:url(#SVGID_3_);}
	.st5{fill:url(#SVGID_4_);}
	.st6{fill:url(#SVGID_5_);}
	.st7{fill:url(#SVGID_6_);}
	.st8{fill:url(#SVGID_7_);}
	.st9{fill:url(#SVGID_8_);}
	.st10{fill:none;stroke:#6C62FF;stroke-width:0.74;stroke-miterlimit:10;}
	.st11{fill:url(#SVGID_9_);}
	.st12{fill:url(#SVGID_10_);}
	.st13{fill:#FFFFFF;}
	.st14{fill:url(#SVGID_11_);}
	.st15{fill:url(#SVGID_12_);}
	.st16{fill:#3F3D56;}
	.st17{fill:url(#SVGID_13_);}
	.st18{fill:url(#SVGID_14_);}
	.st19{fill:url(#SVGID_15_);}
	.st20{fill:url(#SVGID_16_);}
	.st21{fill:url(#SVGID_17_);}
	.st22{fill:url(#SVGID_18_);}
	.st23{fill:url(#SVGID_19_);}
	.st24{fill:url(#SVGID_20_);}
</style>
<path class="st0" d="M54.1,474.6c0,0-65.9-32.7-52.3-117s147-157.9,199.4-213.1S307.8-5.6,448.1,0.3s138.4,99.8,204.2,134.1
	s3.9,153.4,9.7,181.9s80.1,114.7-9.3,174.2S54.1,474.6,54.1,474.6z"/>
<path class="st1" d="M1.8,557.9v25c0,0,3.2,15.7,32.3,14.8s645.7,0,645.7,0s15.8-2.6,18.9-15.4v-24.4H1.8z"/>
<linearGradient id="SVGID_1_" gradientUnits="userSpaceOnUse" x1="401.6235" y1="68.4588" x2="412.8135" y2="-166.4513" gradientTransform="matrix(1 0 0 -1 -53.17 600)">
	<stop  offset="0" style="stop-color:#000000;stop-opacity:0"/>
	<stop  offset="0.97" style="stop-color:#000000"/>
</linearGradient>
<path class="st2" d="M1.8,557.9v25c0,0,3.2,15.7,32.3,14.8s645.7,0,645.7,0s15.8-2.6,18.9-15.4v-24.4H1.8z"/>
<path class="st1" d="M610.2,433.1H81.7c-12.5,0-22.7-10.1-22.7-21.7V88.2c0-13.5,10.2-23.7,22.7-23.7h528.5
	c12.5,0,22.6,10.2,22.6,22.7v323.3C632.8,423,622.7,433.1,610.2,433.1z"/>
<path class="st1" d="M93.5,77.8h504.7c11.7,0,21.1,9.4,21.1,21.1V392c0,11.7-9.4,21.1-21.1,21.1H93.5c-11.7,0-21.1-9.4-21.1-21.1
	V98.9C72.4,87.3,81.8,77.8,93.5,77.8z"/>
<linearGradient id="SVGID_2_" gradientUnits="userSpaceOnUse" x1="343.7293" y1="619.89" x2="352.9293" y2="42.88" gradientTransform="matrix(1 0 0 -1 0 600)">
	<stop  offset="0" style="stop-color:#FFFFFF"/>
	<stop  offset="1" style="stop-color:#FFFFFF;stop-opacity:0"/>
</linearGradient>
<path class="st3" d="M95.6,77.8h504.7c11.7,0,21.1,9.4,21.1,21.1V392c0,11.7-9.4,21.1-21.1,21.1H95.6c-11.7,0-21.1-9.4-21.1-21.1
	V98.9C74.5,87.3,83.9,77.8,95.6,77.8z"/>
<linearGradient id="SVGID_3_" gradientUnits="userSpaceOnUse" x1="347.7201" y1="370.0596" x2="317.8501" y2="361.6296" gradientTransform="matrix(1 0 0 -1 -53.17 600)">
	<stop  offset="0" style="stop-color:#ECC4D7"/>
	<stop  offset="0.42" style="stop-color:#EFD4D1"/>
	<stop  offset="1" style="stop-color:#F2EAC9"/>
</linearGradient>
<path class="st4" d="M293,221.9c0,0-6.7-8.3-12.1-1.4c-5.4,6.9,2.6,23.1,15.5,23.4S293,221.9,293,221.9z"/>
<linearGradient id="SVGID_4_" gradientUnits="userSpaceOnUse" x1="187.0838" y1="527.4198" x2="175.4738" y2="293.1898" gradientTransform="matrix(1 0 0 -1 0 600)">
	<stop  offset="0" style="stop-color:#FFFFFF"/>
	<stop  offset="1" style="stop-color:#FFFFFF;stop-opacity:0"/>
</linearGradient>
<rect x="107.5" y="104.9" class="st5" width="150.1" height="118.8"/>
<linearGradient id="SVGID_5_" gradientUnits="userSpaceOnUse" x1="254.98" y1="454.6509" x2="260.59" y2="454.6509" gradientTransform="matrix(1 0 0 -1 -53.17 600)">
	<stop  offset="0" style="stop-color:#ECC4D7"/>
	<stop  offset="0.42" style="stop-color:#EFD4D1"/>
	<stop  offset="1" style="stop-color:#F2EAC9"/>
</linearGradient>
<path class="st6" d="M207.3,142.5c0.1,0.7,0.1,1.4-0.1,2.1c-0.3,1.2-0.8,2.4-1.6,3.3c-0.8,1-2,1.6-3.3,1.6c-0.2,0-0.3,0-0.5-0.2
	c-0.1-0.1-0.1-0.2-0.1-0.3c-0.1-1.9-0.2-4.7,1-6.2C203.9,141.4,206.7,140.2,207.3,142.5z"/>
<linearGradient id="SVGID_6_" gradientUnits="userSpaceOnUse" x1="211.5268" y1="453.4051" x2="219.0668" y2="453.4051" gradientTransform="matrix(1 0 0 -1 -53.17 600)">
	<stop  offset="0" style="stop-color:#ECC4D7"/>
	<stop  offset="0.42" style="stop-color:#EFD4D1"/>
	<stop  offset="1" style="stop-color:#F2EAC9"/>
</linearGradient>
<path class="st7" d="M159.8,142.4c-0.9,0.6-1.5,1.6-1.5,2.7c0,1.1,0.3,2.2,1,3.1c0.6,0.7,1.3,1.3,2.1,1.8c1,0.7,2.1,1.2,3.3,1.3
	c0.3,0,0.7-0.1,0.9-0.3c0.1-0.2,0.2-0.5,0.2-0.7C166,147.3,164.5,140.1,159.8,142.4z"/>
<linearGradient id="SVGID_7_" gradientUnits="userSpaceOnUse" x1="215.475" y1="452.7265" x2="214.615" y2="448.8165" gradientTransform="matrix(1 0 0 -1 -53.17 600)">
	<stop  offset="0" style="stop-color:#ECC4D7"/>
	<stop  offset="0.42" style="stop-color:#EFD4D1"/>
	<stop  offset="1" style="stop-color:#F2EAC9"/>
</linearGradient>
<path class="st8" d="M164.1,147.4c-0.8,0.1-1.5-0.2-2-0.9c-0.7-1.1-1-2.4-2-1.8s-0.4,2.7,0.5,3.9s3.7,2.1,4.1,1.3
	S164.1,147.4,164.1,147.4z"/>
<linearGradient id="SVGID_8_" gradientUnits="userSpaceOnUse" x1="-184.123" y1="454.0172" x2="-184.973" y2="450.1072" gradientTransform="matrix(-1 0 0 -1 19.56 600)">
	<stop  offset="0" style="stop-color:#ECC4D7"/>
	<stop  offset="0.42" style="stop-color:#EFD4D1"/>
	<stop  offset="1" style="stop-color:#F2EAC9"/>
</linearGradient>
<path class="st9" d="M201.9,146.1c0.8,0.1,1.5-0.2,1.9-0.9c0.8-1.1,1-2.4,2-1.8s0.4,2.7-0.5,3.9s-3.6,2.1-4.1,1.3
	S201.9,146.1,201.9,146.1z"/>
<path class="st10" d="M205.7,413.1h1.8C206.5,415.1,205.7,413.1,205.7,413.1z"/>
<linearGradient id="SVGID_9_" gradientUnits="userSpaceOnUse" x1="344.6479" y1="374.6888" x2="482.9717" y2="374.6888" gradientTransform="matrix(1 0 0 -1 -53.17 600)">
	<stop  offset="0" style="stop-color:#ECC4D7"/>
	<stop  offset="0.42" style="stop-color:#EFD4D1"/>
	<stop  offset="1" style="stop-color:#F2EAC9"/>
</linearGradient>
<path class="st11" d="M384.5,297c0,0-1.9,10,9.8,18.5c-2.8,4.1-10.5,12-23.5,15.6l0,0c-5.8,1.6-11.8,2.2-17.8,1.8
	c-10.2-0.6-19.3-5-26.5-10.1l-1.1-0.8c-5.6-4.2-10.6-9.1-15-14.6c8.6-5.5,15.8-12.7,8.3-19.1c0,0-0.1-0.1-0.2-0.1
	c-0.1-0.1-0.1-0.1-0.2-0.2l-0.1-0.1c-28.8-22.3-26.5-99-26.5-99c29.2-111,101.1-60.9,116.6-55s26.6,42.6,19.6,83.2
	C419.5,264.2,384.5,297,384.5,297z"/>
<path class="st1" d="M512.6,413.1h-305c1-1.9,2.2-7.4,3.3-21.4c4.9-62.6,82.4-75.7,82.4-75.7c3.9-1.5,7.6-3.3,11.3-5.2l11.9,14
	c3.4,3.9,12.2,6.9,12.2,6.9c45.6,22.3,65.6-4.3,70.6-13c17.2,8.9,60.8,22.5,84.7,40.6C510.4,379.1,512.6,413.1,512.6,413.1z"/>
<linearGradient id="SVGID_10_" gradientUnits="userSpaceOnUse" x1="410.4012" y1="290.59" x2="407.6413" y2="-37.47" gradientTransform="matrix(1 0 0 -1 -53.17 600)">
	<stop  offset="0" style="stop-color:#000000;stop-opacity:0"/>
	<stop  offset="0.97" style="stop-color:#000000"/>
</linearGradient>
<path class="st12" d="M505.4,386.7l-2.8,26.4H207.5c1-1.9,2.2-7.4,3.3-21.4c4.9-62.6,82.5-75.7,82.5-75.7c3.9-1.5,7.6-3.3,11.3-5.2
	l11.9,14c3.4,3.9,12.2,6.9,12.2,6.9c45.6,22.3,65.6-4.3,70.6-13c17.2,8.9,60.8,22.5,84.7,40.6C493.4,366.5,500.7,375.9,505.4,386.7z
	"/>
<path class="st13" d="M400.8,316c0,0-5.5,25.1-34.7,26.6c-45.5,2.4-63.3-34-63.3-34l5.4-3.9c0,0,0.7,1.1,2.1,2.8
	c5.6,6.9,21.6,24.3,42.6,25.5c24.1,1.4,37.4-11.7,41.3-17.4c0.3-0.5,0.6-0.9,0.9-1.4L400.8,316z"/>
<path class="st1" d="M125.7,223.6c0,0-1.9-31.6,24.4-45s88.7-1.9,85.5,45H125.7z"/>
<linearGradient id="SVGID_11_" gradientUnits="userSpaceOnUse" x1="233.9975" y1="430.1994" x2="237.7175" y2="413.0494" gradientTransform="matrix(1 0 0 -1 -53.17 600)">
	<stop  offset="0" style="stop-color:#ECC4D7"/>
	<stop  offset="0.42" style="stop-color:#EFD4D1"/>
	<stop  offset="1" style="stop-color:#F2EAC9"/>
</linearGradient>
<path class="st14" d="M171.7,156.5v9.3c0,4.4-3.1,8.1-7.4,8.8l-6.5,1.1c0,0,9.4,20.5,29.1,15.1s20.6-10.9,20.6-10.9l-4.7-1.6
	c-4-1.4-6.7-5.2-6.7-9.4l-0.1-12.4H171.7z"/>
<linearGradient id="SVGID_12_" gradientUnits="userSpaceOnUse" x1="225.8644" y1="481.8624" x2="245.0144" y2="446.4224" gradientTransform="matrix(1 0 0 -1 -53.17 600)">
	<stop  offset="0" style="stop-color:#ECC4D7"/>
	<stop  offset="0.42" style="stop-color:#EFD4D1"/>
	<stop  offset="1" style="stop-color:#F2EAC9"/>
</linearGradient>
<path class="st15" d="M162.8,136.4c0,0-0.7,13.4,7.3,24.3c8.7,11.8,20.7,14,28.7,0c2.3-4,6.6-25.5,4.9-32.9S173.4,99.3,162.8,136.4z
	"/>
<path class="st16" d="M159.1,125.9c0.6-0.4,1.1-0.8,1.6-1.4c0.4-0.8,0.6-1.7,0.6-2.6c0.4-6,5.8-10.6,11.3-12.8
	c10-4.1,22.4-2.3,30.4,5c2.9,2.6,5.4,6,9.2,7.1c0.8,0.1,1.5,0.4,2.1,0.9c1.2,1.2,0.3,3.3-1,4.4c-0.3,0.2-0.6,0.5-0.7,0.9
	c-0.4,1,0.9,1.8,2,2.2c-1,1.3-2.2,2.4-3.5,3.2c0.7,0.1,0.9,1.1,0.6,1.7c-0.4,0.6-1,1-1.6,1.3c-1.8,1.2-2.6,3.3-3.8,5.2
	s-2.9,3.6-5,3.5c1.3-4.9,0.7-10.1-1.6-14.6c-9.8,2.6-20-0.5-29.8-3.2c-0.7-0.3-1.5-0.3-2.3,0c-1.3,0.7-0.9,2.6-0.3,3.9
	c-1.2,0-1.8,1.5-2.1,2.7c-0.4,1.8-0.6,3.6-0.6,5.5c0,1.1,0.8,4.8,0.3,5.5c-1,1.5-2.5-0.9-3.3-2.1
	C158.8,138.5,154.2,129.8,159.1,125.9z"/>
<path class="st1" d="M81.7,433.1L4.2,549.7C0,556,1.7,564.4,8,568.6c2.2,1.5,4.9,2.3,7.6,2.3h669.6c7.5,0,13.7-6.1,13.7-13.7
	c0-2.9-0.9-5.8-2.7-8.1l-85.9-116L81.7,433.1z"/>
<linearGradient id="SVGID_13_" gradientUnits="userSpaceOnUse" x1="485.4024" y1="315.1063" x2="396.0623" y2="17.9863" gradientTransform="matrix(1 0 0 -1 -53.17 600)">
	<stop  offset="0" style="stop-color:#FFFFFF"/>
	<stop  offset="0.89" style="stop-color:#FFFFFF;stop-opacity:0"/>
</linearGradient>
<path class="st17" d="M81.7,433.1L4.2,549.7C0,556,1.7,564.4,8,568.6c2.2,1.5,4.9,2.3,7.6,2.3h669.6c7.5,0,13.7-6.1,13.7-13.7
	c0-2.9-0.9-5.8-2.7-8.1l-85.9-116L81.7,433.1z"/>
<linearGradient id="SVGID_14_" gradientUnits="userSpaceOnUse" x1="344.7403" y1="200.18" x2="343.8003" y2="-36.59" gradientTransform="matrix(1 0 0 -1 0 600)">
	<stop  offset="0" style="stop-color:#000000;stop-opacity:0"/>
	<stop  offset="0.97" style="stop-color:#000000"/>
</linearGradient>
<polygon class="st18" points="596.5,454 92.6,454 97.2,444.9 589.6,444.9 "/>
<linearGradient id="SVGID_15_" gradientUnits="userSpaceOnUse" x1="349.9474" y1="304.6001" x2="344.3574" y2="48.2501" gradientTransform="matrix(1 0 0 -1 0 600)">
	<stop  offset="0" style="stop-color:#FFFFFF"/>
	<stop  offset="0.6" style="stop-color:#FFFFFF;stop-opacity:0.48"/>
	<stop  offset="0.87" style="stop-color:#FFFFFF;stop-opacity:0.13"/>
	<stop  offset="1" style="stop-color:#FFFFFF;stop-opacity:0"/>
</linearGradient>
<polygon class="st19" points="606.5,467.5 85.9,467.5 92.6,454 596.5,454 "/>
<linearGradient id="SVGID_16_" gradientUnits="userSpaceOnUse" x1="348.2815" y1="200.17" x2="347.3515" y2="-36.61" gradientTransform="matrix(1 0 0 -1 0 600)">
	<stop  offset="0" style="stop-color:#000000;stop-opacity:0"/>
	<stop  offset="0.97" style="stop-color:#000000"/>
</linearGradient>
<polygon class="st20" points="617.1,481.7 78.8,481.7 85.9,467.5 606.5,467.5 "/>
<linearGradient id="SVGID_17_" gradientUnits="userSpaceOnUse" x1="353.6546" y1="293.4299" x2="348.0545" y2="37.0699" gradientTransform="matrix(1 0 0 -1 0 600)">
	<stop  offset="0" style="stop-color:#FFFFFF"/>
	<stop  offset="1" style="stop-color:#FFFFFF;stop-opacity:0"/>
</linearGradient>
<polygon class="st21" points="626.7,494.5 72.4,494.5 78.8,481.7 617.1,481.7 "/>
<linearGradient id="SVGID_18_" gradientUnits="userSpaceOnUse" x1="359.0505" y1="144.24" x2="348.7906" y2="-198.8" gradientTransform="matrix(1 0 0 -1 0 600)">
	<stop  offset="0" style="stop-color:#000000;stop-opacity:0"/>
	<stop  offset="0.97" style="stop-color:#000000"/>
</linearGradient>
<polygon class="st22" points="258.6,503.3 441.2,503.3 467,545.5 245.8,545.5 "/>
<path class="st16" d="M286.2,121.4c0.1,1.8,0.5,3.6,0.1,5.3c-0.5,1.6-1.4,3.1-2.5,4.4c-10.9,14.6-11.4,34.3-11.5,52.5
	c0,4.6,0,9.3,1.3,13.7c1.3,4.3,3.8,8,6.3,11.7c1.2,1.8,10.9,12.7,13,12.9c2.9,0.3-5.6-47.9,51.9-52.5c5.8-0.5,11.5,0.3,17.2,0.4
	c3.4,0.1,6.8-0.3,10.2-0.2c5.8,0.2,11.3,2.1,16.7,3.9c9.9,3.3,20.3,7.1,26.4,15.5l5.5-3l0.8,19.9l0.2,4.8l1.2,29l12.6-19.1
	c7.9-11.9,16.1-26.6,10.3-39.6c-2.7-6.1-8.3-10.8-10.6-17.1c-3.3-8.8,0.3-18.6-0.7-27.9c-2-18.2-21.3-29.9-39.4-31.8
	c-4-0.4-8.2-0.5-12.2-1.3c-4-0.9-7.8-2-11.6-3.4c-7.8-2.7-16.9-5-24-0.8c-2.8,1.6-5,4.2-8,5.5c-5.2,2.3-11.1,0.5-16.8-0.1
	C311.7,103,285.5,105.4,286.2,121.4z"/>
<linearGradient id="SVGID_19_" gradientUnits="userSpaceOnUse" x1="148.0002" y1="364.1992" x2="118.1302" y2="355.7692" gradientTransform="matrix(-1 0 0 -1 568.79 600)">
	<stop  offset="0" style="stop-color:#ECC4D7"/>
	<stop  offset="0.42" style="stop-color:#EFD4D1"/>
	<stop  offset="1" style="stop-color:#F2EAC9"/>
</linearGradient>
<path class="st23" d="M422.4,227.8c0,0,6.7-8.3,12.1-1.4s-2.7,23.1-15.5,23.4S422.4,227.8,422.4,227.8z"/>
<linearGradient id="SVGID_20_" gradientUnits="userSpaceOnUse" x1="394.5288" y1="286.1587" x2="371.3788" y2="135.6687" gradientTransform="matrix(1 0 0 -1 -53.17 600)">
	<stop  offset="0" style="stop-color:#ECC4D7"/>
	<stop  offset="0.42" style="stop-color:#EFD4D1"/>
	<stop  offset="1" style="stop-color:#F2EAC9"/>
</linearGradient>
<path class="st24" d="M370.7,331.2L370.7,331.2c0,0-19.4,9.9-44.3-8.3l-1.1-0.8c-5.5-4.3-10.5-9.2-15-14.6
	c8.6-5.5,15.8-12.7,8.3-19.1c3.7,3,26.4,20.4,41.5,16.3C376.4,300.2,370.8,330.5,370.7,331.2z"/>
<circle class="st13" cx="551.7" cy="117.5" r="9.7"/>
</svg>
