<svg xmlns="http://www.w3.org/2000/svg" viewBox="0 0 238.01 153.14"><defs><style>.cls-1{fill:#d0eaf2;}.cls-2,.cls-4{fill:none;stroke:#131662;stroke-miterlimit:10;}.cls-2{stroke-width:4.39px;}.cls-3{fill:#131662;}.cls-4{stroke-linecap:round;stroke-width:5.98px;}</style></defs><g id="Layer_2" data-name="Layer 2"><g id="Layer_1-2" data-name="Layer 1"><rect class="cls-1" x="35.41" y="27.09" width="77.55" height="121.9" rx="10.9"/><path class="cls-2" d="M185.22,109.91v36.45c0,2.09-3.14,3.79-7,3.79H56c-3.84,0-7-1.7-7-3.79V109.91c0-2.08,3.14-3.79,7-3.79H178.25C182.08,106.12,185.22,107.83,185.22,109.91Z"/><line class="cls-2" x1="144.67" y1="28.3" x2="89.54" y2="28.3"/><path class="cls-2" d="M153.39,28.3H184.6a7,7,0,0,1,7,7V99.14a7,7,0,0,1-7,7h-135a7,7,0,0,1-7-7V35.27a7,7,0,0,1,7-7h31.2"/><path class="cls-3" d="M133.45,4.34H100.76c-11,0-19.94,9.76-19.94,21.75v4.38h8.72V26.09c0-6.75,5-12.24,11.22-12.24h32.69c6.19,0,11.22,5.49,11.22,12.24v4.38h8.72V26.09C153.39,14.1,144.44,4.34,133.45,4.34Z"/><rect class="cls-3" x="100.81" y="99.1" width="33.48" height="12.56" rx="4.22"/><path class="cls-3" d="M16.28,29.92a2.56,2.56,0,0,0-3.6-.18l-4,3.65L5,29.36a2.55,2.55,0,1,0-3.78,3.41l3.65,4-4,3.65a2.54,2.54,0,0,0,2.31,4.36,2.45,2.45,0,0,0,1.1-.58l4-3.65,3.64,4a2.55,2.55,0,0,0,3.78-3.41l-3.65-4,4-3.65A2.56,2.56,0,0,0,16.28,29.92Z"/><path class="cls-3" d="M237.35,30.74a2.54,2.54,0,0,0-3.59-.18l-4,3.65-3.65-4a2.55,2.55,0,1,0-3.77,3.42l3.65,4-4,3.65a2.55,2.55,0,0,0,3.42,3.78l4-3.65,3.65,4a2.55,2.55,0,0,0,2.49.77,2.47,2.47,0,0,0,1.1-.59,2.53,2.53,0,0,0,.18-3.59l-3.64-4,4-3.64A2.56,2.56,0,0,0,237.35,30.74Z"/><path class="cls-3" d="M24.29,1.54a1.14,1.14,0,0,0-1.58-.33l-2,1.35-1.35-2A1.13,1.13,0,0,0,17.74.19a1.15,1.15,0,0,0-.33,1.58l1.35,2-2,1.35a1.14,1.14,0,0,0-.33,1.58,1.12,1.12,0,0,0,1.05.51A1,1,0,0,0,18,7.07l2-1.35,1.35,2.05a1.16,1.16,0,0,0,1.05.51,1.15,1.15,0,0,0,.86-1.77l-1.34-2,2-1.35A1.14,1.14,0,0,0,24.29,1.54Z"/><line class="cls-4" x1="213.33" y1="150.15" x2="231.76" y2="150.15"/><line class="cls-4" x1="15.36" y1="150.15" x2="194.92" y2="150.15"/><circle class="cls-3" cx="213.15" cy="5.09" r="3.42"/><rect class="cls-3" x="117.13" y="38.38" width="63.53" height="2.08"/></g></g></svg>