<svg xmlns="http://www.w3.org/2000/svg" viewBox="0 0 222.38 173.37"><defs><style>.cls-1{fill:#d0eaf2;}.cls-2,.cls-3,.cls-4,.cls-6{fill:none;stroke:#131662;stroke-miterlimit:10;}.cls-2,.cls-3,.cls-6{stroke-linecap:round;}.cls-2{stroke-width:4.38px;}.cls-3{stroke-width:3.77px;}.cls-4{stroke-width:2.26px;}.cls-5{fill:#131662;}.cls-6{stroke-width:5.98px;}</style></defs><g id="Layer_2" data-name="Layer 2"><g id="Layer_1-2" data-name="Layer 1"><rect class="cls-1" x="39.71" y="16.83" width="70.32" height="156.54" rx="19.66"/><rect class="cls-2" x="50.01" y="19.42" width="114.15" height="150.67" rx="13.68"/><path class="cls-3" d="M153.86,39.81V54.73a8.11,8.11,0,0,1-8.12,8.12H68.92a7.56,7.56,0,0,1-.83,0h0a8.12,8.12,0,0,1-7.29-8.08V39.81a8.12,8.12,0,0,1,8.12-8.13h76.82a8.12,8.12,0,0,1,8.12,8.13Z"/><rect class="cls-4" x="60.8" y="88.75" width="18.44" height="18.44" rx="5.27"/><rect class="cls-4" x="85.38" y="88.75" width="18.44" height="18.44" rx="5.27"/><rect class="cls-4" x="110.04" y="88.75" width="18.44" height="18.44" rx="5.27"/><rect class="cls-4" x="135.43" y="88.75" width="18.44" height="18.44" rx="3.98"/><rect class="cls-4" x="135.43" y="114" width="18.44" height="43.68" rx="3.98"/><rect class="cls-4" x="60.8" y="114" width="18.44" height="18.44" rx="5.27"/><rect class="cls-4" x="85.38" y="114" width="18.44" height="18.44" rx="5.27"/><rect class="cls-4" x="110.04" y="114" width="18.44" height="18.44" rx="5.27"/><rect class="cls-4" x="60.8" y="139.24" width="18.44" height="18.44" rx="5.27"/><rect class="cls-4" x="85.38" y="139.24" width="18.44" height="18.44" rx="5.27"/><rect class="cls-4" x="110.04" y="139.24" width="18.44" height="18.44" rx="5.27"/><rect class="cls-5" x="61.34" y="71.71" width="92.52" height="7.11" rx="3.56"/><path class="cls-5" d="M19,31.75a1.88,1.88,0,0,0-2.66-.13l-3,2.7-2.7-3a1.88,1.88,0,1,0-2.79,2.52l2.7,3-3,2.7a1.89,1.89,0,0,0,1.71,3.23,1.91,1.91,0,0,0,.82-.43l3-2.7,2.7,3a1.88,1.88,0,0,0,1.84.57,2,2,0,0,0,.82-.43,1.89,1.89,0,0,0,.13-2.67l-2.7-3,3-2.7A1.89,1.89,0,0,0,19,31.75Z"/><path class="cls-5" d="M29.06,1.54a1.16,1.16,0,0,0-1.59-.33l-2,1.35-1.34-2A1.15,1.15,0,0,0,22.5.19a1.13,1.13,0,0,0-.32,1.58l1.34,2-2,1.35a1.14,1.14,0,0,0-.33,1.58,1.12,1.12,0,0,0,1.06.51,1.08,1.08,0,0,0,.53-.18l2-1.35,1.34,2.05a1.16,1.16,0,0,0,1.05.51A1.15,1.15,0,0,0,28,6.51l-1.34-2,2-1.35A1.14,1.14,0,0,0,29.06,1.54Z"/><path class="cls-5" d="M195.18,38a1.88,1.88,0,0,1,2.66-.13l3,2.7,2.7-3a1.88,1.88,0,0,1,2.79,2.53l-2.7,3,3,2.7a1.89,1.89,0,0,1-1.71,3.23,1.91,1.91,0,0,1-.82-.43l-3-2.7-2.7,3a1.88,1.88,0,0,1-1.84.57,1.88,1.88,0,0,1-1-3.1l2.7-3-3-2.7A1.89,1.89,0,0,1,195.18,38Z"/><path class="cls-5" d="M185.11,7.85a1.14,1.14,0,0,1,1.58-.33l2.05,1.35,1.34-2A1.14,1.14,0,0,1,192,8.08l-1.34,2,2,1.35a1.14,1.14,0,0,1-.73,2.09,1.05,1.05,0,0,1-.53-.18l-2-1.35-1.35,2a1.13,1.13,0,0,1-1,.52,1.17,1.17,0,0,1-.53-.19,1.15,1.15,0,0,1-.33-1.58l1.35-2-2-1.35A1.14,1.14,0,0,1,185.11,7.85Z"/><line class="cls-6" x1="200.96" y1="170.09" x2="219.39" y2="170.09"/><line class="cls-6" x1="2.99" y1="170.09" x2="182.55" y2="170.09"/></g></g></svg>