<svg xmlns="http://www.w3.org/2000/svg" viewBox="0 0 222.38 172.12"><defs><style>.cls-1{fill:#131662;}.cls-2{fill:none;stroke:#131662;stroke-linecap:round;stroke-miterlimit:10;stroke-width:5.98px;}.cls-3{fill:#d0eaf2;}</style></defs><g id="Layer_2" data-name="Layer 2"><g id="Layer_1-2" data-name="Layer 1"><path class="cls-1" d="M25.72,29.91a2.53,2.53,0,0,0-3.59-.18l-4,3.64-3.64-4a2.55,2.55,0,0,0-3.78,3.41l3.65,4-4,3.64A2.54,2.54,0,0,0,10.1,44a2.56,2.56,0,0,0,2.5.77,2.61,2.61,0,0,0,1.1-.58l4-3.65,3.65,4a2.55,2.55,0,0,0,3.78-3.41l-3.65-4,4-3.65A2.53,2.53,0,0,0,25.72,29.91Z"/><path class="cls-1" d="M213.78,32.41a2.56,2.56,0,0,0-3.6-.18l-4,3.64-3.65-4a2.55,2.55,0,1,0-3.77,3.42l3.64,4-4,3.64a2.55,2.55,0,0,0,3.42,3.78l4-3.65,3.65,4a2.54,2.54,0,1,0,3.77-3.41l-3.65-4,4-3.65A2.54,2.54,0,0,0,213.78,32.41Z"/><path class="cls-1" d="M33.74,1.54a1.14,1.14,0,0,0-1.58-.33l-2,1.34-1.34-2a1.14,1.14,0,0,0-1.91,1.26l1.34,2-2,1.35a1.14,1.14,0,0,0-.32,1.58,1.16,1.16,0,0,0,1.05.51,1.29,1.29,0,0,0,.53-.18l2-1.35,1.35,2a1.1,1.1,0,0,0,1.05.51,1.05,1.05,0,0,0,.53-.18,1.16,1.16,0,0,0,.33-1.59l-1.35-2,2-1.34A1.14,1.14,0,0,0,33.74,1.54Z"/><path class="cls-1" d="M189.79,7.84a1.15,1.15,0,0,1,1.59-.32l2,1.34,1.34-2a1.14,1.14,0,1,1,1.91,1.26l-1.34,2,2,1.34a1.15,1.15,0,0,1-.73,2.1,1.22,1.22,0,0,1-.53-.19l-2-1.34-1.34,2a1.16,1.16,0,0,1-1,.51,1.21,1.21,0,0,1-.54-.19,1.14,1.14,0,0,1-.32-1.58l1.34-2-2-1.34A1.16,1.16,0,0,1,189.79,7.84Z"/><line class="cls-2" x1="200.96" y1="169.13" x2="219.39" y2="169.13"/><line class="cls-2" x1="2.99" y1="169.13" x2="182.55" y2="169.13"/><path class="cls-1" d="M158.76,28.51A69.55,69.55,0,1,0,60.4,126.86a69.55,69.55,0,1,0,98.36-98.35ZM109.58,133.6A56,56,0,0,1,53.67,77.69v-.25A56,56,0,0,1,108.82,21.8h.76a55.9,55.9,0,1,1,0,111.8Z"/><path class="cls-3" d="M152.05,81.06a4.11,4.11,0,1,1,0-8.21h5a47.8,47.8,0,0,0-43.88-42.71v4.32a4.11,4.11,0,0,1-8.21,0V30.25A47.75,47.75,0,0,0,62.14,73.4H66.6a4.1,4.1,0,1,1,0,8.2H62.06a47.74,47.74,0,0,0,43.39,43.55v-5.21a4.1,4.1,0,1,1,8.2,0v5.21A47.77,47.77,0,0,0,157.1,81l-5,0ZM126.23,66.85,112.49,80.6a4.15,4.15,0,0,1-5.82,0L82.74,56.66a4.11,4.11,0,0,1,5.81-5.82l21,21L120.42,61a4.11,4.11,0,0,1,5.81,5.82Z"/></g></g></svg>