<?xml version="1.0" encoding="utf-8"?>
<!-- Generator: Adobe Illustrator 24.1.1, SVG Export Plug-In . SVG Version: 6.00 Build 0)  -->
<svg version="1.1" id="_x31__x2C_5_px" xmlns="http://www.w3.org/2000/svg" xmlns:xlink="http://www.w3.org/1999/xlink" x="0px"
	 y="0px" viewBox="0 0 512 512" style="enable-background:new 0 0 512 512;" xml:space="preserve">
<style type="text/css">
	.st0{fill:#02C6C6;}
	.st1{fill:#ECEFF1;}
	.st2{fill:#22262D;}
</style>
<g>
	<path class="st0" d="M479.4,247l-186-39v288h181.3c11.7,0,21.3-9.6,21.3-21.3V267.7C496,257.7,489,249.2,479.4,247z"/>
</g>
<g>
	<path class="st1" d="M275.4,55.7L40.7,20.1C27.7,17.9,16,27.9,16,41.2v433.5c0,11.7,9.6,21.3,21.3,21.3h256V76.8
		C293.3,66.3,285.9,57.4,275.4,55.7L275.4,55.7z"/>
</g>
<g>
	<path class="st0" d="M208,400v112h-96V400c0-11.8,9.6-21.3,21.3-21.3h53.3C198.4,378.7,208,388.2,208,400z"/>
</g>
<g>
	<path class="st2" d="M293.3,512h-256C16.7,512,0,495.3,0,474.7V41.2c0-11,4.8-21.4,13.2-28.5S32.6,2.5,43.5,4.4l234.4,35.5
		c18.3,3.1,31.4,18.5,31.4,36.9V496C309.3,504.8,302.2,512,293.3,512z M37.4,35.9c-1.7,0-2.9,0.7-3.5,1.2C33.2,37.7,32,39,32,41.2
		v433.5c0,2.9,2.4,5.3,5.3,5.3h240V76.7c0-2.6-1.9-4.8-4.5-5.3L38.4,36C38.1,35.9,37.7,35.9,37.4,35.9z"/>
</g>
<g>
	<path class="st2" d="M474.7,512H293.3c-8.8,0-16-7.2-16-16V208c0-4.8,2.2-9.4,5.9-12.4c3.7-3.1,8.6-4.2,13.4-3.2l186,39
		c17.4,3.9,29.4,18.8,29.4,36.5v206.9C512,495.3,495.3,512,474.7,512z M309.3,480h165.3c2.9,0,5.3-2.4,5.3-5.3V267.8
		c0-2.5-1.7-4.7-4.2-5.2l-166.5-34.9V480z"/>
</g>
<g>
	<path d="M208,506.7h-96c-8.8,0-16-7.2-16-16V400c0-20.6,16.7-37.3,37.3-37.3h53.3c20.6,0,37.3,16.7,37.3,37.3v90.7
		C224,499.5,216.8,506.7,208,506.7z M128,474.7h64V400c0-2.9-2.4-5.3-5.3-5.3h-53.3c-2.9,0-5.3,2.4-5.3,5.3V474.7z"/>
</g>
<g>
	<path class="st2" d="M122.7,128h-32c-8.8,0-16-7.2-16-16s7.2-16,16-16h32c8.8,0,16,7.2,16,16S131.5,128,122.7,128z"/>
</g>
<g>
	<path class="st2" d="M229.3,128h-32c-8.8,0-16-7.2-16-16s7.2-16,16-16h32c8.8,0,16,7.2,16,16S238.2,128,229.3,128z"/>
</g>
<g>
	<path class="st2" d="M122.7,192h-32c-8.8,0-16-7.2-16-16c0-8.8,7.2-16,16-16h32c8.8,0,16,7.2,16,16S131.5,192,122.7,192z"/>
</g>
<g>
	<path class="st2" d="M229.3,192h-32c-8.8,0-16-7.2-16-16c0-8.8,7.2-16,16-16h32c8.8,0,16,7.2,16,16S238.2,192,229.3,192z"/>
</g>
<g>
	<path class="st2" d="M122.7,256h-32c-8.8,0-16-7.2-16-16c0-8.8,7.2-16,16-16h32c8.8,0,16,7.2,16,16
		C138.7,248.8,131.5,256,122.7,256z"/>
</g>
<g>
	<path class="st2" d="M229.3,256h-32c-8.8,0-16-7.2-16-16c0-8.8,7.2-16,16-16h32c8.8,0,16,7.2,16,16
		C245.3,248.8,238.2,256,229.3,256z"/>
</g>
<g>
	<path class="st2" d="M122.7,320h-32c-8.8,0-16-7.2-16-16c0-8.8,7.2-16,16-16h32c8.8,0,16,7.2,16,16
		C138.7,312.8,131.5,320,122.7,320z"/>
</g>
<g>
	<path class="st2" d="M229.3,320h-32c-8.8,0-16-7.2-16-16c0-8.8,7.2-16,16-16h32c8.8,0,16,7.2,16,16
		C245.3,312.8,238.2,320,229.3,320z"/>
</g>
<g>
	<path class="st2" d="M410.7,320h-32c-8.8,0-16-7.2-16-16c0-8.8,7.2-16,16-16h32c8.8,0,16,7.2,16,16
		C426.7,312.8,419.5,320,410.7,320z"/>
</g>
<g>
	<path class="st2" d="M410.7,384h-32c-8.8,0-16-7.2-16-16c0-8.8,7.2-16,16-16h32c8.8,0,16,7.2,16,16
		C426.7,376.8,419.5,384,410.7,384z"/>
</g>
<g>
	<path class="st2" d="M410.7,448h-32c-8.8,0-16-7.2-16-16c0-8.8,7.2-16,16-16h32c8.8,0,16,7.2,16,16
		C426.7,440.8,419.5,448,410.7,448z"/>
</g>
</svg>
