<svg xmlns="http://www.w3.org/2000/svg" viewBox="0 0 232.71 180.2"><defs><style>.cls-1{isolation:isolate;}.cls-2,.cls-6{fill:none;stroke-linecap:round;}.cls-2,.cls-4,.cls-5,.cls-6{stroke:#131662;stroke-miterlimit:10;}.cls-2{stroke-width:4.58px;}.cls-3,.cls-4{fill:#131662;}.cls-4{stroke-width:2.09px;}.cls-5{fill:#eaad00;stroke-width:2.79px;}.cls-6{stroke-width:6.25px;}.cls-7{fill:#fff;opacity:0.88;mix-blend-mode:soft-light;}</style></defs><g class="cls-1"><g id="Layer_2" data-name="Layer 2"><g id="Layer_1-2" data-name="Layer 1"><rect class="cls-2" x="51.62" y="26.1" width="129.47" height="150.95" rx="3.75"/><rect class="cls-3" x="70.41" y="54.97" width="45.73" height="2.17"/><rect class="cls-3" x="70.58" y="69.3" width="90.49" height="2.17"/><rect class="cls-3" x="70.58" y="82.71" width="90.49" height="2.17"/><rect class="cls-3" x="70.58" y="96.11" width="90.49" height="2.17"/><rect class="cls-3" x="70.58" y="109.52" width="90.49" height="2.17"/><rect class="cls-3" x="70.58" y="122.92" width="90.49" height="2.17"/><rect class="cls-4" x="71.48" y="159.05" width="90.93" height="0.94"/><circle class="cls-5" cx="154.27" cy="45.57" r="8.37"/><path class="cls-3" d="M28,31.31a2.67,2.67,0,0,0-3.76-.19L20,34.94l-3.82-4.22a2.66,2.66,0,0,0-3.95,3.57L16,38.51l-4.22,3.82a2.66,2.66,0,0,0,2.42,4.56,2.63,2.63,0,0,0,1.15-.61l4.22-3.82,3.82,4.22a2.66,2.66,0,1,0,3.95-3.57l-3.82-4.22,4.23-3.82A2.66,2.66,0,0,0,28,31.31Z"/><path class="cls-3" d="M224.75,33.93a2.67,2.67,0,0,0-3.76-.19l-4.22,3.82L213,33.34A2.66,2.66,0,0,0,209,36.91l3.82,4.22L208.6,45A2.66,2.66,0,0,0,211,49.51a2.63,2.63,0,0,0,1.15-.61l4.22-3.82,3.82,4.22a2.66,2.66,0,1,0,3.95-3.57l-3.82-4.22,4.22-3.82A2.65,2.65,0,0,0,224.75,33.93Z"/><path class="cls-3" d="M36.35,1.61a1.19,1.19,0,0,0-1.65-.34l-2.14,1.4L31.15.54A1.18,1.18,0,0,0,29.5.2a1.2,1.2,0,0,0-.35,1.66L30.56,4,28.43,5.4a1.19,1.19,0,0,0,.76,2.19,1.25,1.25,0,0,0,.55-.19L31.88,6l1.4,2.14a1.19,1.19,0,0,0,1.11.53,1.25,1.25,0,0,0,.55-.19,1.2,1.2,0,0,0,.34-1.66l-1.4-2.14L36,3.27A1.2,1.2,0,0,0,36.35,1.61Z"/><path class="cls-3" d="M199.66,8.21a1.19,1.19,0,0,1,1.65-.34l2.14,1.41,1.41-2.14a1.2,1.2,0,0,1,2,1.32l-1.41,2.13L207.59,12a1.2,1.2,0,0,1,.34,1.66,1.19,1.19,0,0,1-1.11.53,1.14,1.14,0,0,1-.55-.19l-2.14-1.41-1.4,2.14a1.19,1.19,0,0,1-1.11.53,1.14,1.14,0,0,1-.55-.19,1.19,1.19,0,0,1-.34-1.66l1.4-2.13L200,9.87A1.19,1.19,0,0,1,199.66,8.21Z"/><line class="cls-6" x1="210.29" y1="177.08" x2="229.58" y2="177.08"/><line class="cls-6" x1="3.13" y1="177.08" x2="191.03" y2="177.08"/><rect class="cls-7" x="20.53" y="25.11" width="98.99" height="152.47" rx="10.9"/></g></g></g></svg>