<?xml version="1.0" encoding="utf-8"?>
<!-- Generator: Adobe Illustrator 24.1.1, SVG Export Plug-In . SVG Version: 6.00 Build 0)  -->
<svg version="1.1" id="Capa_1" xmlns="http://www.w3.org/2000/svg" xmlns:xlink="http://www.w3.org/1999/xlink" x="0px" y="0px"
	 viewBox="0 0 512 512" style="enable-background:new 0 0 512 512;" xml:space="preserve">
<style type="text/css">
	.st0{fill:none;stroke:#22262D;stroke-width:12.0124;stroke-miterlimit:10;}
	.st1{fill:#F2F3F4;stroke:#22262D;stroke-width:12.0124;stroke-miterlimit:10;}
	.st2{fill:#22262D;stroke:#22262D;stroke-width:12.0124;stroke-miterlimit:10;}
</style>
<path class="st0" d="M265.7,277H155.3c-11.3,0-20.5-9.2-20.5-20.5c0-30.4,18.7-56.6,45.1-67.7c-7.8-7.8-12.7-18.7-12.7-30.6
	c0-23.9,19.4-43.2,43.2-43.2s43.2,19.5,43.2,43.2c0,11.9-4.8,22.7-12.7,30.6c26.4,11.1,45.1,37.2,45.1,67.7
	C286.2,267.8,277,277,265.7,277z M364.1,258.2c0,4.8-5.8,7.2-11.8,7.2c-5.8,0-11.8-2.4-11.8-7.2v-76.6l-4.4,2.7
	c-1.4,0.9-2.7,1.2-3.8,1.2c-4.4,0-7.4-4.6-7.4-9.4c0-3.1,1.4-6.2,4.4-8l19.9-12c1.2-0.7,2.7-1,4.4-1c4.8,0,10.4,2.9,10.4,7.4
	L364.1,258.2L364.1,258.2z"/>
<path class="st1" d="M449,129v166.7c0,36.4-27.4,66-61,66h-79.2l-42.7,81.3c-2,3.8-5.8,6.1-10.1,6.1s-8.1-2.3-10.1-6.1l-42.7-81.3
	H124c-33.6,0-61-29.6-61-66V129c0-36.4,27.4-66,61-66h264C421.6,63,449,92.6,449,129z"/>
<path class="st2" d="M364.1,162.4v95.8c0,4.8-5.8,7.2-11.8,7.2c-5.8,0-11.8-2.4-11.8-7.2v-76.6l-4.4,2.7c-1.4,0.9-2.7,1.2-3.8,1.2
	c-4.4,0-7.4-4.6-7.4-9.4c0-3.1,1.4-6.2,4.4-8l19.9-12c1.2-0.7,2.7-1,4.4-1C358.6,155,364.1,157.9,364.1,162.4z"/>
<path class="st2" d="M286.2,256.5c0,11.3-9.2,20.5-20.5,20.5H155.3c-11.3,0-20.5-9.2-20.5-20.5c0-30.4,18.7-56.6,45.1-67.7
	c-7.8-7.8-12.7-18.7-12.7-30.6c0-23.9,19.4-43.2,43.2-43.2s43.2,19.5,43.2,43.2c0,11.9-4.8,22.7-12.7,30.6
	C267.6,199.9,286.2,226,286.2,256.5z"/>
</svg>
