<?xml version="1.0" encoding="iso-8859-1"?>
<!-- Generator: Adobe Illustrator 21.0.0, SVG Export Plug-In . SVG Version: 6.00 Build 0)  -->
<svg xmlns="http://www.w3.org/2000/svg" xmlns:xlink="http://www.w3.org/1999/xlink" version="1.1" id="Capa_1" x="0px" y="0px" viewBox="0 0 512 512" style="enable-background:new 0 0 512 512;" xml:space="preserve" width="512" height="512">
<g>
	<path d="M266.987,378.598c0-50.995,28.019-95.563,69.468-119.135c-19.815-17.022-43.404-29.089-68.841-35.18   c25.138-20.583,41.211-51.845,41.211-86.794c0-61.837-50.307-112.145-112.144-112.145c-61.836,0-112.144,50.308-112.144,112.145   c0,34.992,16.113,66.288,41.305,86.87C53.724,241.826,0,306.915,0,384.326v14.946h268.546   C267.52,392.527,266.987,385.624,266.987,378.598z"/>
	<path d="M403.942,270.539c-59.584,0-108.059,48.475-108.059,108.058c0,59.584,48.475,108.059,108.059,108.059   c59.583,0,108.058-48.475,108.058-108.059C512,319.014,463.525,270.539,403.942,270.539z M377.858,357.954v-21.945h43.891v86.302   h-29.096v-64.357H377.858z"/>
</g>















</svg>
