<svg xmlns="http://www.w3.org/2000/svg" viewBox="0 0 302.07 201.98"><defs><style>.cls-1{fill:#d0eaf2;}.cls-2{fill:#131662;}.cls-3,.cls-4,.cls-5{fill:none;stroke-miterlimit:10;}.cls-3,.cls-5{stroke:#131662;}.cls-3{stroke-linecap:round;stroke-width:7.59px;}.cls-4{stroke:#22262d;}.cls-4,.cls-5{stroke-width:5.17px;}</style></defs><g id="Layer_2" data-name="Layer 2"><g id="Layer_1-2" data-name="Layer 1"><rect class="cls-1" x="55.94" width="98.42" height="154.71" rx="10.9"/><path class="cls-2" d="M20.66,45.59a3.25,3.25,0,0,0-4.57-.23L11,50,6.34,44.87a3.23,3.23,0,0,0-4.79,4.34l4.63,5.12L1.06,59A3.23,3.23,0,0,0,5.4,63.75l5.12-4.63,4.62,5.12a3.23,3.23,0,0,0,4.8-4.33l-4.63-5.12,5.12-4.63A3.25,3.25,0,0,0,20.66,45.59Z"/><path class="cls-2" d="M301.23,46.63a3.24,3.24,0,0,0-4.56-.23L291.55,51l-4.63-5.11a3.23,3.23,0,0,0-4.79,4.33l4.63,5.12L281.64,60A3.23,3.23,0,0,0,286,64.79l5.11-4.63,4.63,5.12A3.23,3.23,0,1,0,300.51,61l-4.62-5.12L301,51.2A3.23,3.23,0,0,0,301.23,46.63Z"/><path class="cls-2" d="M30.83,9.57a1.45,1.45,0,0,0-2-.41l-2.59,1.7L24.52,8.27a1.45,1.45,0,0,0-2.42,1.6l1.71,2.59-2.59,1.7a1.47,1.47,0,0,0-.42,2,1.46,1.46,0,0,0,2,.41l2.59-1.71,1.71,2.59a1.46,1.46,0,0,0,2,.42,1.45,1.45,0,0,0,.41-2l-1.7-2.59,2.59-1.71A1.45,1.45,0,0,0,30.83,9.57Z"/><line class="cls-3" x1="270.74" y1="198.19" x2="294.13" y2="198.19"/><line class="cls-3" x1="19.49" y1="198.19" x2="247.38" y2="198.19"/><circle class="cls-2" cx="270.51" cy="14.08" r="4.34"/><path class="cls-4" d="M149.74,103H102.25a8.83,8.83,0,0,1-8.82-8.81,31.7,31.7,0,0,1,19.4-29.13,18.59,18.59,0,1,1,26.24,0,31.64,31.64,0,0,1,19.4,29.13A8.69,8.69,0,0,1,149.74,103Z"/><path class="cls-5" d="M228.59,39.38v71.71c0,15.66-11.79,28.39-26.24,28.39H168.28l-18.37,35a4.91,4.91,0,0,1-8.69,0l-18.36-35H88.79c-14.46,0-26.24-12.73-26.24-28.39V39.38C62.55,23.72,74.33,11,88.79,11H202.35C216.8,11,228.59,23.72,228.59,39.38Z"/><path class="cls-2" d="M189.06,51.17V92.38c0,2.06-2.5,3.09-5.08,3.09s-5.07-1-5.07-3.09V59.43L177,60.59a3,3,0,0,1-1.63.51c-1.89,0-3.18-2-3.18-4a3.93,3.93,0,0,1,1.89-3.44l8.56-5.16a3.72,3.72,0,0,1,1.89-.43C186.69,48,189.06,49.23,189.06,51.17Z"/><path class="cls-5" d="M158.56,94.23a8.83,8.83,0,0,1-8.82,8.81H102.25a8.83,8.83,0,0,1-8.82-8.81,31.7,31.7,0,0,1,19.4-29.13,18.59,18.59,0,1,1,26.24,0A31.52,31.52,0,0,1,158.56,94.23Z"/></g></g></svg>