<?xml version="1.0" encoding="utf-8"?>
<!-- Generator: Adobe Illustrator 24.1.1, SVG Export Plug-In . SVG Version: 6.00 Build 0)  -->
<svg version="1.1" id="Layer_1" xmlns="http://www.w3.org/2000/svg" xmlns:xlink="http://www.w3.org/1999/xlink" x="0px" y="0px"
	 viewBox="0 0 222.4 172.2" style="enable-background:new 0 0 222.4 172.2;" xml:space="preserve">
<style type="text/css">
	.st0{fill:#D0EAF2;}
	.st1{fill:#131662;}
	.st2{fill:none;stroke:#131662;stroke-width:5.98;stroke-linecap:round;stroke-miterlimit:10;}
	.st3{fill:none;stroke:#131662;stroke-width:4.38;stroke-linecap:round;stroke-miterlimit:10;}
</style>
<g id="Layer_2_1_">
	<g id="Layer_1-2">
		<path class="st0" d="M49.6,58c-0.4-3.6,1.3-6.8,4.3-9.7c4.9-4.6,9.5-9.5,14.3-14.2c3.2-3.1,7.1-2.5,9.3,1.5
			c2,3.7,3.9,7.4,5.9,11.2s4,7.8,6.2,11.6c1.8,3.1,1.2,7-1.5,9.4c-1.6,1.5-3.1,3.2-4.7,4.7c-1.2,0.8-1.6,2.4-0.9,3.7
			c1.5,3,2.7,6.1,4.7,8.8c6.8,9.5,14.9,17.6,24.9,23.6c2,1,4.1,1.9,6.2,2.5c0.9,0.3,1.9-0.1,2.4-0.8c1.9-2,3.9-4,5.8-5.9
			c2.5-2.7,6.5-3.2,9.5-1.3c7.3,4.3,14.6,8.6,21.9,13c4,2.4,4.4,6.1,1.1,9.5c-5.1,5.1-10.3,10.3-15.5,15.4c-2,1.9-4.7,3-7.4,2.9
			c-5.9,0-11.8-1.2-17.3-3.3c-12.2-4.8-23.4-11.8-33-20.8c-7.3-6.7-14.3-13.8-20.1-21.9c-5.8-8.1-11.1-16.9-14-26.7
			C50.3,66.9,49.6,62.5,49.6,58z"/>
		<path class="st1" d="M25.7,29.9c-0.9-1-2.5-1.1-3.6-0.2l0,0l-4,3.6l-3.6-4c-0.9-1.1-2.5-1.3-3.6-0.4s-1.3,2.5-0.4,3.6
			c0.1,0.1,0.1,0.2,0.2,0.2l3.6,4l-4,3.7c-1,0.9-1.1,2.5-0.2,3.6c0.6,0.7,1.6,1,2.5,0.8c0.4-0.1,0.8-0.3,1.1-0.6l4-3.7l3.6,4
			c1,1,2.6,1,3.6,0c0.9-0.9,1-2.4,0.2-3.4l-3.6-4l4-3.7C26.6,32.6,26.7,31,25.7,29.9L25.7,29.9z"/>
		<path class="st1" d="M213.8,32.4c-0.9-1-2.6-1.1-3.6-0.2l-4,3.7l-3.6-4c-0.9-1-2.5-1.1-3.6-0.2c-1,0.9-1.1,2.5-0.2,3.6l0,0l3.6,4
			l-4,3.6c-1,0.9-1.1,2.6-0.2,3.6c0.6,0.7,1.6,1,2.5,0.8c0.4-0.1,0.8-0.3,1.1-0.6l4-3.7l3.6,4c0.6,0.7,1.6,1,2.5,0.8
			c0.4-0.1,0.8-0.3,1.1-0.6c1-0.9,1.1-2.6,0.2-3.6l-3.6-4l4-3.7C214.6,35.1,214.7,33.5,213.8,32.4z"/>
		<path class="st1" d="M33.7,1.5c-0.3-0.5-1.1-0.7-1.6-0.3l-2,1.4l-1.4-2c-0.3-0.5-1.1-0.7-1.6-0.3s-0.7,1.1-0.3,1.6l0,0l1.3,2
			l-2,1.3c-0.5,0.3-0.7,1.1-0.3,1.6c0.2,0.4,0.6,0.6,1,0.5c0.2,0,0.4-0.1,0.5-0.2l2-1.3l1.4,2.1c0.2,0.3,0.6,0.5,1,0.5
			c0.2,0,0.4-0.1,0.5-0.2C33,7.7,33.1,7,32.8,6.5l0,0l-1.4-2l2-1.3C33.9,2.8,34.1,2.1,33.7,1.5C33.8,1.6,33.8,1.6,33.7,1.5z"/>
		<path class="st1" d="M189.8,7.8c0.3-0.5,1-0.7,1.6-0.3l0,0l2,1.3l1.3-2c0.4-0.5,1.1-0.7,1.6-0.3c0.5,0.3,0.7,1,0.3,1.6l0,0l-1.3,2
			l2,1.4c0.5,0.3,0.7,1.1,0.3,1.6c-0.2,0.4-0.6,0.6-1.1,0.5c-0.2,0-0.4-0.1-0.5-0.2l-2-1.4l-1.3,2c-0.2,0.3-0.6,0.5-1,0.5
			c-0.6-0.1-1.1-0.6-1-1.3c0-0.2,0.1-0.4,0.2-0.5l1.3-2l-2-1.4C189.6,9.1,189.5,8.4,189.8,7.8C189.8,7.9,189.8,7.9,189.8,7.8z"/>
		<line class="st2" x1="201" y1="169.2" x2="219.4" y2="169.2"/>
		<line class="st2" x1="3" y1="169.2" x2="182.6" y2="169.2"/>
		<path class="st3" d="M60.6,49c-0.4-3.6,1.3-6.8,4.3-9.7c4.9-4.6,9.5-9.5,14.3-14.2c3.2-3.1,7.2-2.5,9.3,1.5
			c2,3.7,3.9,7.4,5.9,11.2s4,7.8,6.2,11.6c1.8,3.1,1.2,7-1.5,9.4c-1.6,1.5-3.1,3.2-4.7,4.7c-1.2,0.8-1.6,2.4-0.9,3.7
			c1.5,3,2.7,6.1,4.7,8.8c6.8,9.5,14.9,17.6,24.9,23.6c2,1,4.1,1.9,6.2,2.5c0.9,0.3,1.9-0.1,2.4-0.8c1.9-2,3.9-4,5.8-5.9
			c2.5-2.7,6.5-3.2,9.5-1.3c7.3,4.3,14.6,8.6,21.9,13c4,2.4,4.4,6.1,1.1,9.5c-5.1,5.1-10.3,10.3-15.5,15.4c-2,1.9-4.7,3-7.4,2.9
			c-5.9,0-11.8-1.2-17.3-3.3c-12.2-4.8-23.4-11.8-33-20.8C89.5,104,82.5,97,76.7,88.9S65.6,72,62.7,62.2
			C61.3,57.9,60.6,53.4,60.6,49z"/>
	</g>
</g>
</svg>
