<svg xmlns="http://www.w3.org/2000/svg" viewBox="0 0 222.38 172.12"><defs><style>.cls-1{fill:#131662;}.cls-2{fill:none;stroke:#131662;stroke-linecap:round;stroke-miterlimit:10;stroke-width:5.98px;}.cls-3{fill:#d0eaf2;}</style></defs><g id="Layer_2" data-name="Layer 2"><g id="Layer_1-2" data-name="Layer 1"><path class="cls-1" d="M25.72,29.91a2.53,2.53,0,0,0-3.59-.18l-4,3.64-3.64-4a2.55,2.55,0,0,0-3.78,3.41l3.65,4-4,3.64A2.54,2.54,0,0,0,10.1,44a2.56,2.56,0,0,0,2.5.77,2.61,2.61,0,0,0,1.1-.58l4-3.65,3.65,4a2.55,2.55,0,0,0,3.78-3.41l-3.65-4,4-3.65A2.53,2.53,0,0,0,25.72,29.91Z"/><path class="cls-1" d="M213.78,32.41a2.56,2.56,0,0,0-3.6-.18l-4,3.64-3.65-4a2.55,2.55,0,1,0-3.77,3.42l3.64,4-4,3.64a2.55,2.55,0,0,0,3.42,3.78l4-3.65,3.65,4a2.54,2.54,0,1,0,3.77-3.41l-3.65-4,4-3.65A2.54,2.54,0,0,0,213.78,32.41Z"/><path class="cls-1" d="M33.74,1.54a1.14,1.14,0,0,0-1.58-.33l-2,1.34-1.34-2a1.14,1.14,0,0,0-1.91,1.26l1.34,2-2,1.35a1.14,1.14,0,0,0-.32,1.58,1.16,1.16,0,0,0,1.05.51,1.29,1.29,0,0,0,.53-.18l2-1.35,1.35,2a1.1,1.1,0,0,0,1.05.51,1.05,1.05,0,0,0,.53-.18,1.16,1.16,0,0,0,.33-1.59l-1.35-2,2-1.34A1.14,1.14,0,0,0,33.74,1.54Z"/><path class="cls-1" d="M189.79,7.84a1.15,1.15,0,0,1,1.59-.32l2,1.34,1.34-2a1.14,1.14,0,1,1,1.91,1.26l-1.34,2,2,1.34a1.15,1.15,0,0,1-.73,2.1,1.22,1.22,0,0,1-.53-.19l-2-1.34-1.34,2a1.16,1.16,0,0,1-1,.51,1.21,1.21,0,0,1-.54-.19,1.14,1.14,0,0,1-.32-1.58l1.34-2-2-1.34A1.16,1.16,0,0,1,189.79,7.84Z"/><line class="cls-2" x1="200.96" y1="169.13" x2="219.39" y2="169.13"/><line class="cls-2" x1="2.99" y1="169.13" x2="182.55" y2="169.13"/><circle class="cls-3" cx="87.96" cy="57.13" r="45"/><path class="cls-1" d="M160.76,69.45a9.94,9.94,0,0,1-3,6.69c-2.16,2-4.4,4-6.54,6.06A4.7,4.7,0,0,0,150,84.12c-.79,2.71-1.45,5.46-2.2,8.18a9.39,9.39,0,0,1-8,7.19c-2.73.49-5.48.9-8.2,1.46a4.83,4.83,0,0,0-2.13,1.07c-2.06,1.79-4,3.69-6.05,5.51a9.44,9.44,0,0,1-10.71,1.81c-2.6-1.09-5.19-2.23-7.81-3.27a4,4,0,0,0-2-.22c-2.84.43-5.66,1-8.5,1.42a9.28,9.28,0,0,1-9.66-4c-1.64-2.3-3.16-4.69-4.82-7a4.84,4.84,0,0,0-1.83-1.53c-2.38-1.1-4.81-2.11-7.25-3.1-4.06-1.65-6.29-4.6-6.45-9a24.3,24.3,0,0,1-.1-3.51A14,14,0,0,0,60.79,68a26.2,26.2,0,0,1-2.16-3.12,9.37,9.37,0,0,1-.21-10.35c1.41-2.45,3-4.82,4.34-7.28a5.26,5.26,0,0,0,.64-2.45c0-2.83-.18-5.65-.19-8.48a9.22,9.22,0,0,1,5.4-8.82,58.29,58.29,0,0,1,5.51-2.68,9.11,9.11,0,0,0,5.11-4.66c.9-1.77,2-3.46,3-5.15a9.44,9.44,0,0,1,9.79-4.68c2.71.33,5.42.68,8.13.92a5,5,0,0,0,2.37-.44c2.48-1.13,4.9-2.39,7.35-3.57a9.53,9.53,0,0,1,11,1.37,40.4,40.4,0,0,1,3.48,2.89A11.58,11.58,0,0,0,133,15.08a39.34,39.34,0,0,1,4.93.55,9.23,9.23,0,0,1,7.89,6.49c1,2.76,1.78,5.57,2.74,8.33a4.23,4.23,0,0,0,1.2,1.73c2.11,1.81,4.28,3.54,6.42,5.31a9.43,9.43,0,0,1,3.38,10.32c-.69,2.69-1.46,5.35-2.11,8a4.76,4.76,0,0,0,.07,2.25c.77,2.61,1.68,5.18,2.47,7.8C160.34,67.06,160.51,68.27,160.76,69.45ZM108.7,91.78A33.65,33.65,0,1,0,75.14,58.06,33.61,33.61,0,0,0,108.7,91.78Z"/><path class="cls-1" d="M155.42,138.17c-4.36-.16-8.39-.22-12.41-.52a3.6,3.6,0,0,0-3.76,1.7c-2.25,3.29-4.71,6.44-7.07,9.65a4.06,4.06,0,0,0-.32.8l-15.11-31.55c2.35-.61,4.66-1.06,6.87-1.82,3.22-1.13,5.63-3.53,7.83-6,2.37-2.64,5.46-2.65,8.47-3.13.34-.06,1,.53,1.18,1,3.29,6.79,6.52,13.59,9.77,20.39Z"/><path class="cls-1" d="M77.46,106.27c1,1.19,1.74,2.29,2.66,3.26,4.47,4.74,9.95,6.38,16.32,5.19,2.13-.4,4.27-.73,6.66-1.13L85.89,149.51c-.76-1-1.44-1.84-2.09-2.71-1.94-2.62-3.91-5.21-5.77-7.89a2.78,2.78,0,0,0-2.82-1.29c-4.22.24-8.45.37-13,.56Z"/><path class="cls-1" d="M104.37,61.2c3.09-3.14,5.95-6.05,8.82-9,2-2,4-4,6-6a4.3,4.3,0,0,1,6.16-.1,4.23,4.23,0,0,1-.08,6.14q-8.83,8.93-17.75,17.75a4.21,4.21,0,0,1-6.35-.08q-4.32-4.26-8.59-8.56c-1.91-1.92-2-4.5-.35-6.26s4.21-1.87,6.24,0S102.26,59,104.37,61.2Z"/></g></g></svg>