<?xml version="1.0" encoding="utf-8"?>
<!-- Generator: Adobe Illustrator 24.1.1, SVG Export Plug-In . SVG Version: 6.00 Build 0)  -->
<svg version="1.1" id="Layer_1" focusable="false" xmlns="http://www.w3.org/2000/svg" xmlns:xlink="http://www.w3.org/1999/xlink"
	 x="0px" y="0px" viewBox="0 0 300 300" style="enable-background:new 0 0 300 300;" xml:space="preserve">
<style type="text/css">
	.st0{fill:#02C6C6;}
</style>
<path class="st0" d="M263.8,27.5h-70c-14.5,0-26.3,11.8-26.3,26.3v70c0,14.5,11.8,26.3,26.3,26.3h43.8v35c0,19.3-15.7,35-35,35h-4.4
	c-7.3,0-13.1,5.9-13.1,13.1v26.3c0,7.3,5.9,13.1,13.1,13.1h4.4c48.3,0,87.5-39.2,87.5-87.5V53.8C290,39.3,278.2,27.5,263.8,27.5z
	 M106.3,27.5h-70C21.8,27.5,10,39.3,10,53.8v70c0,14.5,11.8,26.3,26.3,26.3H80v35c0,19.3-15.7,35-35,35h-4.4
	c-7.3,0-13.1,5.9-13.1,13.1v26.3c0,7.3,5.9,13.1,13.1,13.1H45c48.3,0,87.5-39.2,87.5-87.5V53.8C132.5,39.3,120.7,27.5,106.3,27.5z"
	/>
</svg>
