<?xml version="1.0" encoding="utf-8"?>
<!-- Generator: Adobe Illustrator 24.1.1, SVG Export Plug-In . SVG Version: 6.00 Build 0)  -->
<svg version="1.1" id="Capa_1" xmlns="http://www.w3.org/2000/svg" xmlns:xlink="http://www.w3.org/1999/xlink" x="0px" y="0px"
	 viewBox="0 0 512 512" style="enable-background:new 0 0 512 512;" xml:space="preserve">
<style type="text/css">
	.st0{fill:#02C6C6;}
	.st1{fill:#FFFFFF;}
	.st2{fill:#0592D8;}
	.st3{fill:#FFDD78;}
	.st4{fill:#22262D;}
	.st5{fill:none;stroke:#22262D;stroke-width:10;stroke-linecap:round;stroke-miterlimit:10;}
	.st6{fill:none;stroke:#22262D;stroke-width:7.2892;stroke-linecap:round;stroke-miterlimit:10;}
</style>
<path class="st0" d="M478.6,27.1c0,0-1.3,35.2-15.9,76.5L402.1,43C443.4,28.4,478.6,27.1,478.6,27.1z"/>
<path class="st1" d="M402.1,43l60.7,60.7c-9.5,26.9-24.7,56.4-48.8,80.6c-22.2,22.2-49,40.1-77,52.4l-67.8-67.9
	c8.3-18.7,19.8-38.7,35-57.6c5.4-6.6,11.1-13.1,17.3-19.4C345.6,67.7,375.2,52.5,402.1,43z"/>
<path class="st2" d="M404.7,101.1c10.2,10.2,10.2,26.7,0,37c-10.2,10.2-26.7,10.2-37,0c-10.2-10.2-10.2-26.7,0-37
	C378,90.8,394.5,90.8,404.7,101.1z"/>
<g>
	<path class="st0" d="M395.4,202.7c33.6,50.5-29.4,83.2-64.7,83.2c18.5-18.5,13.1-42.3,13.1-42.3l-6.9-6.9
		c18.7-8.3,38.7-19.8,57.6-35L395.4,202.7z"/>
	<path class="st0" d="M261.6,216.6l-1-1c-3.1-3.1-4.7-7.7-3.6-12c2.7-10.6,6.8-22.4,12.2-34.8l67.8,67.8
		c-12.4,5.4-24.2,9.5-34.8,12.2c-4.3,1.1-8.8-0.4-12-3.6l-1-1L261.6,216.6z"/>
	<path class="st0" d="M303.1,110.2l1.1,0.9c-15.3,18.9-26.7,38.9-35,57.6l-6.9-6.9c0,0-23.9-5.4-42.3,13.1
		C219.9,139.6,252.6,76.6,303.1,110.2z"/>
</g>
<path class="st3" d="M261.6,216.6l27.6,27.6c-2,7.8-6.7,16.1-13.8,23.2c-15.3,15.3-55.4,18.5-55.4,18.5s3.1-40.1,18.5-55.4
	C245.5,223.3,253.7,218.6,261.6,216.6z"/>
<path class="st4" d="M326.3,188.8c2.6-2.6,2.6-6.7,0-9.3c-2.6-2.6-6.7-2.6-9.3,0c-2.6,2.6-2.6,6.7,0,9.3
	C319.7,191.4,323.8,191.4,326.3,188.8z"/>
<path class="st4" d="M409.5,142.6c12.7-12.7,12.7-33.4,0-46.2c-12.7-12.7-33.4-12.7-46.2,0c-12.7,12.7-12.7,33.4,0,46.2
	C376,155.4,396.8,155.4,409.5,142.6z M372.5,105.6c7.7-7.7,20.1-7.7,27.7,0s7.7,20.1,0,27.7c-7.7,7.7-20.1,7.7-27.7,0
	C364.9,125.7,364.9,113.3,372.5,105.6z"/>
<path class="st4" d="M217.5,181c0.8,0.3,1.7,0.5,2.5,0.5c1.7,0,3.3-0.7,4.6-1.9c13.1-13.1,29.3-12.3,34.6-11.6l2.3,2.3
	c-4.5,10.7-8.1,21.4-10.8,31.8c-1,3.8-0.6,7.7,0.8,11.4c-6.3,2.9-12.3,7.2-17.6,12.5c-16.8,16.8-20.2,57.8-20.3,59.6
	c-0.1,1.9,0.6,3.8,1.9,5.2c1.3,1.3,2.9,1.9,4.6,1.9c0.1,0,0.3,0,0.5,0c1.7-0.1,42.7-3.6,59.6-20.3c5.3-5.3,9.5-11.4,12.5-17.6
	c3.8,1.5,7.8,1.7,11.4,0.8c10.4-2.6,21-6.3,31.8-10.8l2.3,2.3c0.7,5.3,1.5,21.5-11.6,34.6c-1.9,1.9-2.4,4.7-1.4,7.1s3.4,4,6.1,4
	c25.8,0,62-15.4,75.3-40.3c5.8-10.8,9.8-27.9-2.9-49.2c5.3-4.5,10.4-9.2,15.3-14.1c21.6-21.6,38.5-49.5,50.4-83
	c14.8-41.8,16.2-77,16.2-78.4c0.1-1.8-0.6-3.6-1.9-4.9c-1.3-1.3-3.1-2-4.9-1.9c-1.5,0.1-36.6,1.5-78.4,16.2
	c-33.5,11.8-61.4,28.8-83,50.4c-4.8,4.8-9.5,10-14.1,15.3c-21.3-12.5-38.4-8.6-49.2-2.9c-24.9,13.3-40.3,49.5-40.3,75.3
	C213.5,177.6,215.1,180,217.5,181z M270.9,262.7c-9,9-30.1,13.7-43.4,15.7c2-13.3,6.7-34.4,15.7-43.4c5-5,10.9-8.8,16.7-11l22,22
	C279.7,251.9,275.9,257.7,270.9,262.7z M300.6,242.4c-1.9,0.5-4.1-0.2-5.7-1.9c-31.7-31.7,9,9-29.7-29.7c-1.6-1.6-2.4-3.8-1.9-5.7
	c2.1-8.1,4.8-16.5,8.1-24.9l54.1,54.1C317.1,237.6,308.8,240.4,300.6,242.4z M394.7,245.9c-8.6,16-30.1,27.8-49.7,31.8
	c6.3-11.8,7.7-26.8,5.4-35.9c-0.6-2.1-1.9-3.2-2-3.3c15.8-7.7,30.9-16.9,44.7-27.4C399.9,223.6,400.5,235.2,394.7,245.9z M460,91.5
	l-45.7-45.7c24.9-7.7,46.5-10.6,57.3-11.6C470.7,45,467.7,66.6,460,91.5z M326.3,96.4c19.4-19.3,44.3-34.8,74.3-45.8l54.7,54.7
	c-11.1,30-26.5,54.9-45.8,74.3c-5.9,5.9-12.3,11.6-18.9,16.9c-15.9,12.8-33.4,23.7-52.1,32.3l-61.4-61.4
	c8.6-18.7,19.5-36.2,32.3-52.1C314.8,108.6,320.4,102.3,326.3,96.4z M260,111.2c10.7-5.7,22.4-5.2,34.8,1.7
	c-10.6,13.9-19.8,28.9-27.4,44.7c-0.1-0.1-1.3-1.5-3.5-2c-0.9-0.2-18.2-3.9-35.7,5.4C232.2,141.2,244,119.7,260,111.2z"/>
<path class="st4" d="M289.4,318.2l18.5-18.5c2.6-2.6,2.6-6.7,0-9.3c-2.6-2.6-6.7-2.6-9.3,0L280.1,309c-2.6,2.6-2.6,6.7,0,9.3
	C282.7,320.7,286.8,320.7,289.4,318.2z"/>
<path class="st4" d="M44.4,467.2l18.5-18.5c2.6-2.6,2.6-6.7,0-9.3c-2.6-2.6-6.7-2.6-9.3,0L35.1,458c-2.6,2.6-2.6,6.7,0,9.3
	C37.7,469.7,41.9,469.7,44.4,467.2z"/>
<path class="st4" d="M196.9,225.8l18.5-18.5c2.6-2.6,2.6-6.7,0-9.3c-2.6-2.6-6.7-2.6-9.3,0l-18.5,18.5c-2.6,2.6-2.6,6.7,0,9.3
	C190.2,228.3,194.4,228.3,196.9,225.8z"/>
<path class="st4" d="M252.4,299.7l-44.2,44.2c-2.6,2.6-2.6,6.7,0,9.3c2.6,2.6,6.7,2.6,9.3,0l44.2-44.2c2.6-2.6,2.6-6.7,0-9.3
	C259.1,297.1,254.9,297.1,252.4,299.7z"/>
<path class="st4" d="M200.1,299.7l-44.2,44.2c-2.6,2.6-2.6,6.7,0,9.3c2.6,2.6,6.7,2.6,9.3,0l44.2-44.2c2.6-2.6,2.6-6.7,0-9.3
	C206.8,297.1,202.7,297.1,200.1,299.7z"/>
<path class="st4" d="M162,297.8l44.2-44.2c2.6-2.6,2.6-6.7,0-9.3c-2.6-2.6-6.7-2.6-9.3,0l-44.2,44.2c-2.6,2.6-2.6,6.7,0,9.3
	C155.3,300.3,159.4,300.3,162,297.8z"/>
<path class="st4" d="M176.4,371.7l-44.2,44.2c-2.6,2.6-2.6,6.7,0,9.3c2.6,2.6,6.7,2.6,9.3,0l44.2-44.2c2.6-2.6,2.6-6.7,0-9.3
	C183.1,369.1,178.9,369.1,176.4,371.7z"/>
<path class="st4" d="M124.1,371.7l-44.2,44.2c-2.6,2.6-2.6,6.7,0,9.3c2.6,2.6,6.7,2.6,9.3,0l44.2-44.2c2.6-2.6,2.6-6.7,0-9.3
	C130.8,369.1,126.7,369.1,124.1,371.7z"/>
<path class="st4" d="M86,369.8l44.2-44.2c2.6-2.6,2.6-6.7,0-9.3c-2.6-2.6-6.7-2.6-9.3,0l-44.2,44.2c-2.6,2.6-2.6,6.7,0,9.3
	C79.3,372.3,83.4,372.3,86,369.8z"/>
<path class="st4" d="M344.8,170.4l9.3-9.3c2.6-2.6,2.6-6.7,0-9.3s-6.7-2.6-9.3,0l-9.3,9.3c-2.6,2.6-2.6,6.7,0,9.3
	C338.1,172.9,342.2,172.9,344.8,170.4z"/>
<line class="st5" x1="90.2" y1="56.6" x2="79.3" y2="80.3"/>
<line class="st5" x1="96.6" y1="73.9" x2="72.9" y2="63"/>
<line class="st6" x1="444.3" y1="358.3" x2="436.4" y2="375.6"/>
<line class="st6" x1="449" y1="370.9" x2="431.7" y2="363"/>
<circle class="st4" cx="69" cy="158.7" r="11.5"/>
<circle class="st4" cx="213.5" cy="50.6" r="8.7"/>
<circle class="st4" cx="309.7" cy="375.6" r="8.7"/>
<circle class="st4" cx="478.6" cy="224" r="11.5"/>
</svg>
