<svg xmlns="http://www.w3.org/2000/svg" viewBox="0 0 302.07 210.99"><defs><style>.cls-1{fill:#d0eaf2;}.cls-2{fill:#131662;}.cls-3,.cls-4{fill:none;stroke-miterlimit:10;}.cls-3{stroke:#131662;stroke-linecap:round;stroke-width:7.59px;}.cls-4{stroke:#132668;stroke-width:27px;}</style></defs><g id="Layer_2" data-name="Layer 2"><g id="Layer_1-2" data-name="Layer 1"><circle class="cls-1" cx="147.07" cy="104" r="104"/><path class="cls-2" d="M20.66,54.6a3.25,3.25,0,0,0-4.57-.23L11,59,6.34,53.89a3.23,3.23,0,1,0-4.79,4.33l4.63,5.12L1.06,68A3.23,3.23,0,0,0,5.4,72.76l5.12-4.63,4.62,5.12a3.23,3.23,0,0,0,4.8-4.33L15.31,63.8l5.12-4.63A3.25,3.25,0,0,0,20.66,54.6Z"/><path class="cls-2" d="M301.23,55.64a3.24,3.24,0,0,0-4.56-.23L291.55,60l-4.63-5.11a3.23,3.23,0,0,0-4.79,4.33l4.63,5.12L281.64,69A3.23,3.23,0,0,0,286,73.8l5.11-4.63,4.63,5.12A3.23,3.23,0,1,0,300.51,70l-4.62-5.12L301,60.21A3.23,3.23,0,0,0,301.23,55.64Z"/><path class="cls-2" d="M30.83,18.58a1.45,1.45,0,0,0-2-.41l-2.59,1.7-1.71-2.59a1.45,1.45,0,0,0-2.42,1.6l1.71,2.59-2.59,1.71a1.45,1.45,0,0,0-.42,2,1.46,1.46,0,0,0,2,.41l2.59-1.7,1.71,2.59a1.47,1.47,0,0,0,2,.41,1.45,1.45,0,0,0,.41-2l-1.7-2.59,2.59-1.71A1.45,1.45,0,0,0,30.83,18.58Z"/><line class="cls-3" x1="270.74" y1="207.2" x2="294.13" y2="207.2"/><line class="cls-3" x1="19.49" y1="207.2" x2="247.38" y2="207.2"/><circle class="cls-2" cx="270.51" cy="23.09" r="4.34"/><polyline class="cls-4" points="70.07 118 118.07 177 232.07 56"/></g></g></svg>