<svg xmlns="http://www.w3.org/2000/svg" viewBox="0 0 222.38 177.47"><defs><style>.cls-1{fill:#d0eaf2;}.cls-2{fill:#131662;}.cls-3,.cls-4,.cls-5{fill:none;stroke:#131662;stroke-linecap:round;stroke-miterlimit:10;}.cls-3{stroke-width:5.98px;}.cls-4{stroke-width:4.38px;}.cls-5{stroke-width:2px;stroke-dasharray:20.24 20.24;}</style></defs><g id="Layer_2" data-name="Layer 2"><g id="Layer_1-2" data-name="Layer 1"><circle class="cls-1" cx="94.87" cy="91.38" r="68.52"/><path class="cls-2" d="M19.09,31.75a1.88,1.88,0,0,0-2.66-.13l-3,2.7-2.7-3a1.88,1.88,0,0,0-2.8,2.52l2.7,3-3,2.7a1.88,1.88,0,0,0,1.71,3.23,2,2,0,0,0,.82-.43l3-2.7,2.7,3a1.89,1.89,0,0,0,1.85.57,1.93,1.93,0,0,0,.81-.43,1.89,1.89,0,0,0,.14-2.67l-2.7-3,3-2.7A1.89,1.89,0,0,0,19.09,31.75Z"/><path class="cls-2" d="M29.13,1.54a1.15,1.15,0,0,0-1.58-.33l-2,1.35-1.35-2a1.14,1.14,0,1,0-1.91,1.25l1.35,2-2,1.35a1.14,1.14,0,0,0-.33,1.58,1.12,1.12,0,0,0,1.05.51,1,1,0,0,0,.53-.18l2-1.35L26.2,7.77a1.16,1.16,0,0,0,1.05.51,1.17,1.17,0,0,0,.53-.19,1.14,1.14,0,0,0,.33-1.58l-1.35-2,2-1.35A1.14,1.14,0,0,0,29.13,1.54Z"/><path class="cls-2" d="M195.26,38a1.88,1.88,0,0,1,2.66-.13l3,2.7,2.7-3a1.89,1.89,0,0,1,2.8,2.53l-2.7,3,3,2.7a1.87,1.87,0,0,1,.14,2.66,1.89,1.89,0,0,1-1.85.57,1.93,1.93,0,0,1-.81-.43l-3-2.7-2.7,3a1.88,1.88,0,0,1-1.84.57,1.88,1.88,0,0,1-.95-3.1l2.7-3-3-2.7A1.89,1.89,0,0,1,195.26,38Z"/><path class="cls-2" d="M185.19,7.85a1.13,1.13,0,0,1,1.58-.33l2,1.35,1.35-2a1.14,1.14,0,0,1,1.91,1.26l-1.35,2,2,1.35a1.14,1.14,0,0,1-.72,2.09,1,1,0,0,1-.53-.18l-2-1.35-1.34,2a1.15,1.15,0,0,1-1.05.52,1.15,1.15,0,0,1-.86-1.77l1.34-2-2-1.35A1.13,1.13,0,0,1,185.19,7.85Z"/><line class="cls-3" x1="200.96" y1="174.48" x2="219.39" y2="174.48"/><line class="cls-3" x1="2.99" y1="174.48" x2="182.55" y2="174.48"/><circle class="cls-4" cx="108.08" cy="89.16" r="35.28"/><circle class="cls-5" cx="108.08" cy="89.16" r="51.56" transform="translate(-0.26 0.31) rotate(-0.16)"/><path class="cls-4" d="M176.09,101.49a68.64,68.64,0,0,1-11.2,27.05l12.23,12.24-17.43,17.43L147.45,146a68.78,68.78,0,0,1-27,11.2v17.3H95.74v-17.3a68.74,68.74,0,0,1-27-11.2L56.46,158.21,39,140.78l12.23-12.24a68.65,68.65,0,0,1-11.21-27H22.75V76.83h17.3a68.61,68.61,0,0,1,11.21-27L39,37.55,56.46,20.12,68.7,32.35a68.61,68.61,0,0,1,27-11.21V3.84H120.4v17.3a68.65,68.65,0,0,1,27,11.21l12.24-12.23,17.43,17.43L164.89,49.79a68.74,68.74,0,0,1,11.2,27h17.3v24.66Z"/></g></g></svg>