<?xml version="1.0" encoding="utf-8"?>
<!-- Generator: Adobe Illustrator 24.1.1, SVG Export Plug-In . SVG Version: 6.00 Build 0)  -->
<svg version="1.1" id="Layer_1" xmlns="http://www.w3.org/2000/svg" xmlns:xlink="http://www.w3.org/1999/xlink" x="0px" y="0px"
	 viewBox="0 0 512 512" style="enable-background:new 0 0 512 512;" xml:space="preserve">
<style type="text/css">
	.st0{fill:#22262D;}
	.st1{fill:#02C6C6;}
</style>
<g id="surface1">
	<path class="st0" d="M256,168.8c-48.1,0-87.3,39.2-87.3,87.3s39.2,87.3,87.3,87.3s87.3-39.2,87.3-87.3
		C343.2,207.9,304.1,168.8,256,168.8z M307.8,239.5L245.3,302c-2.6,2.6-6.1,3.9-9.5,3.9s-6.9-1.3-9.5-3.9l-23.9-23.9
		c-5.3-5.3-5.3-13.8,0-19c5.3-5.3,13.8-5.3,19,0l14.4,14.4l53-53c5.3-5.3,13.8-5.3,19,0C313.1,225.8,313.1,234.3,307.8,239.5z"/>
	<path class="st0" d="M467.6,142.1v-0.4c-0.2-4.8-0.4-9.8-0.5-15.5c-0.4-27.4-22.3-50.2-49.7-51.8C360.2,71.3,315.8,52.6,278,15.7
		l-0.3-0.3c-12.4-11.3-30.9-11.3-43.3,0l-0.4,0.3c-37.9,37-82.1,55.7-139.4,58.9C67.1,76,45.2,98.8,44.8,126.2
		c-0.1,5.6-0.2,10.7-0.5,15.5v0.9c-1.1,58.4-2.5,131.1,21.8,197c13.3,36.3,33.7,67.8,60.2,93.7c30.3,29.5,69.9,52.9,117.7,69.7
		c1.6,0.6,3.2,1,4.9,1.4c2.3,0.5,4.7,0.7,7,0.7c2.3,0,4.7-0.2,7-0.7c1.7-0.3,3.3-0.8,4.9-1.4c47.9-16.7,87.5-40.2,117.6-69.7
		c26.6-26,46.8-57.5,60.2-93.8C470.1,273.4,468.7,200.6,467.6,142.1z M256,380.2c-68.5,0-124.2-55.7-124.2-124.2
		S187.5,131.8,256,131.8S380.2,187.5,380.2,256S324.5,380.2,256,380.2z"/>
	<path class="st1" d="M433.6,160.3V160c-0.2-4-0.3-8.2-0.4-13c-0.3-23-18.7-42.1-41.7-43.5c-48-2.6-85.3-18.3-117-49.3l-0.2-0.2
		c-10.4-9.5-26-9.5-36.3,0l-0.3,0.2c-31.8,31-68.9,46.7-117,49.4c-23,1.2-41.4,20.3-41.7,43.4c-0.1,4.7-0.2,9-0.4,13v0.7
		c-0.9,49-2.1,110,18.3,165.4c11.2,30.5,28.3,56.9,50.6,78.7c25.4,24.7,58.6,44.4,98.8,58.5c1.3,0.5,2.7,0.8,4.1,1.1
		c2,0.4,3.9,0.6,5.9,0.6c2,0,3.9-0.2,5.9-0.6c1.4-0.2,2.8-0.7,4.1-1.1c40.2-14,73.4-33.7,98.7-58.5c22.3-21.8,39.3-48.3,50.6-78.7
		C435.7,270.6,434.5,209.5,433.6,160.3z M256,360.2c-57.5,0-104.2-46.7-104.2-104.2S198.5,151.8,256,151.8S360.2,198.5,360.2,256
		S313.5,360.2,256,360.2z"/>
</g>
</svg>
