<?xml version="1.0" encoding="utf-8"?>
<!-- Generator: Adobe Illustrator 24.1.1, SVG Export Plug-In . SVG Version: 6.00 Build 0)  -->
<svg version="1.1" id="Layer_1" xmlns="http://www.w3.org/2000/svg" xmlns:xlink="http://www.w3.org/1999/xlink" x="0px" y="0px"
	 viewBox="0 0 538 434.9" style="enable-background:new 0 0 538 434.9;" xml:space="preserve">
<style type="text/css">
	.st0{fill:#01D5D5;}
	.st1{fill:url(#SVGID_1_);}
	.st2{fill:url(#SVGID_2_);}
	.st3{opacity:0.24;fill:#01D5D5;enable-background:new    ;}
	.st4{fill:none;stroke:#FFFFFF;stroke-width:6.9383;stroke-miterlimit:10;}
	.st5{fill:url(#SVGID_3_);}
	.st6{fill:url(#SVGID_4_);}
	.st7{fill:url(#SVGID_5_);}
	.st8{fill:url(#SVGID_6_);}
	.st9{fill:none;stroke:#FFFFFF;stroke-width:4.659;stroke-miterlimit:10;}
</style>
<g>
	<polygon class="st0" points="119.9,202.6 102.1,212.3 77,274.6 130.3,245.3 	"/>
	<polygon class="st0" points="196.5,202.6 214.3,212.3 239.4,274.6 186.1,245.3 	"/>
	
		<linearGradient id="SVGID_1_" gradientUnits="userSpaceOnUse" x1="111.1356" y1="2118.1245" x2="86.723" y2="2358.3054" gradientTransform="matrix(1 0 0 1 0 -1932)">
		<stop  offset="0" style="stop-color:#010101;stop-opacity:0"/>
		<stop  offset="0.95" style="stop-color:#010101"/>
	</linearGradient>
	<polygon class="st1" points="119.9,202.6 102.1,212.3 77,274.6 130.3,245.3 	"/>
	
		<linearGradient id="SVGID_2_" gradientUnits="userSpaceOnUse" x1="219.1754" y1="2129.0959" x2="194.774" y2="2369.2769" gradientTransform="matrix(1 0 0 1 0 -1932)">
		<stop  offset="0" style="stop-color:#010101;stop-opacity:0"/>
		<stop  offset="0.95" style="stop-color:#010101"/>
	</linearGradient>
	<polygon class="st2" points="196.5,202.6 214.3,212.3 239.4,274.6 186.1,245.3 	"/>
	<ellipse class="st3" cx="157.3" cy="362.8" rx="30.7" ry="3.8"/>
	<ellipse class="st3" cx="155.4" cy="385" rx="49.8" ry="6"/>
	<ellipse class="st4" cx="156.3" cy="338.5" rx="78.1" ry="9.5"/>
	<path class="st0" d="M158.1,44.8c0,0-83.9,49.3-34.6,203.1h68.4C191.8,247.8,242.7,125.4,158.1,44.8z"/>
	
		<linearGradient id="SVGID_3_" gradientUnits="userSpaceOnUse" x1="109.4471" y1="2101.7329" x2="203.6671" y2="2096.8503" gradientTransform="matrix(1 0 0 1 -12.95 -1951.35)">
		<stop  offset="0" style="stop-color:#FFFFFF;stop-opacity:0"/>
		<stop  offset="0.95" style="stop-color:#FFFFFF"/>
	</linearGradient>
	<path class="st5" d="M158.1,44.8c0,0-83.9,49.3-34.6,203.1h68.4C191.8,247.8,242.7,125.4,158.1,44.8z"/>
	<circle class="st0" cx="156.6" cy="144.8" r="23"/>
	<path class="st0" d="M129.2,299.6l8.5-15.4c1.5,18.9,6.1,37.4,13.7,54.7c13.6-13.5,17.1-34.1,19.7-53.1c3.9,9.4,7.4,18.9,10.4,28.5
		c6.1-12.3,8.2-26.3,5.7-39.8l5.3,8.9c3.6-13,2-26.8-4.4-38.7c-10.8,0.8-21.7,1.3-32.6,1.6c-5.3,0.1-10.5,0.2-15.8,0.2
		c-3.5,0-9.8-1.3-13,0.4c-6,3.4-3.8,17.8-3.5,23.7c0.3,4.9,1,9.8,1.9,14.6C125.8,287.7,130.1,298,129.2,299.6z"/>
	
		<linearGradient id="SVGID_4_" gradientUnits="userSpaceOnUse" x1="169.5848" y1="2275.6665" x2="175.4505" y2="2079.428" gradientTransform="matrix(1 0 0 1 -12.95 -1951.35)">
		<stop  offset="0" style="stop-color:#010101;stop-opacity:0"/>
		<stop  offset="0.95" style="stop-color:#010101"/>
	</linearGradient>
	<path class="st6" d="M129.2,299.6l8.5-15.4c1.5,18.9,6.1,37.4,13.7,54.7c13.6-13.5,17.1-34.1,19.7-53.1c3.9,9.4,7.4,18.9,10.4,28.5
		c6.1-12.3,8.2-26.3,5.7-39.8l5.3,8.9c3.6-13,2-26.8-4.4-38.7c-10.8,0.8-21.7,1.3-32.6,1.6c-5.3,0.1-10.5,0.2-15.8,0.2
		c-3.5,0-9.8-1.3-13,0.4c-6,3.4-3.8,17.8-3.5,23.7c0.3,4.9,1,9.8,1.9,14.6C125.8,287.7,130.1,298,129.2,299.6z"/>
	
		<linearGradient id="SVGID_5_" gradientUnits="userSpaceOnUse" x1="170.5646" y1="2246.6982" x2="174.1288" y2="2127.0044" gradientTransform="matrix(1 0 0 1 -12.95 -1951.35)">
		<stop  offset="0" style="stop-color:#010101;stop-opacity:0"/>
		<stop  offset="0.95" style="stop-color:#010101"/>
	</linearGradient>
	<path class="st7" d="M140.8,280.3l5.1-9.4c0.9,11.5,3.8,22.8,8.4,33.4c8.3-8.3,10.4-20.8,12.1-32.4c2.3,5.7,4.5,11.5,6.4,17.4
		c3.8-7.5,5-16,3.5-24.2l3.2,5.5c2.2-7.9,1.2-16.4-2.7-23.7c-6.6,0.4-13.3,0.8-19.9,1c-3.2,0.1-6.4,0.1-9.6,0.1
		c-2.1,0-6-0.8-7.9,0.2c-3.7,2.1-2.3,10.8-2.1,14.5c0.2,3,0.6,6,1.2,8.9C138.8,272.9,141.3,279.3,140.8,280.3z"/>
	<path class="st0" d="M140.9,60.4c0,0,17.4,5.9,31.6,0l-14.1-15.3c-1.3-1.5-3.5-1.5-4.9-0.2c-0.1,0.1-0.2,0.2-0.3,0.3L140.9,60.4z"
		/>
	
		<linearGradient id="SVGID_6_" gradientUnits="userSpaceOnUse" x1="177.9175" y1="2006.6061" x2="133.014" y2="1998.7964" gradientTransform="matrix(1 0 0 1 -12.95 -1951.35)">
		<stop  offset="0" style="stop-color:#010101;stop-opacity:0"/>
		<stop  offset="0.95" style="stop-color:#010101"/>
	</linearGradient>
	<path class="st8" d="M140.9,60.4c0,0,17.4,5.9,31.6,0L158.2,45c-1.2-1.3-3.2-1.5-4.6-0.2c-0.1,0.1-0.2,0.2-0.3,0.3L140.9,60.4z"/>
	<path class="st9" d="M186.5,303.7c11.7,1.1,19.2,2.9,19.2,4.9c0,3.6-23.5,6.4-52.5,6.4s-52.5-2.9-52.5-6.4c0-2.9,16.1-5.4,38.1-6.1
		"/>
</g>
</svg>
