<svg xmlns="http://www.w3.org/2000/svg" viewBox="0 0 222.38 173.42"><defs><style>.cls-1{fill:#d0eaf2;}.cls-2,.cls-5,.cls-6{fill:none;}.cls-2,.cls-4,.cls-6{stroke:#131662;}.cls-2,.cls-6{stroke-linecap:round;}.cls-2,.cls-4,.cls-5,.cls-6{stroke-miterlimit:10;}.cls-2{stroke-width:4.38px;}.cls-3,.cls-4{fill:#131662;}.cls-4{stroke-width:2px;}.cls-5{stroke:#f48030;stroke-width:3px;}.cls-6{stroke-width:5.98px;}</style></defs><g id="Layer_2" data-name="Layer 2"><g id="Layer_1-2" data-name="Layer 1"><rect class="cls-1" x="41.38" y="16.88" width="70.32" height="156.54" rx="19.66"/><rect class="cls-2" x="49.33" y="24.95" width="123.73" height="144.25" rx="3.58"/><path class="cls-3" d="M143,28.6a9.49,9.49,0,0,1-9.46,9.46h-44a9.46,9.46,0,0,1,0-18.92h7.33a9.57,9.57,0,0,1-.27-2.29A9.92,9.92,0,0,1,106.47,7h10.1a9.92,9.92,0,0,1,9.89,9.89,9.57,9.57,0,0,1-.27,2.29h7.32A9.49,9.49,0,0,1,143,28.6Z"/><rect class="cls-3" x="90.39" y="53.42" width="63.53" height="2.08"/><rect class="cls-3" x="90.39" y="66.23" width="63.53" height="2.08"/><rect class="cls-3" x="90.39" y="79.04" width="63.53" height="2.08"/><rect class="cls-3" x="90.39" y="91.85" width="63.53" height="2.08"/><rect class="cls-3" x="90.39" y="104.66" width="63.53" height="2.08"/><rect class="cls-3" x="90.39" y="117.47" width="63.53" height="2.08"/><rect class="cls-4" x="68.31" y="151.99" width="86.9" height="0.9"/><path class="cls-3" d="M81,62H67.27V48.31H81ZM69.35,59.92h9.53V50.38H69.35Z"/><path class="cls-3" d="M81,81.69H67.27V68H81ZM69.35,79.62h9.53V70.08H69.35Z"/><path class="cls-3" d="M81,101.39H67.27V87.71H81ZM69.35,99.31h9.53V89.78H69.35Z"/><path class="cls-3" d="M81,121.09H67.27V107.4H81ZM69.35,119h9.53v-9.53H69.35Z"/><polyline class="cls-5" points="65.18 53.42 69.35 58.34 87.26 46.58"/><polyline class="cls-5" points="65.18 93.84 69.35 98.76 87.26 87"/><path class="cls-3" d="M26.72,29.92a2.54,2.54,0,0,0-3.59-.18l-4,3.65-3.64-4a2.55,2.55,0,1,0-3.78,3.41l3.65,4-4,3.65a2.54,2.54,0,0,0,2.31,4.36,2.5,2.5,0,0,0,1.1-.58l4-3.65,3.65,4a2.55,2.55,0,0,0,3.78-3.41l-3.65-4,4-3.65A2.54,2.54,0,0,0,26.72,29.92Z"/><path class="cls-3" d="M214.78,32.42a2.56,2.56,0,0,0-3.6-.18l-4,3.65-3.65-4a2.54,2.54,0,0,0-3.77,3.41l3.64,4-4,3.64a2.55,2.55,0,0,0,2.31,4.37,2.66,2.66,0,0,0,1.11-.59l4-3.65,3.65,4a2.53,2.53,0,0,0,2.49.76,2.45,2.45,0,0,0,1.1-.58,2.56,2.56,0,0,0,.18-3.6l-3.65-4,4-3.65A2.56,2.56,0,0,0,214.78,32.42Z"/><path class="cls-3" d="M34.74,1.54a1.15,1.15,0,0,0-1.58-.33l-2,1.35-1.35-2a1.14,1.14,0,0,0-1.91,1.25l1.34,2-2,1.35a1.14,1.14,0,0,0-.32,1.58,1.12,1.12,0,0,0,1.05.51,1.05,1.05,0,0,0,.53-.18l2-1.35,1.35,2.05a1.15,1.15,0,0,0,1.05.51,1.17,1.17,0,0,0,.53-.19,1.14,1.14,0,0,0,.33-1.58l-1.35-2,2-1.35A1.13,1.13,0,0,0,34.74,1.54Z"/><path class="cls-3" d="M190.8,7.85a1.13,1.13,0,0,1,1.58-.33l2,1.35,1.34-2a1.15,1.15,0,0,1,1.59-.32,1.13,1.13,0,0,1,.32,1.58l-1.34,2,2,1.35a1.14,1.14,0,0,1-.73,2.09,1.08,1.08,0,0,1-.53-.18l-2-1.35-1.34,2a1.15,1.15,0,0,1-1,.52,1.15,1.15,0,0,1-.86-1.77l1.34-2-2-1.35A1.13,1.13,0,0,1,190.8,7.85Z"/><line class="cls-6" x1="200.96" y1="169.22" x2="219.39" y2="169.22"/><line class="cls-6" x1="2.99" y1="169.22" x2="182.55" y2="169.22"/></g></g></svg>