<?xml version="1.0" encoding="utf-8"?>
<!-- Generator: Adobe Illustrator 24.1.1, SVG Export Plug-In . SVG Version: 6.00 Build 0)  -->
<svg version="1.1" id="Capa_1" xmlns="http://www.w3.org/2000/svg" xmlns:xlink="http://www.w3.org/1999/xlink" x="0px" y="0px"
	 viewBox="0 0 512 512" style="enable-background:new 0 0 512 512;" xml:space="preserve">
<style type="text/css">
	.st0{fill:#22262D;}
	.st1{fill:#02C6C6;}
	.st2{fill:#FFDD78;}
</style>
<g>
	<path class="st0" d="M263.4,105.7h30c0,26.8,20,49.1,45.8,52.7v-17.2c0-45.9-37.3-83.2-83.2-83.2s-83.2,37.3-83.2,83.2v17.7h37.4
		C239.5,158.9,263.4,135,263.4,105.7z"/>
	<path class="st1" d="M115.3,255.6h28.3c-0.5-4.7-0.8-9.6-0.8-14.4v-99.9C142.8,78.8,193.6,28,256,28s113.2,50.8,113.2,113.2v99.9
		c0,4.9-0.3,9.7-0.8,14.4h28.3c22.5,0,40.8-18.3,40.8-40.8v-45.5c0-22-17.4-39.9-39.2-40.8C391,56.4,329.9,0,256,0
		S121,56.4,113.7,128.4c-21.8,0.9-39.2,18.8-39.2,40.8v45.5C74.5,237.3,92.8,255.6,115.3,255.6L115.3,255.6z"/>
	<path class="st2" d="M256,330.7c25.5,0,48.4-12.4,63.7-32h-46.5v-30h62c2.6-8.7,4-17.9,4-27.5v-52.6c-25.1-2.2-47.1-15.7-60.8-35.3
		c-15.1,21.5-40,35.6-68.2,35.6h-37.4v52.2C172.8,290.5,210.1,330.7,256,330.7z"/>
	<path class="st1" d="M340.3,360.9v-40c-20.7,24.4-50.8,39.8-84.3,39.8c-33.2,0-63.1-15.2-83.9-39.3v39.5H172
		c19.7,15.3,52.4,36.3,83.9,36.3C287.5,397.1,320.4,376.2,340.3,360.9L340.3,360.9z"/>
	<path class="st0" d="M474.2,404.9L373.9,372c-17,15.1-66.7,55.1-118,55.1S155.2,387,138.4,371.9l-100.6,33
		C15.2,412.3,0,433.3,0,457.1V512h103.3v-52h30v52h245.4v-52h30v52H512v-54.9C512,433.3,496.8,412.3,474.2,404.9L474.2,404.9z"/>
</g>
</svg>
