<?xml version="1.0" encoding="utf-8"?>
<!-- Generator: Adobe Illustrator 24.1.1, SVG Export Plug-In . SVG Version: 6.00 Build 0)  -->
<svg version="1.1" id="Capa_1" xmlns="http://www.w3.org/2000/svg" xmlns:xlink="http://www.w3.org/1999/xlink" x="0px" y="0px"
	 viewBox="0 0 480 480" style="enable-background:new 0 0 480 480;" xml:space="preserve">
<style type="text/css">
	.st0{fill:#FEFEFE;}
	.st1{fill:#02C6C6;}
	.st2{fill:#E9CD4B;}
	.st3{fill:#22262D;}
</style>
<path class="st0" d="M64,358.4V8h400v464H64v-32"/>
<path class="st1" d="M152.8,228.3L176,352l80,16v40H16v-40l80-16l23.2-123.7"/>
<path class="st2" d="M40,408h192v32H40V408z"/>
<circle class="st1" cx="136" cy="192" r="40"/>
<g>
	<circle class="st1" cx="264" cy="72" r="24"/>
	<circle class="st1" cx="264" cy="224" r="32"/>
</g>
<path d="M256,96h16v64h-16V96z"/>
<path class="st3" d="M424,128h16v32h-16V128z"/>
<path class="st3" d="M424,184h16v32h-16V184z"/>
<path class="st3" d="M424,240h16v32h-16V240z"/>
<path class="st3" d="M424,296h16v32h-16V296z"/>
<path class="st3" d="M424,352h16v32h-16V352z"/>
<path class="st3" d="M424,408h16v32h-16V408z"/>
<path class="st3" d="M464,0H64c-4.4,0-8,3.6-8,8v343.8l-41.6,8.3c-3.7,0.7-6.4,4-6.4,7.8v40c0,4.4,3.6,8,8,8h16v24c0,4.4,3.6,8,8,8
	h16v24c0,4.4,3.6,8,8,8h400c4.4,0,8-3.6,8-8V8C472,3.6,468.4,0,464,0z M24,400v-25.4l73.6-14.7c3.2-0.6,5.7-3.2,6.3-6.4l21.5-114.7
	c7,1.6,14.3,1.6,21.2,0l21.5,114.7c0.6,3.2,3.1,5.7,6.3,6.4l73.6,14.7V400H24z M104,192c0-17.7,14.3-32,32-32s32,14.3,32,32
	c0,12.4-7.2,23.7-18.5,29c-16,7.5-35.1,0.5-42.5-15.5C105,201.3,104,196.7,104,192z M48,432v-16h176v16H48z M456,464H72v-16h160
	c4.4,0,8-3.6,8-8v-24h16c4.4,0,8-3.6,8-8v-40c0-3.8-2.7-7.1-6.4-7.8l-74.7-14.9l-21.1-112.7c22.4-14.2,29-43.9,14.8-66.3
	s-43.9-29-66.3-14.8s-29,43.9-14.8,66.3c3.8,6,8.8,11,14.8,14.8L89.1,345.2L72,348.6V99l184,58.9v27c-21.6,4.4-35.6,25.5-31.2,47.2
	s25.5,35.6,47.2,31.2s35.6-25.5,31.2-47.2c-3.2-15.7-15.5-28-31.2-31.2v-27L456,99V464z M288,224c0,13.3-10.7,24-24,24
	s-24-10.7-24-24s10.7-24,24-24C277.2,200,288,210.8,288,224z M248,72c0-8.8,7.2-16,16-16c8.8,0,16,7.2,16,16s-7.2,16-16,16
	C255.2,88,248,80.8,248,72z M456,82.2L272,141v-38.2c17.1-4.4,27.4-21.9,23-39s-21.9-27.4-39-23s-27.4,21.9-23,39
	c2.9,11.3,11.7,20.1,23,23V141L72,82.2V16h384V82.2z"/>
</svg>
