<?xml version="1.0" encoding="utf-8"?>
<!-- Generator: Adobe Illustrator 24.1.1, SVG Export Plug-In . SVG Version: 6.00 Build 0)  -->
<svg version="1.1" id="a48982f8-6f90-42ca-afb3-d8e4a7a73152"
	 xmlns="http://www.w3.org/2000/svg" xmlns:xlink="http://www.w3.org/1999/xlink" x="0px" y="0px" viewBox="0 0 740.8 608.5"
	 style="enable-background:new 0 0 740.8 608.5;" xml:space="preserve">
<style type="text/css">
	.st0{fill:#E6E6E6;}
	.st1{fill:#9F616A;}
	.st2{fill:#2F2E41;}
	.st3{fill:#D0CDE1;}
	.st4{fill:#22262D;}
	.st5{fill:#FFFFFF;}
</style>
<path class="st0" d="M740.8,589.9c0.2,23.7-149.2,25.9-152,0C588.6,566.2,738,564,740.8,589.9z"/>
<polygon class="st1" points="624,507.6 612.9,513.6 619.9,536.8 631,537.8 637.1,524.7 "/>
<polygon class="st1" points="658.3,554 658.3,565.1 675.4,564.1 675.2,554.9 "/>
<polygon class="st2" points="619.9,374.3 626,450 645.2,561.1 675.4,557 665.3,469.2 669.4,388.5 "/>
<path class="st2" d="M700.7,317.8l-72.7,1l-8.1,55.5l49.5,23.2l12.1,44.4l-61.6,65.6l24.2,30.3c0,0,34.3-46.4,59.5-72.7
	s13.1-106,13.1-106L700.7,317.8z"/>
<circle class="st1" cx="657.3" cy="152.3" r="22.2"/>
<path class="st1" d="M649.2,167.5v22.2l15.1,24.2c0,0,23.2-17.2,18.2-21.2s-6.1-35.3-6.1-35.3L649.2,167.5z"/>
<polygon class="st3" points="649.2,185.6 634.1,203.8 640.1,329.9 687.5,328.9 695.6,218.9 685.5,190.7 678.6,181.2 666.4,199.7 "/>
<path class="st2" d="M625,251.2l-11.1,42.4L625,336l-18.2,24.2l-16.1-76.7c0,0,12.1-62.6,13.1-69.6s3-8.1,3-8.1l8.1,1L625,251.2z"/>
<polygon class="st2" points="705.7,267.4 712.8,280.5 714.8,302.7 710.8,327.9 724.9,351.1 739,287.6 723.9,205.8 717.8,205.8 "/>
<path class="st2" d="M619.9,506.6c0,0-14.1,4-19.2,5s3,20.2,3,20.2s5,26.2,6.1,31.3s8.1,22.2,17.2,24.2s3-35.3,3-35.3s4-12.1,4-16.1
	s-6.1-2-6.1-2C611.9,531.8,619.9,506.6,619.9,506.6z"/>
<path class="st2" d="M653.2,584.3c1,6.1-1,6.1,15.1,8.1s12.1-11.1,12.1-11.1c-0.7-6.2-2-12.3-4-18.2c-3-8.1-19.2,2-19.2,2
	S652.2,578.2,653.2,584.3z"/>
<path class="st2" d="M676.5,158.1l0.5,9c0,0,6.5-14.7,7.5-29.9S668.4,119,658.3,118s-27.2,6.1-27.2,14.1s18.2,6.1,25.2,4
	s10.1,15.1,10.1,15.1l4,1L676.5,158.1z"/>
<polygon class="st3" points="643.2,192.8 649.2,185.6 666.4,199.7 649.2,211.9 "/>
<polygon class="st3" points="685.5,190.7 678.5,181.6 666.4,199.7 681.5,210.9 "/>
<path class="st2" d="M621.9,265.4l4,38.4l-8.1,23.2l-5,22.2c0,0,0,21.2,20.2,22.2s37.3-63.6,37.3-63.6s3,14.1,5,22.2
	s36.3,40.4,36.3,40.4s8.1-1,15.1-17.2s-14.1-31.3-14.1-31.3l-6.1-21.2l2-26.2l14.1-68.6L681,184.1l4.5,58l-15.1,45.4l-22.7-100.4
	l-7.6,5.6l-32.3,13.1L621.9,265.4z"/>
<path class="st3" d="M223.1,418c-2,0-4,0-6-0.1l0.1-2c2,0.1,4,0.1,5.9,0.1c2,0,4,0,6-0.1l0.1,2C227.1,418,225.1,418,223.1,418z
	 M205.1,417.2c-4-0.4-8-0.9-12-1.5l0.3-2c3.9,0.6,7.9,1.1,11.8,1.5L205.1,417.2z M241.2,417.1l-0.2-2c3.9-0.4,7.9-0.9,11.8-1.5
	l0.3,2C249.2,416.2,245.1,416.8,241.2,417.1L241.2,417.1z M181.3,413.4c-3.9-0.9-7.8-1.9-11.7-3l0.6-1.9c3.8,1.1,7.7,2.1,11.5,3
	L181.3,413.4z M264.9,413.3l-0.4-1.9c3.9-0.9,7.7-1.9,11.5-3l0.6,1.9C272.8,411.4,268.8,412.4,264.9,413.3L264.9,413.3z
	 M158.2,406.5c-3.8-1.4-7.5-2.9-11.2-4.5l0.8-1.8c3.6,1.6,7.3,3.1,11.1,4.5L158.2,406.5z M288,406.5l-0.7-1.9
	c3.7-1.4,7.4-2.9,11-4.5l0.8,1.8C295.5,403.6,291.8,405.1,288,406.5z M136.1,396.8c-3.5-1.8-7.1-3.8-10.5-5.9l1-1.7
	c3.4,2.1,6.9,4,10.4,5.9L136.1,396.8z M310,396.7l-0.9-1.8c3.5-1.8,7-3.8,10.4-5.9l1,1.7C317.1,392.9,313.5,394.9,310,396.7z
	 M115.5,384.3c-3.3-2.3-6.5-4.7-9.7-7.2l1.2-1.6c3.1,2.5,6.3,4.9,9.6,7.1L115.5,384.3z M330.6,384.2l-1.1-1.6
	c3.2-2.3,6.5-4.7,9.5-7.1l1.2,1.6C337.1,379.5,333.9,381.9,330.6,384.2z M96.7,369.2c-3-2.7-5.9-5.5-8.7-8.4l1.4-1.4
	c2.8,2.8,5.6,5.6,8.6,8.3L96.7,369.2z M349.4,369.2l-1.3-1.5c2.9-2.7,5.8-5.4,8.6-8.3l1.4,1.4C355.3,363.7,352.3,366.5,349.4,369.2z
	 M79.9,352c-2.6-3-5.1-6.2-7.5-9.4l1.6-1.2c2.4,3.2,4.9,6.3,7.4,9.3L79.9,352z M366.1,351.9l-1.5-1.3c2.6-3,5.1-6.1,7.4-9.3l1.6,1.2
	C371.3,345.7,368.7,348.8,366.1,351.9L366.1,351.9z M65.5,332.7c-2.2-3.4-4.3-6.8-6.3-10.3l1.7-1c1.9,3.4,4,6.9,6.2,10.2L65.5,332.7
	z M380.6,332.6l-1.7-1.1c2.2-3.3,4.2-6.8,6.2-10.2l1.7,1C384.9,325.8,382.8,329.2,380.6,332.6L380.6,332.6z M53.7,311.7
	c-1.7-3.6-3.4-7.3-4.9-11l1.9-0.8c1.5,3.7,3.1,7.3,4.8,10.9L53.7,311.7z M392.4,311.6l-1.8-0.9c1.7-3.6,3.3-7.2,4.8-10.9l1.9,0.8
	C395.8,304.3,394.2,308,392.4,311.6z M44.6,289.4c-1.3-3.8-2.4-7.7-3.4-11.5l1.9-0.5c1,3.8,2.1,7.7,3.4,11.4L44.6,289.4z
	 M401.5,289.2l-1.9-0.6c1.2-3.8,2.4-7.6,3.4-11.4l1.9,0.5C403.9,281.5,402.7,285.4,401.5,289.2z M38.5,266.1
	c-0.8-3.9-1.4-7.9-1.9-11.9l2-0.3c0.5,3.9,1.1,7.9,1.9,11.8L38.5,266.1z M407.6,265.9l-2-0.4c0.8-3.9,1.4-7.8,1.9-11.8l2,0.3
	C409,258,408.3,262,407.6,265.9L407.6,265.9z M35.4,242.3c-0.3-4-0.4-8-0.4-12l2,0c0,4,0.1,8,0.4,11.9L35.4,242.3z M410.6,242
	l-2-0.1c0.2-3.9,0.4-7.9,0.4-11.9l0-0.4h2l0,0.4C411,234,410.9,238.1,410.6,242L410.6,242z M37.4,218.3l-2-0.1c0.2-4,0.6-8,1.1-12
	l2,0.3C38,210.4,37.6,214.4,37.4,218.3z M408.6,217.6c-0.3-4-0.6-7.9-1.2-11.9l2-0.3c0.5,4,0.9,8,1.2,12L408.6,217.6z M40.4,194.7
	l-2-0.4c0.8-3.9,1.6-7.9,2.7-11.8L43,183C42,186.9,41.1,190.8,40.4,194.7z M405.5,194c-0.8-3.9-1.7-7.8-2.7-11.6l1.9-0.5
	c1,3.9,1.9,7.8,2.7,11.7L405.5,194z M46.3,171.6l-1.9-0.6c1.3-3.8,2.7-7.6,4.2-11.3l1.9,0.7C49,164.1,47.6,167.9,46.3,171.6z
	 M399.4,171c-1.3-3.8-2.6-7.5-4.1-11.2l1.9-0.8c1.5,3.7,2.9,7.5,4.2,11.3L399.4,171z M55.3,149.5l-1.8-0.9c1.7-3.6,3.6-7.2,5.6-10.7
	l1.7,1C58.9,142.4,57,145.9,55.3,149.5z M390.5,148.9c-1.7-3.6-3.6-7.1-5.5-10.5l1.7-1c2,3.5,3.9,7.1,5.6,10.7L390.5,148.9z
	 M67,128.7l-1.7-1.1c2.2-3.4,4.5-6.7,6.9-9.9l1.6,1.2C71.4,122.1,69.1,125.4,67,128.7z M378.7,128.2c-2.2-3.3-4.5-6.6-6.8-9.8
	l1.6-1.2c2.4,3.2,4.7,6.5,6.9,9.9L378.7,128.2z M81.2,109.6l-1.5-1.3c2.6-3,5.3-6.1,8.1-8.9l1.4,1.4
	C86.5,103.6,83.8,106.6,81.2,109.6z M364.4,109.2c-2.6-3-5.3-6-8-8.8l1.4-1.4c2.8,2.9,5.5,5.9,8.1,8.9L364.4,109.2z M97.8,92.4
	L96.4,91c3-2.7,6-5.3,9.2-7.8l1.3,1.6C103.8,87.2,100.7,89.8,97.8,92.4z M347.8,92.1c-2.9-2.7-6-5.3-9.1-7.7l1.2-1.6
	c3.1,2.5,6.2,5.1,9.2,7.8L347.8,92.1z M116.4,77.6l-1.1-1.6c3.3-2.3,6.7-4.5,10.1-6.6l1,1.7C123,73.1,119.6,75.3,116.4,77.6z
	 M329.2,77.2c-3.3-2.3-6.6-4.5-10-6.5l1-1.7c3.4,2.1,6.8,4.3,10.1,6.6L329.2,77.2z M136.7,65.2l-0.9-1.8c3.5-1.9,7.2-3.6,10.8-5.2
	l0.8,1.8C143.8,61.6,140.2,63.3,136.7,65.2z M308.7,64.9c-3.5-1.8-7.1-3.6-10.8-5.2l0.8-1.8c3.7,1.6,7.3,3.4,10.9,5.2L308.7,64.9z
	 M158.5,55.5l-0.7-1.9c3.8-1.4,7.6-2.7,11.4-3.8l0.6,1.9C166,52.9,162.2,54.1,158.5,55.5z M286.9,55.3c-3.7-1.4-7.5-2.6-11.3-3.7
	l0.6-1.9c3.8,1.1,7.7,2.4,11.4,3.8L286.9,55.3z M181.3,48.7l-0.4-1.9c3.9-0.9,7.9-1.7,11.8-2.3l0.3,2
	C189.1,47,185.1,47.8,181.3,48.7z M264.1,48.5c-3.9-0.9-7.8-1.6-11.7-2.2l0.3-2c4,0.6,7.9,1.4,11.8,2.3L264.1,48.5z M204.8,44.9
	l-0.2-2c4-0.4,8-0.6,12-0.8l0.1,2C212.7,44.2,208.7,44.5,204.8,44.9L204.8,44.9z M240.5,44.8c-3.9-0.4-7.9-0.6-11.9-0.7l0.1-2
	c4,0.1,8,0.4,12,0.7L240.5,44.8z"/>
<circle class="st4" cx="216" cy="47" r="47"/>
<circle class="st4" cx="398" cy="175" r="47"/>
<circle class="st4" cx="341" cy="371" r="47"/>
<circle class="st4" cx="115" cy="379" r="47"/>
<circle class="st4" cx="47" cy="175" r="47"/>
<path class="st5" d="M236.1,43.3h-16.4c-3.1,0-5.6-2.5-5.6-5.6V21.2c0-0.3-0.2-0.5-0.5-0.5l0,0h-10.8c-4.1,0-7.5,3.4-7.5,7.5v37.5
	c0,4.1,3.4,7.5,7.5,7.5l0,0h26.2c4.1,0,7.5-3.4,7.5-7.5c0,0,0,0,0,0v-22C236.6,43.5,236.4,43.3,236.1,43.3L236.1,43.3z M225.4,62
	h-18.7c-1,0-1.9-0.8-1.9-1.9s0.8-1.9,1.9-1.9h18.7c1,0,1.9,0.8,1.9,1.9S226.4,62,225.4,62z M225.4,52.6h-18.7c-1,0-1.9-0.8-1.9-1.9
	s0.8-1.9,1.9-1.9h18.7c1,0,1.9,0.8,1.9,1.9S226.4,52.6,225.4,52.6z"/>
<path class="st5" d="M235.1,39.1l-16.8-16.8c-0.1-0.1-0.2-0.1-0.3,0c0,0-0.1,0.1-0.1,0.2v15.2c0,1,0.8,1.9,1.9,1.9h15.2
	c0.1,0,0.2-0.1,0.2-0.2C235.2,39.2,235.2,39.1,235.1,39.1L235.1,39.1z"/>
<path class="st5" d="M347.8,361.7c-1.4,0-2.5,1.1-2.5,2.5c0,1.4,1.1,2.5,2.5,2.5c1.4,0,2.5-1.1,2.5-2.5c0-0.7-0.3-1.3-0.7-1.8
	C349.1,362,348.5,361.7,347.8,361.7z"/>
<path class="st5" d="M361.7,351.8L361.7,351.8c-0.2-0.7-0.7-1.3-1.4-1.4c-2.8-0.7-7.2,0-12,2c-4.7,1.8-8.9,4.5-12.6,8
	c-1,1-1.9,2-2.8,3.2c-1.9-0.1-3.7,0.2-5.5,0.9c-5.4,2.4-6.9,8.4-7.3,10.9c-0.2,1.3,0.6,2.5,1.9,2.7c0.2,0,0.4,0,0.6,0h0l6-0.7
	c0,0.1,0,0.1,0,0.2c0.1,0.7,0.4,1.4,0.9,1.9l2.9,2.9c0.5,0.5,1.2,0.8,1.9,0.9l0.2,0l-0.7,6v0c-0.1,1.3,0.8,2.4,2.1,2.6l0,0
	c0.1,0,0.1,0,0.2,0c0.1,0,0.3,0,0.4,0c2.5-0.4,8.6-1.9,10.9-7.3c0.7-1.7,1-3.6,0.9-5.4c1.1-0.8,2.2-1.8,3.2-2.8
	c3.4-3.6,6.1-7.8,8-12.5C361.6,359.1,362.3,354.7,361.7,351.8z M351.7,368.1c-2.1,2.1-5.6,2.1-7.8,0s-2.1-5.6,0-7.8
	c2.1-2.1,5.6-2.1,7.8,0l0,0l0,0C353.8,362.5,353.8,365.9,351.7,368.1L351.7,368.1L351.7,368.1z"/>
<path class="st5" d="M332.2,383.2c-0.4,0-0.7,0-1,0.2c-0.6,0.4-1.2,0.8-1.8,1.2c-0.6,0.4-1.5,0.2-1.9-0.4c-0.3-0.4-0.3-1,0-1.4
	l1.1-2c0.5-0.7,0.3-1.6-0.4-2.1c-0.3-0.2-0.7-0.3-1-0.2c-1.3,0.2-2.4,0.7-3.3,1.6c-0.3,0.3-1.4,1.4-1.9,5.3
	c-0.2,1.1-0.3,2.3-0.3,3.4c0,0.8,0.6,1.5,1.5,1.5l0,0c0,0,0,0,0,0h0c1.1,0,2.3-0.1,3.4-0.3c4-0.6,5-1.6,5.3-1.9
	c0.9-0.9,1.5-2.1,1.6-3.3C333.6,384,333,383.3,332.2,383.2z"/>
<path class="st5" d="M98.8,404.5h-3.4c-1.4,0-2.6-1.1-2.6-2.6l0,0v-15.3c0-1.4,1.1-2.6,2.6-2.6l0,0h3.4c1.4,0,2.6,1.1,2.6,2.6l0,0
	V402C101.4,403.4,100.2,404.5,98.8,404.5L98.8,404.5z"/>
<path class="st5" d="M122.7,404.5h-3.4c-1.4,0-2.6-1.1-2.6-2.6l0,0v-25.5c0-1.4,1.1-2.6,2.6-2.6l0,0h3.4c1.4,0,2.6,1.1,2.6,2.6l0,0
	V402C125.2,403.4,124.1,404.5,122.7,404.5L122.7,404.5z"/>
<path class="st5" d="M134.6,404.5h-3.4c-1.4,0-2.6-1.1-2.6-2.6l0,0v-37.5c0-1.4,1.1-2.6,2.6-2.6h3.4c1.4,0,2.6,1.1,2.6,2.6V402
	C137.1,403.4,136,404.5,134.6,404.5L134.6,404.5z"/>
<path class="st5" d="M110.7,404.5h-3.4c-1.4,0-2.6-1.1-2.6-2.6l0,0v-46c0-1.4,1.1-2.6,2.6-2.6h3.4c1.4,0,2.6,1.1,2.6,2.6v46
	C113.3,403.4,112.2,404.5,110.7,404.5L110.7,404.5z"/>
<path class="st5" d="M400.3,173.8l-2.4-2.4c-1.2-1.2-3-1.2-4.2,0l-16.9,15.6c-0.6,0.5-1,1.3-1.1,2.1c0,0.8,0.3,1.6,0.9,2.2l3.6,3.7
	l0,0c0.6,0.6,1.3,0.9,2.1,0.9h0.1c0.8,0,1.6-0.4,2.2-1l15.7-16.8C401.4,176.8,401.4,174.9,400.3,173.8L400.3,173.8z"/>
<path class="st5" d="M419.8,168.9L419.8,168.9l-3.2-3.2c-0.4-0.4-0.9-0.6-1.4-0.6c-0.4,0-0.8,0.1-1.2,0.4c0,0,0-0.1,0-0.1
	c0.1-0.8,0-1.7-0.5-2.4c-0.7-0.9-1.5-1.8-2.3-2.7l0,0c-2.3-2.2-5.1-4-8.1-5.2c-1.6-0.6-3.2-1-4.9-1c-2.2,0-4.3,0.7-6,2.1
	c-0.5,0.5-0.9,1-1.3,1.5c-0.5,0.7-0.3,1.6,0.3,2.1c0.4,0.3,0.9,0.4,1.4,0.2c0.3-0.1,0.5-0.2,0.8-0.2c0.6-0.1,1.1-0.2,1.7-0.1
	c1.2,0.1,2.3,0.5,3.3,1.2c1.1,0.9,1.8,2.4,1.7,3.8c-0.4,1.2-1,2.3-1.9,3.2c-0.5,0.6-0.4,1.4,0.1,2l3.2,3.2c0.6,0.6,1.5,0.6,2,0.1
	c0.9-0.8,2.3-2,2.8-2.3c0.4-0.3,0.9-0.5,1.4-0.5c0.4,0,0.7,0,1.1,0.2c0,0,0,0.1,0,0.1l-0.2,0.2l0,0c-0.8,0.8-0.8,2.1,0,2.8l0,0
	l3.2,3.2c0.4,0.4,0.9,0.6,1.4,0.6c0.5,0,1-0.2,1.4-0.6l5.2-5.1c0,0,0,0,0.1-0.1C420.6,170.8,420.5,169.6,419.8,168.9z"/>
<path class="st5" d="M54.5,172.2c-1,0-1.9-0.8-1.9-1.9c0-0.5,0.2-1,0.5-1.3l4.3-4.3l-4.3-4.3c-0.7-0.7-0.7-1.9,0-2.6
	c0.7-0.7,1.9-0.7,2.6,0l5.6,5.6c0.7,0.7,0.7,1.9,0,2.6c0,0,0,0,0,0l-5.6,5.6C55.4,172,55,172.2,54.5,172.2z"/>
<path class="st5" d="M24.6,177.8c-1,0-1.9-0.8-1.9-1.9c0,0,0,0,0,0v-1.9c0-6.2,5-11.2,11.2-11.2h24.3c1,0,1.9,0.8,1.9,1.9
	c0,1-0.8,1.9-1.9,1.9c0,0,0,0,0,0H33.9c-4.1,0-7.4,3.4-7.5,7.5v1.9C26.5,177,25.6,177.8,24.6,177.8
	C24.6,177.8,24.6,177.8,24.6,177.8z"/>
<path class="st5" d="M39.5,192.7c-0.5,0-1-0.2-1.3-0.5l-5.6-5.6c-0.7-0.7-0.7-1.9,0-2.6c0,0,0,0,0,0l5.6-5.6c0.7-0.7,1.9-0.7,2.6,0
	c0.7,0.7,0.7,1.9,0,2.6l-4.3,4.3l4.3,4.3c0.7,0.7,0.7,1.9,0,2.6C40.5,192.5,40,192.7,39.5,192.7L39.5,192.7z"/>
<path class="st5" d="M35.8,187.1c-1,0-1.9-0.8-1.9-1.9c0-1,0.8-1.9,1.9-1.9h24.3c4.1,0,7.4-3.4,7.5-7.5v-1.9c0-1,0.8-1.9,1.9-1.9
	c1,0,1.9,0.8,1.9,1.9v1.9c0,6.2-5,11.2-11.2,11.2L35.8,187.1z"/>
</svg>
