<?xml version="1.0" encoding="utf-8"?>
<!-- Generator: Adobe Illustrator 24.1.1, SVG Export Plug-In . SVG Version: 6.00 Build 0)  -->
<svg version="1.1" id="e1d6a9e2-5d0a-4358-9625-bb79dd06fec3"
	 xmlns="http://www.w3.org/2000/svg" xmlns:xlink="http://www.w3.org/1999/xlink" x="0px" y="0px" viewBox="0 0 996 674"
	 style="enable-background:new 0 0 996 674;" xml:space="preserve">
<style type="text/css">
	.st0{fill:#F2F2F2;}
	.st1{fill:#2F2E41;}
	.st2{opacity:0.3;enable-background:new    ;}
	.st3{opacity:0.1;enable-background:new    ;}
	.st4{opacity:0.26;enable-background:new    ;}
	.st5{fill:#3F3D56;}
	.st6{fill:#FFB9B9;}
	.st7{fill:#D0CDE1;}
</style>
<circle class="st0" cx="359.1" cy="525.4" r="138.9"/>
<path class="st1" d="M498,597.1c-162.1,0-293.5-131.4-293.5-293.5S335.9,10,498,10s293.5,131.4,293.5,293.5
	c0,77.9-30.9,152.5-86,207.6C650.6,566.3,575.9,597.3,498,597.1z M498,12.2c-160.6,0-291.3,130.7-291.3,291.3S337.4,594.8,498,594.8
	s291.3-130.7,291.3-291.3S658.6,12.2,498,12.2L498,12.2z"/>
<g>
	<polygon class="st0" points="651,386.4 651,386.5 506.3,467 347.9,387.8 345,386.4 353.4,222 496.3,120.1 498,121 646,213.8 	"/>
	<polygon class="st2" points="651,386.5 506.3,467 347.9,387.8 488.2,289.4 	"/>
	<polygon class="st3" points="651,386.4 488.2,289.4 498,121 646,213.8 	"/>
	<polygon class="st4" points="351.3,272.7 350.5,271.6 495,169.5 647.8,265.3 647.2,266.5 495.2,171.2 	"/>
	<polygon class="st4" points="348.5,328.6 347.7,327.5 491.5,229.7 492,230 648,318.4 647.3,319.6 491.7,231.4 	"/>
	<polygon class="st4" points="403.4,416 402.5,414.8 547.7,324.9 547.7,152.6 549,152.6 549,325.7 	"/>
	<polygon class="st4" points="460.3,444.4 459.5,443.2 599.2,355.6 599.2,184.9 600.5,184.9 600.5,356.4 	"/>
	<polygon class="st4" points="598.7,416 436.3,325.7 436.3,325.3 444.9,156.3 446.2,156.4 437.7,324.9 599.3,414.8 	"/>
	<polygon class="st4" points="547.5,444.5 387,360.3 387,359.8 396.5,190.7 397.9,190.8 388.4,359.5 548.3,443.2 	"/>
</g>
<ellipse class="st5" cx="707.6" cy="83.9" rx="56" ry="56"/>
<rect x="32.5" y="662.1" class="st1" width="963.5" height="2.2"/>
<path class="st6" d="M870.6,430l9.6,26.2c0,0-10,30,0,30.8s11.2-28.7,11.2-28.7l-5.4-31.6L870.6,430z"/>
<path class="st7" d="M875.2,344.2l7.1,7.1V385c0,0,4.2,6.3,3.4,7.9s-1.6,1.6-0.8,2.9s1.6,2.1,0.8,2.9c-0.8,1.1-0.8,2.6,0,3.7
	c0.8,0.8,2.5,2.1,1.3,3.4s-2.9,0.4-1.3,5c1.6,4.6,4.6,5.8,3.7,7.5c-0.8,1.6-0.8,5.8-0.8,5.8l-17.9,2.5l-3.7-47L875.2,344.2z"/>
<polygon class="st5" points="889.4,423.8 868.6,424.6 869.4,433.3 887.7,430 "/>
<polygon class="st6" points="832.1,300.8 829.6,325.8 855.1,329.5 856.9,315.1 858.8,300.8 "/>
<polygon class="st3" points="832.1,300.8 829.6,325.8 855.1,329.5 856.9,315.1 858.8,300.8 "/>
<path class="st6" d="M777,419.6l14.1,30.4c0,0,2.5,14.1,6.3,14.6c3.8,0.4,7.5-14.6,7.5-14.6l-5-7.9l-5.8-22.5H777L777,419.6
	L777,419.6z"/>
<path class="st1" d="M806.5,447l-11.7,18.3c0,0-11.2,174.4-9.6,173.1c1.6-1.3,7.1-1.6,9.1-5s15,0,15,0l7.5-7.9v-6.3
	c0-1.3,15-96.6,15-96.6v24.1c0,0-4.6,88.7,2.9,87.8c7.5-0.8,22.9-5.8,22.9-5.8s22-165.5,15.4-171.7c-6.7-6.2-9.6-20.4-9.6-20.4
	L806.5,447z"/>
<circle class="st6" cx="846.1" cy="288.9" r="20"/>
<path class="st7" d="M801.5,329.6l-2.9-1.6c0,0-12.9,8.7-17,28.3c-4.1,19.6-7.1,24.5-7.1,24.5s-4.2,0.8-1.3,3.7
	c2.9,2.9,2.9,2.5,0.4,4.2s-4.2-1.6-2.5,1.6s3.7,2.5,2.1,4.6c-1.6,2.1-4.6,2.1-2.9,3.7c1.6,1.6-1.6,5.4,0.4,7.1s2.9,2.1,2.9,5
	c0,1.7,0.3,3.4,0.8,5H796c0,0-4.2-7.9-2.9-9.6s1.6-3.4,0.8-4.2c-0.8-0.8-3.4,0.8-0.8-1.3c2.5-2.1,3.4-0.8,2.5-3.4
	c-0.9-2.5-2.5-1.3-0.8-2.5c1.6-1.2,2.9-0.8,2.1-2.1c-0.8-1.3-2.5-1.3-0.8-2.1c1.6-0.8,2.9,0,2.5-2.1s-0.8-1.3,0-2.1
	c0.8-0.8,9.6-29.2,9.6-30S801.5,329.6,801.5,329.6z"/>
<polygon class="st5" points="797.4,414.2 771.2,415.8 777.8,422 796.1,422.5 "/>
<path class="st5" d="M804.9,445.4l-5.4,10c0,0,16.2,2.1,22.1,4.2c5.8,2.1,20.8,5,20.8,5l3.7-14.6L804.9,445.4z"/>
<polygon class="st5" points="852.3,449.9 856.9,463.7 875.2,459.9 873.1,447 "/>
<path class="st7" d="M859.8,315.5c0,0-1.3-0.8-4.2,0.8c-2.9,1.6-12.5,2.5-17-2.5c-4.6-4.9-7.9-9.1-9.1-8.3
	c-1.2,0.8-2.1,10.4-2.1,10.4l-4.2,3.4l-24.5,8.7l2.1,56.2l3.7,12.9c0,0-2.9,10,0.8,15.8s-2.1,7.9-2.1,7.9s-1.3,1.6-0.4,5.8
	c0.8,4.2-0.8,19.6-0.8,19.6s35.4,15.8,72.4,2.1l-4.2-15.8l-2.1-35.4c0,0,2.1-5.8,1.6-8.3c-0.4-2.5,12.5-37.5,12.5-37.5
	s-2.1-17.5-12.9-21.2c-10.8-3.7-12.5-7.5-12.5-7.5S861.9,317.2,859.8,315.5z"/>
<path class="st1" d="M826,291.4c0,0-2.1-3.1-1.3-6.4c0.4-1.9,0.7-3.9,0.5-5.8c0.9-2.9,2-5.8,3.4-8.4c1.6-3.1,0.9-4.3,6.1-5.2
	s3.1-7.8,17-0.4c1,1.3,2.6,1.9,4.3,1.6c2.8-0.5,3.9,3.4,3.9,3.4s1.9-1.1,2.6,0.4c0.7,1.6,5.8-1,5.8,9.8s-5.8,20.4-5.8,20.4
	s0.4-18.1-9-20c-9.5-1.9-19.7-7.2-22.2-0.3C829.9,284.3,828.1,288,826,291.4z"/>
<ellipse class="st6" cx="862.8" cy="293.2" rx="1.9" ry="2.5"/>
<path class="st1" d="M852.1,627.5l2.9,8.7c0,0,0,8.7,2.9,13.2c2.9,4.4,5.8,13.9-5.8,14.7c-11.7,0.7-16.8-3.7-16.8-3.7s2.2-5.8,0-8.1
	c-2.2-2.2,0-6.6,0-6.6l2.2-17.6L852.1,627.5z"/>
<path class="st1" d="M795.1,627.5l-2.9,8.7c0,0,0,8.7-2.9,13.2c-2.9,4.4-5.8,13.9,5.8,14.7c11.7,0.7,16.8-3.7,16.8-3.7
	s-2.2-5.8,0-8.1c2.2-2.2,0-6.6,0-6.6l-2.2-17.6L795.1,627.5z"/>
</svg>
